SplineFontDB: 3.0
FontName: FifthLeg
FullName: FifthLeg
FamilyName: FifthLeg
Weight: Regular
Copyright: Designed by Jakub Steiner <jimmac@gmail.com> with FontForge 2.0\n\nhttp://jimmac.musichall.cz\n
UComments: "2008-8-26: Created." 
FontLog: "v0.4 +IBQA Moved oldstyle numerals to U+---F730 ... Kerning by class. Basic latin ligatures. Improved 'g'.+AAoA-v0.3 +IBQA Improved metrics, but still nowhere near being good enough.+AAoA-v0.2 +IBQA Better coverage, normal weight.+AAoA-v0.1 +IBQA Initial version, result of the openSUSE hackweek.+AAoA" 
Version: 0.4
ItalicAngle: 0
UnderlinePosition: 122
UnderlineWidth: 49
Ascent: 800
Descent: 200
LayerCount: 3
Layer: 0 0 "Back"  1
Layer: 1 0 "Fore"  0
Layer: 2 0 "Alt"  0
XUID: [1021 332 1867756345 15220598]
FSType: 0
OS2Version: 2
OS2_WeightWidthSlopeOnly: 0
OS2_UseTypoMetrics: 1
CreationTime: 1219682457
ModificationTime: 1242940364
PfmFamily: 33
TTFWeight: 400
TTFWidth: 5
LineGap: 0
VLineGap: 0
Panose: 0 0 4 0 0 0 0 0 0 0
OS2TypoAscent: 200
OS2TypoAOffset: 1
OS2TypoDescent: -200
OS2TypoDOffset: 1
OS2TypoLinegap: 0
OS2WinAscent: 0
OS2WinAOffset: 1
OS2WinDescent: 0
OS2WinDOffset: 1
HheadAscent: 0
HheadAOffset: 1
HheadDescent: 0
HheadDOffset: 1
OS2SubXSize: 0
OS2SubYSize: 4096
OS2SubXOff: -25240
OS2SubYOff: 24640
OS2SupXSize: 4096
OS2SupYSize: -20884
OS2SupXOff: -25257
OS2SupYOff: -28684
OS2StrikeYSize: 12426
OS2StrikeYPos: 15392
OS2FamilyClass: 2048
OS2Vendor: 'SUSE'
OS2CodePages: 00000001.00000000
Lookup: 4 0 1 "'liga' Standard Lating Ligatures"  {"'liga' Standard Lating Ligatures-1"  } ['liga' ('DFLT' <'dflt' > 'latn' <'dflt' > ) ]
Lookup: 258 0 0 "'kern' Kerning"  {"class-kerning"  } ['kern' ('DFLT' <'dflt' > 'latn' <'dflt' > ) ]
DEI: 91125
KernClass2: 4 4 "class-kerning" 
 43 A Agrave Aacute Acircumflex Adieresis Aring
 8 T Tcaron
 15 V W Wcircumflex
 15 V W Wcircumflex

StartChar: b
Encoding: 98 98 0
Width: 531
VWidth: 0
Flags: W
HStem: -3.82031 93.5889<262.611 394.72> 385.811 93.5869<270.672 394.72>
VStem: 71.7031 88.8135<0.954102 43.9287 93.356 382.756 424.01 662.004> 399.314 88.8125<94.4559 126.058 126.058 381.121>
LayerCount: 3
Back
SplineSet
137.517 707.636 m 1
 137.517 424.01 l 1
 309.466 476.532 l 2
 319.017 478.441 328.566 479.397 338.115 479.397 c 0
 404.964 479.397 465.127 422.1 465.127 374.351 c 2
 465.127 101.227 l 2
 465.127 53.4785 404.964 -3.82031 338.115 -3.82031 c 0
 328.566 -3.82031 319.017 -1.91016 309.466 0 c 2
 137.517 43.9287 l 1
 137.517 0.954102 l 1
 48.7031 0.954102 l 1
 48.7031 584.444 l 2
 48.7031 657.978 89.7686 698.086 137.517 707.636 c 1
340.98 385.811 m 2
 173.806 385.811 l 2
 154.706 385.812 137.517 370.53 137.517 349.521 c 2
 137.517 125.102 l 2
 138.471 104.093 158.525 89.7686 172.85 89.7686 c 0
 173.806 89.7686 l 2
 340.98 89.7686 l 2
 358.17 89.7686 376.314 106.002 376.314 126.058 c 2
 376.314 349.521 l 2
 376.314 367.665 361.035 385.811 340.98 385.811 c 2
EndSplineSet
Fore
SplineSet
160.517 707.636 m 1
 160.517 424.01 l 1
 332.466 476.532 l 2
 342.017 478.441 351.566 479.397 361.115 479.397 c 0
 427.964 479.397 488.127 422.1 488.127 374.351 c 2
 488.127 101.227 l 2
 488.127 53.4785 427.964 -3.82031 361.115 -3.82031 c 0
 351.566 -3.82031 342.017 -1.91016 332.466 0 c 2
 160.517 43.9287 l 1
 160.517 0.954102 l 1
 71.7031 0.954102 l 1
 71.7031 584.444 l 2
 71.7031 657.979 112.769 698.086 160.517 707.636 c 1
363.98 385.811 m 2
 196.806 385.811 l 2
 177.706 385.812 160.517 370.53 160.517 349.521 c 2
 160.517 125.102 l 2
 161.471 104.093 181.525 89.7686 195.85 89.7686 c 0
 196.806 89.7686 l 2
 363.98 89.7686 l 2
 381.17 89.7686 399.314 106.002 399.314 126.058 c 2
 399.314 349.521 l 2
 399.314 367.665 384.035 385.811 363.98 385.811 c 2
EndSplineSet
EndChar

StartChar: h
Encoding: 104 104 1
Width: 496
VWidth: -20
Flags: W
HStem: 0.954102 21G<48.7031 137.517 371.485 460.299> 385.811 93.586<248.443 365.773>
VStem: 48.7031 88.8139<0.954102 382.692 421.144 662.004> 371.485 88.814<0.954102 382.219>
LayerCount: 3
Back
SplineSet
137.517 707.636 m 1
 137.517 421.144 l 5
 306.547 476.532 l 2
 314.188 478.441 322.781 479.397 332.331 479.397 c 0
 390.586 479.397 460.299 430.692 460.299 374.351 c 2
 460.299 0.954102 l 1
 371.485 0.954102 l 1
 371.485 349.521 l 2
 371.485 370.53 353.341 385.811 335.196 385.811 c 2
 173.806 385.811 l 2
 152.796 385.811 137.517 367.665 137.517 349.521 c 2
 137.517 0.954102 l 1
 48.7031 0.954102 l 1
 48.7031 584.444 l 2
 48.7031 657.978 89.7686 698.086 137.517 707.636 c 1
EndSplineSet
Fore
SplineSet
137.517 707.636 m 1
 137.517 421.144 l 5
 306.547 476.532 l 2
 314.188 478.441 322.781 479.397 332.331 479.397 c 0
 390.586 479.397 460.299 430.692 460.299 374.351 c 2
 460.299 0.954102 l 1
 371.485 0.954102 l 1
 371.485 349.521 l 2
 371.485 370.53 353.341 385.811 335.196 385.811 c 2
 173.806 385.811 l 2
 152.796 385.811 137.517 367.665 137.517 349.521 c 2
 137.517 0.954102 l 1
 48.7031 0.954102 l 1
 48.7031 584.444 l 2
 48.7031 657.978 89.7686 698.086 137.517 707.636 c 1
EndSplineSet
Validated: 1
EndChar

StartChar: m
Encoding: 109 109 2
Width: 735
VWidth: -20
Flags: W
HStem: 0.954102 21G<39.1533 127.968 324.691 412.55 610.229 699.042> 385.811 93.586<208.544 321.367 495.274 604.808>
VStem: 39.1533 88.8147<0.954102 382.692 433.559 475.577> 324.691 87.859<0.954102 382.31> 610.229 88.813<0.954102 382.219>
LayerCount: 3
Back
SplineSet
304.638 479.397 m 0
 359.07 479.397 381.035 435.468 396.314 431.648 c 2
 406.818 430.692 l 5
 555.796 476.532 l 1
 568.21 478.441 578.715 479.397 590.174 479.397 c 0
 654.158 479.397 699.042 430.692 699.042 374.351 c 2
 699.042 0.954102 l 1
 610.229 0.954102 l 1
 610.229 349.521 l 2
 610.229 370.53 592.084 385.811 573.94 385.811 c 2
 448.838 385.811 l 2
 428.784 385.811 412.55 367.665 412.55 349.521 c 2
 412.55 0.954102 l 1
 324.691 0.954102 l 1
 324.691 349.521 l 2
 324.691 370.53 306.547 385.811 288.402 385.811 c 2
 163.301 385.811 l 2
 143.246 385.811 127.968 367.665 127.968 349.521 c 2
 127.968 0.954102 l 1
 39.1533 0.954102 l 1
 39.1533 475.577 l 1
 127.968 475.577 l 1
 127.968 433.559 l 5
 271.214 476.532 l 1
 282.672 478.441 294.132 479.397 304.638 479.397 c 0
EndSplineSet
Fore
SplineSet
304.638 479.397 m 0
 359.07 479.397 381.035 435.468 396.314 431.648 c 2
 406.818 430.692 l 5
 555.796 476.532 l 1
 568.21 478.441 578.715 479.397 590.174 479.397 c 0
 654.158 479.397 699.042 430.692 699.042 374.351 c 2
 699.042 0.954102 l 1
 610.229 0.954102 l 1
 610.229 349.521 l 2
 610.229 370.53 592.084 385.811 573.94 385.811 c 2
 448.838 385.811 l 2
 428.784 385.811 412.55 367.665 412.55 349.521 c 2
 412.55 0.954102 l 1
 324.691 0.954102 l 1
 324.691 349.521 l 2
 324.691 370.53 306.547 385.811 288.402 385.811 c 2
 163.301 385.811 l 2
 143.246 385.811 127.968 367.665 127.968 349.521 c 2
 127.968 0.954102 l 1
 39.1533 0.954102 l 1
 39.1533 475.577 l 1
 127.968 475.577 l 1
 127.968 433.559 l 5
 271.214 476.532 l 1
 282.672 478.441 294.132 479.397 304.638 479.397 c 0
EndSplineSet
Validated: 1
EndChar

StartChar: a
Encoding: 97 97 3
Width: 514
VWidth: 0
Flags: W
HStem: -5.72949 92.6318<125.911 250.177> 210.094 43.9287<326.739 381.485> 210.094 76.3984<125.89 296.522> 385.811 89.7666<144.797 375.854>
VStem: 33.874 88.8125<92.3362 207.021> 381.485 88.8135<0.954102 42.0195 86.9023 210.094 254.022 379.719>
LayerCount: 3
Back
SplineSet
148.976 210.094 m 6xbc
 128.922 210.094 112.687 194.815 112.687 172.85 c 6
 112.687 123.192 l 6
 112.687 94.542 142.291 86.9023 148.976 86.9023 c 6
 371.485 86.9023 l 5
 371.485 210.094 l 5xdc
 148.976 210.094 l 6xbc
173.806 475.577 m 6
 285.537 475.577 l 6
 392.494 475.577 460.299 414.46 460.299 299.862 c 6
 460.299 0.954102 l 5
 371.485 0.954102 l 5
 371.485 42.0195 l 5
 161.392 0 l 6
 144.201 -3.82031 128.922 -5.72949 116.507 -5.72949 c 4
 42.0195 -5.72949 23.874 57.2979 23.874 113.643 c 6
 23.874 202.455 l 6
 23.874 253.068 46.7939 286.492 113.643 286.492 c 4xbc
 128.922 286.492 144.201 282.672 162.346 280.764 c 6
 371.485 254.022 l 5
 371.485 349.521 l 6
 371.485 363.845 357.16 385.811 335.196 385.811 c 6
 112.687 385.811 l 5
 115.552 421.144 129.877 475.577 173.806 475.577 c 6
EndSplineSet
Fore
SplineSet
158.976 210.094 m 6xbc
 138.922 210.094 122.687 194.815 122.687 172.85 c 6
 122.687 123.192 l 6
 122.687 94.542 152.291 86.9023 158.976 86.9023 c 6
 381.485 86.9023 l 5
 381.485 210.094 l 5xdc
 158.976 210.094 l 6xbc
183.806 475.577 m 6
 295.537 475.577 l 6
 402.494 475.577 470.299 414.46 470.299 299.862 c 6
 470.299 0.954102 l 5
 381.485 0.954102 l 5
 381.485 42.0195 l 5
 171.392 0 l 6
 154.201 -3.82031 138.922 -5.72949 126.507 -5.72949 c 4
 52.0195 -5.72949 33.874 57.2979 33.874 113.643 c 6
 33.874 202.455 l 6
 33.874 253.068 56.7939 286.492 123.643 286.492 c 4xbc
 138.922 286.492 154.201 282.672 172.346 280.764 c 6
 381.485 254.022 l 5
 381.485 349.521 l 6
 381.485 363.845 367.16 385.811 345.196 385.811 c 6
 122.687 385.811 l 5
 125.552 421.144 139.877 475.577 183.806 475.577 c 6
EndSplineSet
EndChar

StartChar: u
Encoding: 117 117 4
Width: 530
VWidth: -20
Flags: W
HStem: -7.9541 97.7227<150.634 298.134>
VStem: 58.1992 87.8588<93.1819 475.577> 385.811 89.766<0.954102 30.5596 93.0064 125.102 125.102 475.577>
LayerCount: 3
Back
SplineSet
58.1992 475.577 m 1
 146.058 475.577 l 1
 146.058 126.058 l 2
 146.058 105.047 164.201 89.7686 183.301 89.7686 c 2
 349.521 89.7686 l 2
 371.485 89.7686 385.811 108.867 385.811 125.102 c 2
 385.811 475.577 l 1
 475.577 475.577 l 1
 475.577 0.954102 l 1
 385.811 0.954102 l 1
 385.811 30.5596 l 1
 215.771 -2.27051 l 2
 191.896 -6.08984 171.842 -7.9541 153.696 -7.9541 c 4
 87.8027 -7.9541 58.1992 20.6494 58.1992 93.2266 c 2
 58.1992 475.577 l 1
EndSplineSet
Fore
SplineSet
58.1992 475.577 m 1
 146.058 475.577 l 1
 146.058 126.058 l 2
 146.058 105.047 164.201 89.7686 183.301 89.7686 c 2
 349.521 89.7686 l 2
 371.485 89.7686 385.811 108.867 385.811 125.102 c 2
 385.811 475.577 l 1
 475.577 475.577 l 1
 475.577 0.954102 l 1
 385.811 0.954102 l 1
 385.811 30.5596 l 1
 215.771 -2.27051 l 2
 191.896 -6.08984 171.842 -7.9541 153.696 -7.9541 c 0
 87.8027 -7.9541 58.1992 20.6494 58.1992 93.2266 c 2
 58.1992 475.577 l 1
EndSplineSet
EndChar

StartChar: r
Encoding: 114 114 6
Width: 384
VWidth: -20
Flags: W
HStem: 0.954102 21G<49.1533 137.968> 385.811 91.6768<203.98 367.479>
VStem: 49.1533 88.8145<0.954102 382.692 443.108 475.577>
LayerCount: 3
Back
SplineSet
358 385.811 m 1
 164.256 385.811 l 2
 143.246 385.811 127.968 367.665 127.968 349.521 c 2
 127.968 0.954102 l 1
 39.1533 0.954102 l 1
 39.1533 475.577 l 1
 127.968 475.577 l 1
 127.968 443.108 l 1
 278.854 471.758 l 2
 291.268 473.667 303.682 477.487 316.096 477.487 c 0
 333.259 477.487 346.925 474.202 358 468.419 c 1
 358 385.811 l 1
EndSplineSet
Fore
SplineSet
368 385.811 m 1
 174.256 385.811 l 2
 153.246 385.811 137.968 367.665 137.968 349.521 c 2
 137.968 0.954102 l 1
 49.1533 0.954102 l 1
 49.1533 475.577 l 1
 137.968 475.577 l 1
 137.968 443.108 l 1
 288.854 471.758 l 2
 301.268 473.667 313.682 477.487 326.096 477.487 c 0
 343.259 477.487 356.925 474.202 368 468.419 c 1
 368 385.811 l 1
EndSplineSet
EndChar

StartChar: g
Encoding: 103 103 7
Width: 503
VWidth: 0
Flags: WO
HStem: -200 89.1729<86.5938 391.7> -31.2344 86.8115<149.562 392.164> 132.36 88.813<165.404 339.417> 386.766 88.811<141.514 341.185>
VStem: 47.4238 88.8132<225.906 381.374> 344.692 88.815<226.563 383.142> 394.692 88.8145<-107.459 -34.55>
LayerCount: 3
Back
SplineSet
482.781 470.393 m 6xf4
 400 446.234 l 4
 396.307 445.153 393.662 442.99 393.04 440.086 c 4
 392.508 437.605 393.546 435.01 395.685 432.75 c 4
 419.206 407.888 433.507 374.031 433.507 336.151 c 6
 433.507 271.786 l 6xf6
 433.507 193.479 371.434 132.36 295.035 132.36 c 6
 185.896 132.36 l 6
 178.824 132.36 171.875 132.884 165.086 133.897 c 5
 129 120 149 55.5771 180.863 55.5771 c 5
 345.035 55.5771 l 6
 438 55.5771 483.507 10 483.507 -83.8486 c 6
 483.507 -94.2139 l 6
 483.507 -172.521 421.434 -233.64 345.035 -233.64 c 6
 145.896 -233.64 l 6
 54 -233.64 7.42383 -188 7.42383 -94.2139 c 6
 7.42383 -83.8486 l 6xf9
 7.42383 -30.2939 36.4561 15.2197 79.2471 38.6426 c 5
 65.8398 75.9131 86 138 114 152 c 5
 66 180 47.4238 227.516 47.4238 271.786 c 6
 47.4238 336.151 l 6
 47.4238 414.46 109.497 475.577 185.896 475.577 c 6
 295.035 475.577 l 6
 318.652 475.577 340.757 469.88 360.069 459.735 c 5
 442.672 536.285 l 6
 486.261 576.68 538.196 486.565 482.781 470.393 c 6xf4
307.449 386.766 m 6
 172.525 386.766 l 6
 152.471 386.766 136.237 371.485 136.237 351.431 c 6
 136.237 256.507 l 6
 136.237 237.407 152.471 221.173 172.525 221.173 c 6
 307.449 221.173 l 6
 328.46 221.173 344.692 236.451 344.692 256.507 c 6
 344.692 351.431 l 6
 344.692 371.485 328.46 386.766 307.449 386.766 c 6
357.449 -31.2344 m 6
 132.525 -31.2344 l 6
 112.471 -31.2344 96.2373 -45.5146 96.2373 -65.5693 c 6
 96.2373 -109.493 l 6
 96.2373 -128.593 112.471 -144.827 132.525 -144.827 c 6
 357.449 -144.827 l 6
 378.46 -144.827 394.691 -129.549 394.692 -109.493 c 6xf1
 394.692 -65.5693 l 6
 394.692 -45.5146 378.46 -31.2344 357.449 -31.2344 c 6
EndSplineSet
Fore
SplineSet
307.449 386.766 m 6xfc
 172.525 386.766 l 6
 152.471 386.766 136.237 371.485 136.237 351.431 c 6
 136.237 256.507 l 6
 136.237 237.407 152.471 221.173 172.525 221.173 c 6
 307.449 221.173 l 6
 328.46 221.173 344.692 236.451 344.692 256.507 c 6
 344.692 351.431 l 6
 344.692 371.485 328.46 386.766 307.449 386.766 c 6xfc
12 -110.827 m 13
 357.449 -110.827 l 6
 378.46 -110.827 394.691 -95.5488 394.692 -75.4932 c 6xfa
 394.692 -65.5693 l 6
 394.691 -45.5146 378.461 -31.2344 357.449 -31.2344 c 6
 181 -31.2344 l 5
 59 -31.2344 47 107 114 152 c 5
 66 180 47.4238 227.516 47.4238 271.786 c 6
 47.4238 336.151 l 6
 47.4238 414.46 109.497 475.577 185.896 475.577 c 6
 295.035 475.577 l 6
 318.652 475.577 340.757 469.88 360.069 459.735 c 5
 442.672 536.285 l 6
 486.261 576.68 538.196 486.565 482.781 470.393 c 6
 400 446.234 l 4
 396.307 445.153 393.662 442.99 393.04 440.086 c 4
 392.508 437.605 393.546 435.01 395.685 432.75 c 4
 419.206 407.888 433.507 374.031 433.507 336.151 c 6
 433.507 271.786 l 6xfc
 433.507 193.479 371.434 132.36 295.035 132.36 c 6
 185.896 132.36 l 6
 178.824 132.36 171.875 132.884 165.086 133.897 c 5
 129 120 134 55.5771 180.863 55.5771 c 5
 345.035 55.5771 l 6
 438 55.5771 483.507 -1.33301 483.507 -62.8486 c 6
 483.507 -73.2139 l 6xfa
 483.507 -151 427.333 -199.505 345.035 -199.64 c 6
 125 -200 l 21
 57 -200 12 -141 12 -110.827 c 13
EndSplineSet
Layer: 2
SplineSet
126.058 353.061 m 6xbc
 126.058 130.551 l 6
 126.058 109.541 143.246 94.2627 162.346 94.2627 c 6
 383.9 94.2627 l 5
 383.9 388.395 l 5
 162.346 388.395 l 6
 133.696 388.395 126.058 359.745 126.058 353.061 c 6xbc
125.102 -136.842 m 5
 199.591 -136.842 275.033 -136.842 348.566 -136.842 c 4
 368.62 -134.932 383.9 -118.698 383.9 -100.553 c 6
 383.9 33.1426 l 5xbc
 176.67 5.44824 l 6
 158.525 3.53906 142.291 0.673828 127.968 0.673828 c 4xdc
 61.1182 0.673828 37.2441 34.0977 37.2441 84.7119 c 6
 37.2441 358.79 l 6
 37.2441 415.133 56.3447 480.071 129.877 480.071 c 4
 143.246 480.071 157.571 476.252 173.806 472.433 c 6
 383.9 433.278 l 5
 383.9 480.071 l 5
 473.667 480.071 l 5
 473.667 -101.508 l 6
 473.667 -177.906 427.829 -224.7 353.341 -224.7 c 6
 187.175 -224.7 l 6
 143.246 -224.7 128.922 -172.176 125.102 -136.842 c 5
EndSplineSet
EndChar

StartChar: o
Encoding: 111 111 8
Width: 503
VWidth: -20
Flags: W
HStem: -7.63965 88.8125<151.514 379.417> 386.766 88.811<151.514 379.787>
VStem: 57.4238 88.8132<86.5632 381.374> 384.692 88.815<86.5632 381.374>
LayerCount: 3
Back
SplineSet
195.896 475.577 m 6
 335.035 475.577 l 6
 412.389 475.577 473.507 414.46 473.507 336.151 c 6
 473.507 131.786 l 6
 473.507 53.4785 411.434 -7.63965 335.035 -7.63965 c 6
 195.896 -7.63965 l 6
 119.497 -7.63965 57.4238 53.4785 57.4238 131.786 c 6
 57.4238 336.151 l 6
 57.4238 414.46 119.497 475.577 195.896 475.577 c 6
347.449 386.766 m 6
 182.525 386.766 l 6
 162.471 386.766 146.237 371.485 146.237 351.431 c 6
 146.237 116.507 l 6
 146.237 97.4072 162.471 81.1729 182.525 81.1729 c 6
 347.449 81.1729 l 6
 368.46 81.1729 384.692 96.4512 384.692 116.507 c 6
 384.692 351.431 l 6
 384.692 371.485 368.46 386.766 347.449 386.766 c 6
EndSplineSet
Fore
SplineSet
195.896 475.577 m 6
 335.035 475.577 l 6
 412.389 475.577 473.507 414.46 473.507 336.151 c 6
 473.507 131.786 l 6
 473.507 53.4785 411.434 -7.63965 335.035 -7.63965 c 6
 195.896 -7.63965 l 6
 119.497 -7.63965 57.4238 53.4785 57.4238 131.786 c 6
 57.4238 336.151 l 6
 57.4238 414.46 119.497 475.577 195.896 475.577 c 6
347.449 386.766 m 6
 182.525 386.766 l 6
 162.471 386.766 146.237 371.485 146.237 351.431 c 6
 146.237 116.507 l 6
 146.237 97.4072 162.471 81.1729 182.525 81.1729 c 6
 347.449 81.1729 l 6
 368.46 81.1729 384.692 96.4512 384.692 116.507 c 6
 384.692 351.431 l 6
 384.692 371.485 368.46 386.766 347.449 386.766 c 6
EndSplineSet
Validated: 1
EndChar

StartChar: s
Encoding: 115 115 10
Width: 464
VWidth: -20
Flags: W
HStem: 0 78.3086<61.7971 333.177> 199.273 79.805<130.48 333.81> 392.359 78.308<127.856 387.761>
VStem: 36.2891 87.8579<283.638 389.228> 337.811 87.856<82.8255 114.597 114.597 194.317>
LayerCount: 3
Back
SplineSet
160.436 392.359 m 18
 135 392.359 124.146 373 124.147 355.115 c 10
 124.147 315.367 l 2
 124.146 307.728 131.786 279.078 160.436 279.078 c 2
 313.936 279.078 l 2
 376.01 279.078 425.667 233.969 425.667 175.716 c 2
 425.667 112.687 l 2
 425.667 36.2891 383.648 0 300.566 0 c 2
 106.957 0 l 2
 74.4883 0 49.6592 19.0986 45.8389 78.3086 c 1
 300.566 78.3086 l 2
 309.16 78.3086 337.812 85.9482 337.811 114.597 c 2
 337.811 165.85 l 6
 337.811 185.905 319.665 199.273 300.566 199.273 c 6
 148.021 199.273 l 6
 84.0381 199.273 36.2891 252.113 36.2891 310.367 c 2
 36.2891 382.811 l 2
 37.2441 428.648 72.5781 470.667 148.021 470.667 c 2
 335.539 470.667 l 2
 377.559 469.712 402.299 446.793 408.982 392.359 c 1
 160.436 392.359 l 18
EndSplineSet
Fore
SplineSet
160.436 392.359 m 18
 135 392.359 124.146 373 124.147 355.115 c 10
 124.147 315.367 l 2
 124.146 307.728 131.786 279.078 160.436 279.078 c 2
 313.936 279.078 l 2
 376.01 279.078 425.667 233.969 425.667 175.716 c 2
 425.667 112.687 l 2
 425.667 36.2891 383.648 0 300.566 0 c 2
 106.957 0 l 2
 74.4883 0 49.6592 19.0986 45.8389 78.3086 c 1
 300.566 78.3086 l 2
 309.16 78.3086 337.812 85.9482 337.811 114.597 c 2
 337.811 165.85 l 6
 337.811 185.905 319.665 199.273 300.566 199.273 c 6
 148.021 199.273 l 6
 84.0381 199.273 36.2891 252.113 36.2891 310.367 c 2
 36.2891 382.811 l 2
 37.2441 428.648 72.5781 470.667 148.021 470.667 c 2
 335.539 470.667 l 2
 377.559 469.712 402.299 446.793 408.982 392.359 c 1
 160.436 392.359 l 18
EndSplineSet
Validated: 33
EndChar

StartChar: e
Encoding: 101 101 11
Width: 480
VWidth: -20
Flags: W
HStem: 0 87.8584<140.918 337.214> 193.419 72.345<130.237 353.864> 390.044 81.173<138.395 345.284>
VStem: 40.4697 89.7673<96.7734 193.419 265.764 379.871> 353.864 89.769<265.764 379.871>
LayerCount: 3
Back
SplineSet
177.985 87.8584 m 2
 408 87.8584 l 5
 408 46 316.488 0 242 0 c 2
 177.985 0 l 2
 93.9482 0 40.4697 72.5781 40.4697 148.976 c 2
 40.4697 331.791 l 2
 40.4697 409.144 102.542 471.217 179.896 471.217 c 2
 303.25 471.217 l 2
 381.559 471.217 443.633 409.144 443.633 331.791 c 2
 443.633 193.419 l 1
 130.237 193.419 l 1
 130.237 138.471 l 2
 130.237 110.532 151.629 87.8584 177.985 87.8584 c 2
130.237 341.341 m 1
 130.237 265.764 l 1
 353.864 265.764 l 1
 353.864 341.341 l 2
 353.864 368.225 332.473 390.044 306.115 390.044 c 2
 177.985 390.044 l 2
 151.629 390.044 130.237 368.225 130.237 341.341 c 1
EndSplineSet
Fore
SplineSet
177.985 87.8584 m 2
 408 87.8584 l 5
 408 46 316.488 0 242 0 c 2
 177.985 0 l 2
 93.9482 0 40.4697 72.5781 40.4697 148.976 c 2
 40.4697 331.791 l 2
 40.4697 409.144 102.542 471.217 179.896 471.217 c 2
 303.25 471.217 l 2
 381.559 471.217 443.633 409.144 443.633 331.791 c 2
 443.633 193.419 l 1
 130.237 193.419 l 1
 130.237 138.471 l 2
 130.237 110.532 151.629 87.8584 177.985 87.8584 c 2
130.237 341.341 m 1
 130.237 265.764 l 1
 353.864 265.764 l 1
 353.864 341.341 l 2
 353.864 368.225 332.473 390.044 306.115 390.044 c 2
 177.985 390.044 l 2
 151.629 390.044 130.237 368.225 130.237 341.341 c 1
EndSplineSet
Validated: 1
EndChar

StartChar: f
Encoding: 102 102 12
Width: 310
VWidth: -20
Flags: W
HStem: 0.954102 21G<48.7031 137.517> 394.64 80.937<137.517 281.841> 612.373 85.713<145.074 341.155>
VStem: 48.7031 88.8139<0.954102 394.64 475.577 605.489>
LayerCount: 3
Back
SplineSet
180.49 698.086 m 2
 348.566 698.086 l 1
 348.566 678.032 l 2
 348.566 640.788 334.241 623.373 291.268 623.373 c 6
 180.49 623.373 l 6
 153.751 623.373 137.517 606.185 137.517 579.444 c 6
 137.517 475.577 l 1
 254.022 475.577 l 2
 272.168 475.577 286.492 455.299 286.492 438.108 c 0
 286.492 419.964 272.168 400.64 254.022 400.64 c 2
 137.517 400.64 l 1
 137.517 0.954102 l 1
 48.7031 0.954102 l 1
 48.7031 586.354 l 2
 48.7031 587.31 l 0
 48.7031 654.158 100.272 698.086 180.49 698.086 c 2
EndSplineSet
Fore
SplineSet
180.49 698.086 m 2
 348.566 698.086 l 1
 348.566 670.032 l 2
 348.566 632.788 334.241 612.373 291.268 612.373 c 2
 180.49 612.373 l 2
 153.751 612.373 137.517 595.185 137.517 568.444 c 2
 137.517 475.577 l 1
 254.022 475.577 l 2
 272.168 475.577 286.492 452.299 286.492 435.108 c 0
 286.492 416.964 272.168 394.64 254.022 394.64 c 2
 137.517 394.64 l 1
 137.517 0.954102 l 1
 48.7031 0.954102 l 1
 48.7031 586.354 l 2
 48.7031 587.31 l 0
 48.7031 654.158 100.272 698.086 180.49 698.086 c 2
EndSplineSet
EndChar

StartChar: t
Encoding: 116 116 13
Width: 395
VWidth: -20
Flags: W
HStem: 0.448008 81.5237<212.717 239 239.078 243 243.008 346.348> 391.811 83.766<15.2704 121.786 210.599 328.927>
VStem: 121.786 88.813<84.23 391.811 475.577 691.636>
LayerCount: 3
Back
SplineSet
166.67 698.086 m 4
 190.545 698.086 210.599 678.032 210.599 654.158 c 6
 210.599 475.577 l 5
 314.691 475.577 l 6
 339.521 475.577 360.53 454.567 360.53 429.738 c 6
 360.53 385.811 l 5
 210.599 385.811 l 5
 210.599 0.954102 l 5
 121.786 0.954102 l 5
 121.786 385.811 l 5
 54.9375 385.811 l 6
 29.1533 385.811 10.0537 405.864 10.0537 429.738 c 4
 10.0537 454.567 29.1533 475.577 54.9375 475.577 c 6
 121.786 475.577 l 5
 121.786 654.158 l 6
 121.786 678.032 141.842 698.086 166.67 698.086 c 4
EndSplineSet
Fore
SplineSet
166.67 698.086 m 0
 190.545 698.086 210.599 678.032 210.599 654.158 c 2
 210.599 475.577 l 1
 287.691 475.577 l 6
 312.521 475.577 333.53 460.567 333.53 435.738 c 6
 333.53 391.811 l 5
 210.599 391.811 l 1
 210.599 116 l 1
 210.599 92 221 81.9717 243 81.9717 c 1
 242 82 316.314 81.8789 317.046 81.5986 c 1
 335 81.5986 347.046 71 347.046 53 c 1
 347.046 -0.213867 l 1
 347.022 -0.105469 239 0 239 0.448008 c 1
 165 0 121.786 40 121.786 118 c 1
 121.786 391.811 l 1
 54.9375 391.811 l 2
 29.1533 391.811 10.0537 408.864 10.0537 432.738 c 0
 10.0537 457.567 29.1533 475.577 54.9375 475.577 c 2
 121.786 475.577 l 1
 121.786 654.158 l 2
 121.786 678.032 141.842 698.086 166.67 698.086 c 0
EndSplineSet
EndChar

StartChar: i
Encoding: 105 105 14
Width: 200
VWidth: -20
Flags: W
HStem: 0.954102 21G<50.6592 139.471> 597.814 89.7676<57.5078 133.321>
VStem: 50.6592 89.7666<0.954102 468.235 604.133 680.477>
LayerCount: 3
Back
SplineSet
94.542 475.577 m 4
 119.372 475.577 138.471 454.567 138.471 429.738 c 6
 138.471 0.954102 l 5
 49.6592 0.954102 l 5
 49.6592 429.738 l 6
 49.6592 454.567 70.668 475.577 94.542 475.577 c 4
139.426 641.743 m 0
 139.426 615.959 119.372 597.814 93.5869 597.814 c 0
 66.8477 597.814 49.6592 619.778 49.6592 641.743 c 0
 49.6592 668.482 70.668 687.582 93.5869 687.582 c 0
 118.417 687.582 139.426 667.527 139.426 641.743 c 0
EndSplineSet
Fore
SplineSet
95.542 475.577 m 4
 120.372 475.577 139.471 454.567 139.471 429.738 c 6
 139.471 0.954102 l 5
 50.6592 0.954102 l 5
 50.6592 429.738 l 6
 50.6592 454.567 71.668 475.577 95.542 475.577 c 4
140.426 641.743 m 4
 140.426 615.959 120.372 597.814 94.5869 597.814 c 4
 67.8477 597.814 50.6592 619.778 50.6592 641.743 c 4
 50.6592 668.482 71.668 687.582 94.5869 687.582 c 4
 119.417 687.582 140.426 667.527 140.426 641.743 c 4
EndSplineSet
EndChar

StartChar: v
Encoding: 118 118 15
Width: 485
VWidth: -20
Flags: W
HStem: 0.954102 21G<201.063 277.425>
LayerCount: 3
Back
SplineSet
458.389 419.685 m 6
 268.348 0.954102 l 5
 210.094 0.954102 l 5
 21.0088 419.685 l 6
 -4.88867 477.034 78.0635 508.488 101.227 456.928 c 6
 218 197 l 6
 224.729 182.023 235.374 127 235.374 113.301 c 5
 243.068 113.301 l 5
 244.022 125.716 256.066 180.16 263 196 c 6
 377.215 456.928 l 6
 401 512 482.703 473.259 458.389 419.685 c 6
EndSplineSet
Fore
SplineSet
458.389 419.685 m 6
 268.348 0.954102 l 5
 210.094 0.954102 l 5
 21.0088 419.685 l 6
 -4.88867 477.034 78.0635 508.488 101.227 456.928 c 6
 218 197 l 6
 224.729 182.023 235.374 127 235.374 113.301 c 5
 243.068 113.301 l 5
 244.022 125.716 256.066 180.16 263 196 c 6
 377.215 456.928 l 6
 401 512 482.703 473.259 458.389 419.685 c 6
EndSplineSet
Validated: 33
EndChar

StartChar: q
Encoding: 113 113 17
Width: 512
VWidth: -25
Flags: W
HStem: -6.9541 95.5869<131.653 317.043> 382.766 91.675<131.685 287.597>
VStem: 39.1533 88.8107<93.6817 124.922 347.431 377.236> 386.763 88.814<-200.329 13 13 25.0665 429.51 467 467 474>
LayerCount: 3
Back
SplineSet
386.763 13 m 2
 386.763 -187.888 l 2
 386.763 -195.888 392.5 -200.329 399 -200.329 c 2
 475.577 -200.329 l 1
 475.577 467 l 2
 475.577 471.062 472.918 474 469.73 474 c 2
 386.73 474 l 9
 386.73 436 l 22
 386.73 432.25 384.464 428.234 379.23 429.569 c 6
 220.73 470 l 2
 204.497 473.82 177.2 474.441 164.786 474.441 c 0
 90.2959 474.441 39.1533 409.505 39.1533 353.16 c 2
 39.1533 118 l 2
 39.1533 52 92.0723 -6.9541 158.919 -6.9541 c 0
 172 -6.9541 199.918 -5.93555 210.73 -4 c 2xb8
 372.73 25.002 l 2
 380.978 26.4785 386.763 21.5 386.763 13 c 2
165.209 88.6328 m 2
 144.2 88.6328 127.964 103.912 127.964 124.922 c 2
 127.964 347.431 l 2
 127.964 376.08 156.615 382.766 163.299 382.766 c 2
 386.763 382.766 l 1
 386.763 88.6328 l 1
 165.209 88.6328 l 2
EndSplineSet
Fore
SplineSet
386.763 13 m 2
 386.763 -187.888 l 2
 386.763 -195.888 392.5 -200.329 399 -200.329 c 2
 475.577 -200.329 l 1
 475.577 467 l 2
 475.577 471.062 472.918 474 469.73 474 c 2
 386.73 474 l 9
 386.73 436 l 22
 386.73 432.25 384.464 428.234 379.23 429.569 c 6
 220.73 470 l 2
 204.497 473.82 177.2 474.441 164.786 474.441 c 0
 90.2959 474.441 39.1533 409.505 39.1533 353.16 c 2
 39.1533 118 l 2
 39.1533 52 92.0723 -6.9541 158.919 -6.9541 c 0
 172 -6.9541 199.918 -5.93555 210.73 -4 c 2
 372.73 25.002 l 2
 380.978 26.4785 386.763 21.5 386.763 13 c 2
165.209 88.6328 m 2
 144.2 88.6328 127.964 103.912 127.964 124.922 c 2
 127.964 347.431 l 2
 127.964 376.08 156.615 382.766 163.299 382.766 c 2
 386.763 382.766 l 1
 386.763 88.6328 l 1
 165.209 88.6328 l 2
EndSplineSet
Validated: 41
EndChar

StartChar: p
Encoding: 112 112 18
Width: 498
VWidth: -25
Flags: W
HStem: -6.9541 95.5869<195.812 368.077> 382.766 91.675<220.57 368.045>
VStem: 44.1533 88.8147<-230.326 25.0694 88.6328 382.766 429.519 474> 371.766 88.811<93.6817 124.922 124.922 377.236>
LayerCount: 3
Back
SplineSet
132.968 13 m 2
 132.968 -217.888 l 2
 132.968 -225.888 127.23 -230.329 120.73 -230.329 c 2
 44.1533 -230.329 l 1
 44.1533 467 l 2
 44.1533 471.062 46.8125 474 50 474 c 2
 133 474 l 9
 133 436 l 22
 133 430.375 136.699 428.459 140.5 429.569 c 6
 279 470 l 2
 295.233 473.82 322.53 474.441 334.944 474.441 c 0
 409.434 474.441 460.577 409.505 460.577 353.16 c 2
 460.577 118 l 2
 460.577 52 407.658 -6.9541 340.811 -6.9541 c 0
 327.73 -6.9541 299.812 -5.93555 289 -4 c 2xb8
 147 25.002 l 2
 139.482 26.5374 132.968 21.75 132.968 13 c 2
334.521 88.6328 m 2
 355.53 88.6328 371.766 103.912 371.766 124.922 c 2
 371.766 347.431 l 2
 371.766 376.08 343.115 382.766 336.431 382.766 c 2
 132.968 382.766 l 1
 132.968 88.6328 l 1
 334.521 88.6328 l 2
EndSplineSet
Fore
SplineSet
132.968 13 m 2
 132.968 -217.888 l 2
 132.968 -225.888 127.23 -230.329 120.73 -230.329 c 2
 44.1533 -230.329 l 1
 44.1533 467 l 2
 44.1533 471.062 46.8125 474 50 474 c 2
 133 474 l 9
 133 436 l 22
 133 430.375 136.699 428.459 140.5 429.569 c 6
 279 470 l 2
 295.233 473.82 322.53 474.441 334.944 474.441 c 0
 409.434 474.441 460.577 409.505 460.577 353.16 c 2
 460.577 118 l 2
 460.577 52 407.658 -6.9541 340.811 -6.9541 c 0
 327.73 -6.9541 299.812 -5.93555 289 -4 c 2
 147 25.002 l 2
 139.482 26.5374 132.968 21.75 132.968 13 c 2
334.521 88.6328 m 2
 355.53 88.6328 371.766 103.912 371.766 124.922 c 2
 371.766 347.431 l 2
 371.766 376.08 343.115 382.766 336.431 382.766 c 2
 132.968 382.766 l 1
 132.968 88.6328 l 1
 334.521 88.6328 l 2
EndSplineSet
Validated: 33
EndChar

StartChar: l
Encoding: 108 108 19
Width: 206
VWidth: -20
Flags: W
HStem: 0.954102 76.7402<138.471 175.649>
VStem: 49.6592 88.8118<77.6943 691.636> 49.6592 126.057<22.0989 77.6373>
LayerCount: 3
Back
SplineSet
94.542 698.086 m 0xa0
 119.372 698.086 138.471 678.032 138.471 654.158 c 2
 138.471 77.6943 l 1
 152.346 77.6943 l 2
 165.5 77.6943 175.716 69 175.716 54.3252 c 6
 175.716 0.954102 l 1
 49.6592 0.954102 l 1xc0
 49.6592 654.158 l 2
 49.6592 678.032 68.7578 698.086 94.542 698.086 c 0xa0
EndSplineSet
Fore
SplineSet
49.6592 77.5 m 4xa0
 49.6592 654.158 l 6xc0
 49.6592 678.032 68.7578 698.086 94.542 698.086 c 4
 119.372 698.086 138.471 678.032 138.471 654.158 c 6
 138.471 77.6943 l 5
 152.346 77.6943 l 6
 165.5 77.6943 175.716 69 175.716 54.3252 c 6
 175.716 0.954102 l 5
 117.5 0.954102 l 4
 80.0518 0.954102 49.6592 35.2471 49.6592 77.5 c 4xa0
EndSplineSet
EndChar

StartChar: k
Encoding: 107 107 20
Width: 536
VWidth: -20
Flags: W
HStem: 0.954102 21G<48.7031 137.517>
VStem: 48.7031 88.8139<0.954102 238.744 339.971 662.004>
LayerCount: 3
Back
SplineSet
137.517 707.636 m 1
 137.517 339.971 l 1
 414.46 500.407 l 2
 419.234 502.316 427.829 506.137 435.468 506.137 c 0
 450.748 506.137 466.028 497.542 473.667 483.217 c 0
 477.487 477.487 479.397 469.848 479.397 460.299 c 0
 479.397 445.018 472.712 430.692 458.389 422.1 c 2
 273.123 316.096 l 1
 509.957 32.4697 l 1
 475.577 4.77539 l 2
 466.982 -1.91016 457.434 -5.72949 447.884 -5.72949 c 0
 434.514 -5.72949 421.144 0 412.55 10.5049 c 2
 196.725 273.123 l 1
 137.517 238.744 l 1
 137.517 0.954102 l 1
 48.7031 0.954102 l 1
 48.7031 584.444 l 2
 48.7031 657.978 89.7686 698.086 137.517 707.636 c 1
EndSplineSet
Fore
SplineSet
137.517 707.636 m 1
 137.517 339.971 l 1
 414.46 500.407 l 2
 419.234 502.316 427.829 506.137 435.468 506.137 c 0
 450.748 506.137 466.028 497.542 473.667 483.217 c 0
 477.487 477.487 479.397 469.848 479.397 460.299 c 0
 479.397 445.018 472.712 430.692 458.389 422.1 c 2
 273.123 316.096 l 1
 509.957 32.4697 l 1
 475.577 4.77539 l 2
 466.982 -1.91016 457.434 -5.72949 447.884 -5.72949 c 0
 434.514 -5.72949 421.144 0 412.55 10.5049 c 2
 196.725 273.123 l 1
 137.517 238.744 l 1
 137.517 0.954102 l 1
 48.7031 0.954102 l 1
 48.7031 584.444 l 2
 48.7031 657.978 89.7686 698.086 137.517 707.636 c 1
EndSplineSet
Validated: 1
EndChar

StartChar: j
Encoding: 106 106 21
Width: 223
VWidth: -20
Flags: W
HStem: 597.814 89.7679<79.6789 156.513>
VStem: 72.5781 90.7229<-113.641 468.235 604.357 680.477>
LayerCount: 3
Back
SplineSet
163.301 641.743 m 0
 163.301 615.959 142.291 597.814 116.507 597.814 c 0
 90.7227 597.814 72.5781 619.778 72.5781 641.743 c 0
 72.5781 668.482 94.542 687.582 116.507 687.582 c 0
 142.291 687.582 163.301 667.527 163.301 641.743 c 0
116.507 475.577 m 0
 142.291 475.577 162.346 454.567 162.346 429.738 c 2
 162.346 -59.208 l 2
 162.346 -91.6777 148.976 -106.002 142.291 -113.643 c 2
 24.8281 -220.599 l 1
 23.874 -221.555 l 2
 10.5049 -237.789 -0.954102 -238.744 -7.63965 -238.744 c 0
 -9.5498 -238.744 -13.3701 -238.744 -13.3701 -238.744 c 2
 -21.0088 -236.834 -30.5596 -231.104 -30.5596 -221.555 c 0
 -30.5596 -219.645 -30.5596 -215.823 -27.6943 -211.049 c 1
 49.6592 -129.877 l 1
 51.5693 -127.968 l 2
 65.8936 -106.957 72.5781 -95.4971 72.5781 -65.8936 c 0
 72.5781 -63.0273 72.5781 -61.1182 72.5781 -59.208 c 2
 72.5781 -49.6592 l 1
 72.5781 429.738 l 2
 72.5781 454.567 93.5869 475.577 116.507 475.577 c 0
EndSplineSet
Fore
SplineSet
163.301 641.743 m 0
 163.301 615.959 142.291 597.814 116.507 597.814 c 0
 90.7227 597.814 72.5781 619.778 72.5781 641.743 c 0
 72.5781 668.482 94.542 687.582 116.507 687.582 c 0
 142.291 687.582 163.301 667.527 163.301 641.743 c 0
116.507 475.577 m 0
 142.291 475.577 162.346 454.567 162.346 429.738 c 2
 162.346 -59.208 l 2
 162.346 -91.6777 148.976 -106.002 142.291 -113.643 c 2
 24.8281 -220.599 l 1
 23.874 -221.555 l 2
 10.5049 -237.789 -0.954102 -238.744 -7.63965 -238.744 c 0
 -9.5498 -238.744 -13.3701 -238.744 -13.3701 -238.744 c 2
 -21.0088 -236.834 -30.5596 -231.104 -30.5596 -221.555 c 0
 -30.5596 -219.645 -30.5596 -215.823 -27.6943 -211.049 c 1
 49.6592 -129.877 l 1
 51.5693 -127.968 l 2
 65.8936 -106.957 72.5781 -95.4971 72.5781 -65.8936 c 0
 72.5781 -63.0273 72.5781 -61.1182 72.5781 -59.208 c 2
 72.5781 -49.6592 l 1
 72.5781 429.738 l 2
 72.5781 454.567 93.5869 475.577 116.507 475.577 c 0
EndSplineSet
Validated: 1
EndChar

StartChar: comma
Encoding: 44 44 22
Width: 298
VWidth: 0
Flags: W
HStem: -154.426 263.068
VStem: 75.2725 112.183<7.81858 96.5765> 128.056 59.3994<-64.3689 -18.2197 -18.2197 -5.20996>
LayerCount: 3
Fore
SplineSet
73.3164 -147.525 m 2xa0
 71.5576 -145.022 l 1
 72.9844 -142.317 l 2
 88.2646 -113.351 103.601 -84.4346 118.814 -55.4336 c 0
 125.078 -43.4941 128.056 -31.3916 128.056 -22.3438 c 0xa0
 128.056 -20.8799 127.979 -19.502 127.83 -18.2197 c 2
 126.299 -5.20996 l 1
 114.07 -1.3877 l 2
 92.0605 5.94727 75.2725 26.8701 75.2725 52.0732 c 0
 75.2725 83.5703 101.377 108.643 131.842 108.643 c 0
 163.267 108.643 187.455 83.3135 187.455 52.0732 c 2xc0
 187.455 -0.450195 l 2
 187.455 -21.4863 181.604 -41.2432 174.189 -52.8965 c 2
 109.183 -144.676 l 2
 104.499 -151.289 96.7598 -154.634 88.8682 -154.426 c 0
 83.6943 -154.29 80.0361 -153.606 76.1602 -150.528 c 0
 74.7363 -149.397 73.8125 -148.23 73.3164 -147.525 c 2xa0
EndSplineSet
Validated: 33
EndChar

StartChar: y
Encoding: 121 121 23
Width: 487
VWidth: -20
Flags: W
LayerCount: 3
Back
SplineSet
103.137 -233.015 m 6
 62.0732 -211.049 l 1
 201.5 78.3086 l 1
 186.5 86 172.552 97.5025 167.121 108.867 c 2
 22.9189 410.64 l 2
 -3.13934 465.172 79.0674 499.317 103.137 448.838 c 2
 240.654 160.436 l 1
 380.08 448.838 l 2
 406.029 502.514 483.828 461.893 459.343 410.64 c 2
 162.346 -211.049 l 6
 151.848 -233.024 125.674 -242.565 103.137 -233.015 c 6
EndSplineSet
Fore
SplineSet
103.137 -233.015 m 6
 62.0732 -211.049 l 1
 201.5 78.3086 l 1
 186.5 86 172.552 97.5025 167.121 108.867 c 2
 22.9189 410.64 l 2
 -3.13934 465.172 79.0674 499.317 103.137 448.838 c 2
 240.654 160.436 l 1
 380.08 448.838 l 2
 406.029 502.514 483.828 461.893 459.343 410.64 c 2
 162.346 -211.049 l 6
 151.848 -233.024 125.674 -242.565 103.137 -233.015 c 6
EndSplineSet
Validated: 33
EndChar

StartChar: c
Encoding: 99 99 24
Width: 475
VWidth: -20
Flags: W
HStem: 0.954102 86.9043<129.658 357.037> 383.449 88.814<126.081 410.009>
VStem: 34.3789 88.8131<92.888 138.471 138.471 379.651>
LayerCount: 3
Back
SplineSet
177.625 472.263 m 2
 358.115 472.263 l 2
 414.46 472.263 433.559 417.829 440.243 383.449 c 1
 160.436 383.449 l 2
 139.426 383.449 123.192 368.17 123.192 348.115 c 2
 123.192 124.147 l 2
 123.192 104.093 139.426 87.8584 160.436 87.8584 c 2
 440.243 87.8584 l 1
 440.243 56 349.987 -1.2334 228 0 c 6
 177.625 0.954102 l 2
 84.0518 2.72656 34.3789 58.2529 34.3789 138.471 c 2
 34.3789 333.791 l 2
 34.3789 414.01 84.0381 472.263 177.625 472.263 c 2
EndSplineSet
Fore
SplineSet
177.625 472.263 m 2
 358.115 472.263 l 2
 414.46 472.263 433.559 417.829 440.243 383.449 c 1
 160.436 383.449 l 2
 139.426 383.449 123.192 368.17 123.192 348.115 c 2
 123.192 124.147 l 2
 123.192 104.093 139.426 87.8584 160.436 87.8584 c 2
 440.243 87.8584 l 1
 440.243 56 349.987 -1.2334 228 0 c 6
 177.625 0.954102 l 2
 84.0518 2.72656 34.3789 58.2529 34.3789 138.471 c 2
 34.3789 333.791 l 2
 34.3789 414.01 84.0381 472.263 177.625 472.263 c 2
EndSplineSet
Validated: 33
EndChar

StartChar: w
Encoding: 119 119 25
Width: 710
VWidth: -20
Flags: W
HStem: 0.954102 21G<191.54 265.944 443.554 517.883>
LayerCount: 3
Back
SplineSet
391.812 338.062 m 2
 409.003 338.062 417.528 329.391 420.461 320.871 c 2
 457.424 213.5 l 2
 464.109 195.354 480.355 115.201 480.355 115.201 c 17
 487.05 115.201 l 9
 487.05 115.201 501.771 192.297 510.924 215 c 2
 608.196 456.928 l 2
 614.421 472.407 631.115 481.758 647.351 482.712 c 2
 654.036 482.712 660.721 481.758 666.45 477.938 c 0
 682.685 470.299 692.234 454.062 692.234 437.829 c 0
 692.234 431.144 691.278 425.414 688.415 419.685 c 2
 509.329 0.954102 l 1
 451.075 0.954102 l 1
 355.189 255.933 l 1
 258.348 0.954102 l 1
 200.094 0.954102 l 1
 21.0088 419.685 l 2
 18.1455 425.414 17.1895 431.144 17.1895 437.829 c 0
 17.1895 454.062 26.7393 470.299 42.9736 477.938 c 0
 48.7031 481.758 55.3877 482.712 62.0732 482.712 c 2
 78.3086 481.758 95.0029 472.407 101.227 456.928 c 2
 198.5 215 l 2
 207.653 192.297 222.374 115.201 222.374 115.201 c 17
 229.068 115.201 l 9
 229.068 115.201 245.314 195.354 252 213.5 c 2
 288.963 320.871 l 2
 291.896 329.391 300.421 338.062 317.611 338.062 c 2
 391.812 338.062 l 2
EndSplineSet
Fore
SplineSet
391.812 338.062 m 2
 409.003 338.062 417.528 329.391 420.461 320.871 c 2
 457.424 213.5 l 2
 464.109 195.354 480.355 115.201 480.355 115.201 c 17
 487.05 115.201 l 9
 487.05 115.201 501.771 192.297 510.924 215 c 2
 608.196 456.928 l 2
 614.421 472.407 631.115 481.758 647.351 482.712 c 2
 654.036 482.712 660.721 481.758 666.45 477.938 c 0
 682.685 470.299 692.234 454.062 692.234 437.829 c 0
 692.234 431.144 691.278 425.414 688.415 419.685 c 2
 509.329 0.954102 l 1
 451.075 0.954102 l 1
 355.189 255.933 l 1
 258.348 0.954102 l 1
 200.094 0.954102 l 1
 21.0088 419.685 l 2
 18.1455 425.414 17.1895 431.144 17.1895 437.829 c 0
 17.1895 454.062 26.7393 470.299 42.9736 477.938 c 0
 48.7031 481.758 55.3877 482.712 62.0732 482.712 c 2
 78.3086 481.758 95.0029 472.407 101.227 456.928 c 2
 198.5 215 l 2
 207.653 192.297 222.374 115.201 222.374 115.201 c 17
 229.068 115.201 l 9
 229.068 115.201 245.314 195.354 252 213.5 c 2
 288.963 320.871 l 2
 291.896 329.391 300.421 338.062 317.611 338.062 c 2
 391.812 338.062 l 2
EndSplineSet
Validated: 1
EndChar

StartChar: z
Encoding: 122 122 26
Width: 455
VWidth: -20
Flags: W
HStem: -4.77539 88.8135<151.842 397.665> 385.811 89.766<60.7639 282.387>
LayerCount: 3
Back
SplineSet
398.892 448.838 m 2
 398.892 407.811 l 2
 398.892 393 381.89 366.553 364.514 345.701 c 2
 151.842 84.0381 l 1
 418.892 84.0381 l 1
 416.982 42.9736 404.567 -4.77539 343.449 -4.77539 c 2
 59.209 -4.77539 l 2
 55.6475 -4.70864 33.4238 4.26074 33.4238 20.0537 c 2
 33.4238 64.0381 l 2
 33.4238 74.6699 48.4697 101.836 66.8477 124.147 c 2
 282.387 385.811 l 1
 33.4785 385.811 l 1
 38.2529 444.063 64.0381 475.577 133.751 475.577 c 2
 374.063 475.577 l 2
 387.712 475.577 398.8 463.513 398.892 448.838 c 2
EndSplineSet
Fore
SplineSet
398.892 448.838 m 2
 398.892 407.811 l 2
 398.892 393 381.89 366.553 364.514 345.701 c 2
 151.842 84.0381 l 1
 418.892 84.0381 l 1
 416.982 42.9736 404.567 -4.77539 343.449 -4.77539 c 2
 59.209 -4.77539 l 2
 55.6475 -4.70864 33.4238 4.26074 33.4238 20.0537 c 2
 33.4238 64.0381 l 2
 33.4238 74.6699 48.4697 101.836 66.8477 124.147 c 2
 282.387 385.811 l 1
 33.4785 385.811 l 1
 38.2529 444.063 64.0381 475.577 133.751 475.577 c 2
 374.063 475.577 l 2
 387.712 475.577 398.8 463.513 398.892 448.838 c 2
EndSplineSet
Validated: 1
EndChar

StartChar: x
Encoding: 120 120 27
Width: 487
VWidth: -20
Flags: W
LayerCount: 3
Back
SplineSet
444.118 407.594 m 2
 295.143 235.698 l 1
 470.857 32.2891 l 1
 438.389 1.72949 l 2
 431.063 -5.16545 421.538 -8.52201 411.606 -8.52201 c 0
 399.335 -8.52201 386.444 -3.39877 376.314 6.50488 c 2
 235.933 168.85 l 1
 95.5518 6.50488 l 2
 85.6179 -4.98331 73.921 -9.74655 62.6164 -9.74655 c 0
 38.7014 -9.74655 16.5418 11.5706 16.5418 35.6321 c 0
 16.5418 44.9708 19.8799 54.723 27.749 63.8027 c 2
 176.725 235.698 l 1
 27.749 407.594 l 2
 19.8825 416.671 16.5386 426.574 16.5386 436.12 c 0
 16.5386 460.488 38.3311 482.524 62.3084 482.524 c 0
 73.5863 482.524 85.3476 477.649 95.5518 465.848 c 2
 235.933 303.502 l 1
 376.314 465.848 l 2
 386.509 477.638 398.704 482.557 410.471 482.557 c 0
 434.375 482.557 456.51 462.26 456.51 438.038 c 0
 456.51 428.172 452.838 417.655 444.118 407.594 c 2
EndSplineSet
Fore
SplineSet
444.118 407.594 m 2
 295.143 235.698 l 1
 470.857 32.2891 l 1
 438.389 1.72949 l 2
 431.063 -5.16545 421.538 -8.52201 411.606 -8.52201 c 0
 399.335 -8.52201 386.444 -3.39877 376.314 6.50488 c 2
 235.933 168.85 l 1
 95.5518 6.50488 l 2
 85.6179 -4.98331 73.921 -9.74655 62.6164 -9.74655 c 0
 38.7014 -9.74655 16.5418 11.5706 16.5418 35.6321 c 0
 16.5418 44.9708 19.8799 54.723 27.749 63.8027 c 2
 176.725 235.698 l 1
 27.749 407.594 l 2
 19.8825 416.671 16.5386 426.574 16.5386 436.12 c 0
 16.5386 460.488 38.3311 482.524 62.3084 482.524 c 0
 73.5863 482.524 85.3476 477.649 95.5518 465.848 c 2
 235.933 303.502 l 1
 376.314 465.848 l 2
 386.509 477.638 398.704 482.557 410.471 482.557 c 0
 434.375 482.557 456.51 462.26 456.51 438.038 c 0
 456.51 428.172 452.838 417.655 444.118 407.594 c 2
EndSplineSet
Validated: 1
EndChar

StartChar: exclam
Encoding: 33 33 28
Width: 333
VWidth: 0
Flags: W
HStem: -4.08105 90.7236<89.6807 168.303>
VStem: 83.1924 91.6766<2.97994 79.537 194.924 673.352>
LayerCount: 3
Fore
SplineSet
174.869 40.8027 m 0
 174.869 15.9736 154.815 -4.08105 128.076 -4.08105 c 0
 103.246 -4.08105 83.1924 15.9736 83.1924 40.8027 c 0
 83.1924 66.5869 103.246 86.6426 128.076 86.6426 c 0
 154.815 86.6426 174.869 66.5869 174.869 40.8027 c 0
128.076 681.007 m 0
 152.905 681.007 173.914 660.952 173.914 636.122 c 2
 173.914 194.924 l 1
 84.1475 194.924 l 1
 84.1475 636.122 l 2
 84.1475 660.952 104.201 681.007 128.076 681.007 c 0
EndSplineSet
Validated: 1
EndChar

StartChar: question
Encoding: 63 63 29
Width: 482
VWidth: 0
Flags: W
HStem: 1.87402 89.7686<129.345 205.914> 314.151 84.993<211.872 341.191> 597.778 43.929<26.4434 92.5076> 597.778 104.093<158.449 341.931>
VStem: 122.896 89.767<8.47138 84.537 212.924 311.724> 346.359 86.904<405.426 591.23>
LayerCount: 3
Fore
SplineSet
290.017 701.871 m 0xdc
 384.559 701.871 433.263 627.384 433.263 547.165 c 2
 433.263 450.712 l 2
 433.263 371.449 382.648 314.151 290.017 314.151 c 2
 210.753 314.151 l 1
 210.753 212.924 l 1
 122.896 212.924 l 1
 122.896 291.232 l 2
 122.896 356.17 184.969 399.144 236.537 399.144 c 2
 306.25 399.144 l 2
 331.08 399.144 346.359 416.334 346.359 436.389 c 2
 346.359 562.444 l 2
 346.359 585.364 324.395 597.778 310.07 597.778 c 6xdc
 26.4434 597.778 l 1
 26.4434 641.707 l 1xec
 92.3359 666.537 237.492 701.871 290.017 701.871 c 0xdc
212.663 45.8027 m 0
 212.663 20.0195 191.654 1.87402 166.823 1.87402 c 0
 142.949 1.87402 122.896 18.1094 122.896 45.8027 c 0
 122.896 72.542 141.995 91.6426 166.823 91.6426 c 0
 191.654 91.6426 212.663 71.5869 212.663 45.8027 c 0
EndSplineSet
Validated: 1
EndChar

StartChar: period
Encoding: 46 46 30
Width: 283
VWidth: 0
Flags: W
HStem: -3.12598 99.7686<81.2506 163.087>
VStem: 72.3174 100.723<6.0579 86.7357>
LayerCount: 3
Fore
SplineSet
121.246 -3.12598 m 0
 91.5459 -3.12598 72.3174 21.3398 72.3174 45.8027 c 0
 72.3174 75.2637 95.5459 96.6426 121.246 96.6426 c 0
 148.738 96.6426 173.04 74.5381 173.04 45.8027 c 0
 173.04 16.9551 148.428 -3.12598 121.246 -3.12598 c 0
EndSplineSet
EndChar

StartChar: quotesingle
Encoding: 39 39 33
Width: 201
VWidth: 0
Flags: W
HStem: 415.018 279.809
VStem: 59.2588 92.7812<578.191 687.424>
LayerCount: 3
Fore
SplineSet
77.5518 461.812 m 1
 59.4072 649.942 l 2
 59.3076 650.976 59.2588 652.006 59.2588 653.03 c 0
 59.2588 675.359 82.4609 694.827 106.201 694.827 c 0
 131.985 694.827 152.04 675.727 152.04 649.942 c 2
 129.121 415.018 l 1
 106.201 416.928 l 2
 91.877 416.928 81.3721 426.479 80.417 439.848 c 2
 77.5518 461.812 l 1
EndSplineSet
Validated: 1
EndChar

StartChar: M
Encoding: 77 77 35
Width: 681
VWidth: -20
Flags: W
HStem: 0.954102 21G<49.6592 138.471 532.346 621.158>
VStem: 49.6592 88.8118<0.954102 524.281> 532.346 88.812<0.954102 524.281>
LayerCount: 3
Back
SplineSet
94.542 698.086 m 0
 119.372 698.086 127.131 684.295 144.201 658.933 c 2
 336.387 373.395 l 1
 526.615 658.933 l 2
 547.624 682.808 551.444 698.086 577.229 698.086 c 0
 602.059 698.086 621.158 678.032 621.158 654.158 c 2
 621.158 0.954102 l 1
 532.346 0.954102 l 1
 532.346 524.281 l 1
 337.341 253.068 l 2
 336.553 251.972 337.341 252.113 336.387 252.113 c 0
 336.387 252.113 335.431 252.113 335.431 253.068 c 2
 138.471 524.281 l 1
 138.471 0.954102 l 5
 49.6592 0.954102 l 5
 49.6592 654.158 l 2
 49.6592 678.032 68.7578 698.086 94.542 698.086 c 0
EndSplineSet
Fore
SplineSet
94.542 698.086 m 0
 119.372 698.086 127.131 684.295 144.201 658.933 c 2
 336.387 373.395 l 1
 526.615 658.933 l 2
 547.624 682.808 551.444 698.086 577.229 698.086 c 0
 602.059 698.086 621.158 678.032 621.158 654.158 c 2
 621.158 0.954102 l 1
 532.346 0.954102 l 1
 532.346 524.281 l 1
 337.341 253.068 l 2
 336.553 251.972 337.341 252.113 336.387 252.113 c 0
 336.387 252.113 335.431 252.113 335.431 253.068 c 2
 138.471 524.281 l 1
 138.471 0.954102 l 1
 49.6592 0.954102 l 1
 49.6592 654.158 l 2
 49.6592 678.032 68.7578 698.086 94.542 698.086 c 0
EndSplineSet
Validated: 1
EndChar

StartChar: N
Encoding: 78 78 36
Width: 660
VWidth: -20
Flags: W
HStem: 0.954102 21G<49.6592 138.471 542.426 566.778>
VStem: 49.6592 88.8118<0.954102 525.236> 509.957 89.768<172.85 697.084>
LayerCount: 3
Back
SplineSet
94.542 698.086 m 0
 119.372 698.086 125.102 682.808 144.201 658.933 c 2
 509.957 172.85 l 1
 509.957 667.527 l 2
 510.911 683.762 516.19 698.086 542.931 698.086 c 6
 599.725 698.086 l 1
 599.725 45.8389 l 2
 599.725 20.0537 578.715 0.954102 554.84 0.954102 c 0
 530.012 0.954102 524.281 17.1895 505.182 40.1094 c 2
 138.471 525.236 l 1
 138.471 0.954102 l 1
 49.6592 0.954102 l 1
 49.6592 654.158 l 2
 49.6592 678.032 68.7578 698.086 94.542 698.086 c 0
EndSplineSet
Fore
SplineSet
94.542 698.086 m 0
 119.372 698.086 125.102 682.808 144.201 658.933 c 2
 509.957 172.85 l 1
 509.957 667.527 l 2
 510.911 683.762 516.19 698.086 542.931 698.086 c 2
 599.725 698.086 l 1
 599.725 45.8389 l 2
 599.725 20.0537 578.715 0.954102 554.84 0.954102 c 0
 530.012 0.954102 524.281 17.1895 505.182 40.1094 c 2
 138.471 525.236 l 1
 138.471 0.954102 l 1
 49.6592 0.954102 l 1
 49.6592 654.158 l 2
 49.6592 678.032 68.7578 698.086 94.542 698.086 c 0
EndSplineSet
Validated: 1
EndChar

StartChar: H
Encoding: 72 72 37
Width: 605
VWidth: -20
Flags: W
HStem: 0.954102 21G<65.6592 154.471 455.712 544.525> 296.997 88.814<154.471 455.712>
VStem: 65.6592 88.8118<0.954102 296.997 385.811 691.636> 455.712 88.813<0.954102 296.997 385.811 692.182>
LayerCount: 3
Back
SplineSet
110.542 698.086 m 0
 135.372 698.086 154.471 678.032 154.471 654.158 c 2
 154.471 385.811 l 1
 455.712 385.811 l 5
 455.712 654.158 l 6
 455.712 678.032 474.812 698.086 499.641 698.086 c 6
 544.525 698.086 l 5
 544.525 0.954102 l 5
 455.712 0.954102 l 5
 455.712 296.997 l 5
 154.471 296.997 l 1
 154.471 0.954102 l 1
 65.6592 0.954102 l 1
 65.6592 654.158 l 2
 65.6592 678.032 84.7578 698.086 110.542 698.086 c 0
EndSplineSet
Fore
SplineSet
110.542 698.086 m 0
 135.372 698.086 154.471 678.032 154.471 654.158 c 2
 154.471 385.811 l 1
 455.712 385.811 l 1
 455.712 654.158 l 2
 455.712 678.032 474.812 698.086 499.641 698.086 c 2
 544.525 698.086 l 1
 544.525 0.954102 l 1
 455.712 0.954102 l 1
 455.712 296.997 l 1
 154.471 296.997 l 1
 154.471 0.954102 l 1
 65.6592 0.954102 l 1
 65.6592 654.158 l 2
 65.6592 678.032 84.7578 698.086 110.542 698.086 c 0
EndSplineSet
Validated: 1
EndChar

StartChar: O
Encoding: 79 79 38
Width: 591
VWidth: -20
Flags: W
HStem: 0.954102 88.8145<138.501 437.45> 609.274 88.812<138.501 437.45>
VStem: 43.9287 89.7673<95.0439 603.513> 443.108 89.768<95.0439 603.513>
LayerCount: 3
Back
SplineSet
183.355 698.086 m 6
 392.494 698.086 l 6
 469.848 698.086 532.876 636.013 532.876 558.66 c 6
 532.876 139.426 l 6
 532.876 63.0273 469.848 0.954102 392.494 0.954102 c 6
 183.355 0.954102 l 6
 106.002 0.954102 43.9287 63.0273 43.9287 139.426 c 6
 43.9287 558.66 l 6
 43.9287 636.013 106.002 698.086 183.355 698.086 c 6
406.818 609.274 m 6
 169.985 609.274 l 6
 148.976 609.274 133.696 593.039 133.696 572.985 c 6
 133.696 126.058 l 6
 133.696 106.002 148.976 89.7686 169.985 89.7686 c 6
 406.818 89.7686 l 6
 427.829 89.7686 443.108 106.002 443.108 126.058 c 6
 443.108 572.985 l 6
 443.108 593.039 427.829 609.274 406.818 609.274 c 6
EndSplineSet
Fore
SplineSet
183.355 698.086 m 2
 392.494 698.086 l 2
 469.848 698.086 532.876 636.013 532.876 558.66 c 2
 532.876 139.426 l 2
 532.876 63.0273 469.848 0.954102 392.494 0.954102 c 2
 183.355 0.954102 l 2
 106.002 0.954102 43.9287 63.0273 43.9287 139.426 c 2
 43.9287 558.66 l 2
 43.9287 636.013 106.002 698.086 183.355 698.086 c 2
406.818 609.274 m 2
 169.985 609.274 l 2
 148.976 609.274 133.696 593.039 133.696 572.985 c 2
 133.696 126.058 l 2
 133.696 106.002 148.976 89.7686 169.985 89.7686 c 2
 406.818 89.7686 l 2
 427.829 89.7686 443.108 106.002 443.108 126.058 c 2
 443.108 572.985 l 2
 443.108 593.039 427.829 609.274 406.818 609.274 c 2
EndSplineSet
Validated: 1
EndChar

StartChar: P
Encoding: 80 80 39
Width: 522
VWidth: -20
Flags: W
HStem: 0.954102 21G<49.6592 138.471> 296.042 89.769<138.471 367.434> 607.364 90.722<138.471 368.836>
VStem: 49.6592 88.8118<0.954102 296.042 385.811 607.364> 372.44 87.859<389.67 421.144 421.144 603.586>
LayerCount: 3
Back
SplineSet
138.471 0.954102 m 1
 49.6592 0.954102 l 1
 49.6592 698.086 l 1
 336.151 698.086 l 2
 409.685 698.086 460.299 647.474 460.299 578.715 c 2
 460.299 409.685 l 2
 460.299 335.196 393.449 296.042 342.837 296.042 c 2
 138.471 296.042 l 1
 138.471 0.954102 l 1
335.196 385.811 m 2
 355.25 385.811 372.44 401.089 372.44 421.144 c 2
 372.44 572.03 l 2
 372.44 600.68 343.791 607.364 336.151 607.364 c 2
 138.471 607.364 l 1
 138.471 385.811 l 1
 335.196 385.811 l 2
EndSplineSet
Fore
SplineSet
138.471 0.954102 m 1
 49.6592 0.954102 l 1
 49.6592 698.086 l 1
 336.151 698.086 l 2
 409.685 698.086 460.299 647.474 460.299 578.715 c 2
 460.299 409.685 l 2
 460.299 335.196 393.449 296.042 342.837 296.042 c 2
 138.471 296.042 l 1
 138.471 0.954102 l 1
335.196 385.811 m 2
 355.25 385.811 372.44 401.089 372.44 421.144 c 2
 372.44 572.03 l 2
 372.44 600.68 343.791 607.364 336.151 607.364 c 2
 138.471 607.364 l 1
 138.471 385.811 l 1
 335.196 385.811 l 2
EndSplineSet
Validated: 1
EndChar

StartChar: C
Encoding: 67 67 40
Width: 540
VWidth: 0
Flags: W
HStem: 1.91016 88.8125<138.501 435.879> 610.229 88.813<138.501 424.452>
VStem: 43.9287 89.7673<96.1127 141.336 141.336 604.838>
LayerCount: 3
Back
SplineSet
183.355 699.042 m 2
 381.035 699.042 l 2
 421.144 698.086 448.838 655.112 454.567 610.229 c 1
 169.985 610.229 l 2
 148.976 610.229 133.696 593.994 133.696 573.94 c 2
 133.696 126.058 l 2
 133.696 106.957 148.976 90.7227 169.985 90.7227 c 2
 466.982 90.7227 l 1
 458.389 45.8389 430.692 1.91016 392.494 1.91016 c 2
 183.355 1.91016 l 2
 106.002 1.91016 43.9287 63.0273 43.9287 141.336 c 2
 43.9287 559.615 l 2
 43.9287 637.923 106.002 699.042 183.355 699.042 c 2
454.567 610.229 m 1
EndSplineSet
Fore
SplineSet
183.355 699.042 m 2
 381.035 699.042 l 2
 421.144 698.086 448.838 655.112 454.567 610.229 c 1
 169.985 610.229 l 2
 148.977 610.229 133.696 593.994 133.696 573.94 c 2
 133.696 126.058 l 2
 133.696 106.957 148.976 90.7227 169.985 90.7227 c 2
 466.982 90.7227 l 1
 458.389 45.8389 430.692 1.91016 392.494 1.91016 c 2
 183.355 1.91016 l 2
 106.002 1.91016 43.9287 63.0273 43.9287 141.336 c 2
 43.9287 559.615 l 2
 43.9287 637.923 106.002 699.042 183.355 699.042 c 2
EndSplineSet
EndChar

StartChar: Q
Encoding: 81 81 41
Width: 591
VWidth: -20
Flags: W
HStem: 0.954102 88.8145<138.501 380.263> 609.274 88.812<138.501 437.45>
VStem: 43.9287 89.7673<95.0439 139.426 139.426 603.513> 443.108 89.768<154.795 603.513>
LayerCount: 3
Back
SplineSet
406.818 609.274 m 2
 169.985 609.274 l 2
 148.976 609.274 133.696 593.039 133.696 572.985 c 2
 133.696 126.058 l 2
 133.696 106.002 148.976 89.7686 169.985 89.7686 c 2
 380.263 89.7686 l 1
 292 146 l 1
 340.658 220.297 l 1
 443.108 154.795 l 1
 443.108 572.985 l 2
 443.108 593.039 427.829 609.274 406.818 609.274 c 2
183.355 698.086 m 2
 392.494 698.086 l 2
 469.848 698.086 532.876 636.013 532.876 558.66 c 2
 532.876 139.426 l 2
 532.876 126.071 530.95 113.153 527.358 100.929 c 1
 629.47 35.6426 l 1
 605.401 -1.10645 l 2
 591.275 -22.6762 564.196 -27.4128 544.064 -14.5869 c 2
 476.431 28.5013 l 1
 452.997 11.2046 423.928 0.954103 392.494 0.954102 c 2
 183.355 0.954102 l 2
 106.002 0.954102 43.9287 63.0273 43.9287 139.426 c 2
 43.9287 558.66 l 2
 43.9287 636.013 106.002 698.086 183.355 698.086 c 2
EndSplineSet
Fore
SplineSet
406.818 609.274 m 2
 169.985 609.274 l 2
 148.976 609.274 133.696 593.039 133.696 572.985 c 2
 133.696 126.058 l 2
 133.696 106.002 148.976 89.7686 169.985 89.7686 c 2
 380.263 89.7686 l 1
 292 146 l 1
 340.658 220.297 l 1
 443.108 154.795 l 1
 443.108 572.985 l 2
 443.108 593.039 427.829 609.274 406.818 609.274 c 2
183.355 698.086 m 2
 392.494 698.086 l 2
 469.848 698.086 532.876 636.013 532.876 558.66 c 2
 532.876 139.426 l 2
 532.876 126.071 530.95 113.153 527.358 100.929 c 1
 629.47 35.6426 l 1
 605.401 -1.10645 l 2
 596.473 -14.7394 582.37 -21.6479 568.118 -21.6479 c 0
 559.82 -21.6479 551.472 -19.3063 544.064 -14.5869 c 2
 476.431 28.5013 l 1
 452.997 11.2046 423.928 0.954103 392.494 0.954102 c 2
 183.355 0.954102 l 2
 106.002 0.954102 43.9287 63.0273 43.9287 139.426 c 2
 43.9287 558.66 l 2
 43.9287 636.013 106.002 698.086 183.355 698.086 c 2
EndSplineSet
EndChar

StartChar: R
Encoding: 82 82 42
Width: 501
VWidth: -20
Flags: W
HStem: 0.954102 21G<49.6592 138.471> 296.042 89.769<138.471 294.132> 607.364 90.722<138.471 367.327>
VStem: 49.6592 88.8118<0.954102 296.042 385.811 607.364> 372.44 89.769<389.123 421.144 421.144 603.738>
LayerCount: 3
Back
SplineSet
49.6592 698.086 m 1
 336.151 698.086 l 2
 414.46 698.086 462.209 648.429 462.209 578.715 c 2
 462.209 409.685 l 2
 462.209 386.766 454.567 342.837 404.909 314.188 c 2
 386.766 303.682 l 1
 505.182 17.1895 l 1
 466.028 -3.82031 l 2
 459.343 -5.72949 454.567 -7.63965 448.838 -7.63965 c 0
 431.648 -7.63965 415.414 3.82031 408.729 20.0537 c 2
 294.132 296.042 l 1
 138.471 296.042 l 1
 138.471 0.954102 l 1
 49.6592 0.954102 l 1
 49.6592 698.086 l 1
336.151 607.364 m 2
 138.471 607.364 l 1
 138.471 385.811 l 1
 336.151 385.811 l 2
 355.25 385.811 372.44 401.089 372.44 421.144 c 2
 372.44 572.03 l 2
 372.44 600.68 343.791 607.364 336.151 607.364 c 2
EndSplineSet
Fore
SplineSet
49.6592 698.086 m 1
 336.151 698.086 l 2
 414.46 698.086 462.209 648.429 462.209 578.715 c 2
 462.209 409.685 l 2
 462.209 386.766 454.567 342.837 404.909 314.188 c 2
 386.766 303.682 l 1
 505.182 17.1895 l 1
 466.028 -3.82031 l 2
 459.343 -5.72949 454.567 -7.63965 448.838 -7.63965 c 0
 431.648 -7.63965 415.414 3.82031 408.729 20.0537 c 2
 294.132 296.042 l 1
 138.471 296.042 l 1
 138.471 0.954102 l 1
 49.6592 0.954102 l 1
 49.6592 698.086 l 1
336.151 607.364 m 2
 138.471 607.364 l 1
 138.471 385.811 l 1
 336.151 385.811 l 2
 355.25 385.811 372.44 401.089 372.44 421.144 c 2
 372.44 572.03 l 2
 372.44 600.68 343.791 607.364 336.151 607.364 c 2
EndSplineSet
Validated: 1
EndChar

StartChar: T
Encoding: 84 84 43
Width: 558
VWidth: -20
Flags: W
HStem: 0.954102 21G<239.239 328.053> 609.274 88.812<34.678 239.239 328.053 531.919>
VStem: 239.239 88.814<0.954102 609.274>
LayerCount: 3
Back
SplineSet
73.0732 698.086 m 2
 494.217 698.086 l 2
 519.047 698.086 538.146 678.032 538.146 654.158 c 2
 538.146 609.274 l 1
 328.053 609.274 l 1
 328.053 0.954102 l 1
 239.239 0.954102 l 1
 239.239 609.274 l 1
 28.1895 609.274 l 1
 28.1895 654.158 l 2
 28.1895 678.032 48.2441 698.086 73.0732 698.086 c 2
EndSplineSet
Fore
SplineSet
73.0732 698.086 m 2
 494.217 698.086 l 2
 519.047 698.086 538.146 678.032 538.146 654.158 c 2
 538.146 609.274 l 1
 328.053 609.274 l 1
 328.053 0.954102 l 1
 239.239 0.954102 l 1
 239.239 609.274 l 1
 28.1895 609.274 l 1
 28.1895 654.158 l 2
 28.1895 678.032 48.2441 698.086 73.0732 698.086 c 2
EndSplineSet
Validated: 1
EndChar

StartChar: V
Encoding: 86 86 44
Width: 588
VWidth: -20
Flags: W
HStem: 0.954102 21G<234.062 353.292>
LayerCount: 3
Back
SplineSet
526.229 701.906 m 2
 572.065 683.762 l 1
 346.691 0.954102 l 1
 240.689 0.954102 l 1
 27.7295 643.653 l 2
 6.1582 708.755 98.5 733.5 119.407 674.212 c 2
 294.168 147.066 l 1
 469.884 674.212 l 2
 477.316 696.507 502.161 708.498 526.229 701.906 c 2
EndSplineSet
Fore
SplineSet
526.229 701.906 m 6
 572.065 683.762 l 5
 346.691 0.954102 l 5
 240.689 0.954102 l 5
 27.7295 643.653 l 6
 25.4995 650.383 24.4869 656.682 24.4869 662.501 c 4
 24.4869 690.857 48.531 707.827 72.9265 707.827 c 4
 91.9529 707.827 111.193 697.505 119.407 674.212 c 6
 294.168 147.066 l 5
 469.884 674.212 l 6
 475.941 692.383 493.565 703.709 512.907 703.709 c 4
 517.298 703.709 521.777 703.125 526.229 701.906 c 6
EndSplineSet
EndChar

StartChar: A
Encoding: 65 65 45
Width: 557
VWidth: 0
Flags: W
HStem: 0 21G<55.8657 79.2632 491.812 502.316> 166.166 89.767<186.22 385.811>
LayerCount: 3
Back
SplineSet
280.764 702.861 m 6
 339.017 702.861 l 5
 551.976 62.0732 l 5
 551.976 57.2979 552.931 52.5244 552.931 47.749 c 4
 552.931 20.0537 538.606 0.954102 502.316 0 c 4
 501.362 0 500.407 -0.954102 500.407 -0.954102 c 5
 483.217 -0.954102 466.982 10.5049 460.299 29.6035 c 6
 415.414 166.166 l 5
 156.616 166.166 l 5
 110.776 29.6035 l 6
 105.047 10.5049 87.8584 0 70.668 0 c 4
 68.7578 0 l 4
 42.9736 0 19.0986 18.1455 19.0986 46.7939 c 4
 19.0986 51.5693 19.0986 56.3447 20.0537 61.1182 c 6
 213.914 643.653 l 6
 230.148 688.537 254.022 702.861 280.764 702.861 c 6
385.811 255.933 m 5
 286.492 555.796 l 5
 186.22 255.933 l 5
 385.811 255.933 l 5
EndSplineSet
Fore
SplineSet
280.764 702.861 m 2
 339.017 702.861 l 1
 551.976 62.0732 l 1
 551.976 57.2979 552.931 52.5244 552.931 47.749 c 0
 552.931 20.0537 538.606 0.954102 502.316 0 c 0
 501.362 0 500.407 -0.954102 500.407 -0.954102 c 1
 483.217 -0.954102 466.982 10.5049 460.299 29.6035 c 2
 415.414 166.166 l 1
 156.616 166.166 l 1
 110.776 29.6035 l 2
 105.047 10.5049 87.8584 0 70.668 0 c 0
 68.7578 0 l 0
 42.9736 0 19.0986 18.1455 19.0986 46.7939 c 0
 19.0986 51.5693 19.0986 56.3447 20.0537 61.1182 c 2
 213.914 643.653 l 2
 230.148 688.537 254.022 702.861 280.764 702.861 c 2
385.811 255.933 m 1
 286.492 555.796 l 1
 186.22 255.933 l 1
 385.811 255.933 l 1
EndSplineSet
Validated: 1
EndChar

StartChar: G
Encoding: 71 71 46
Width: 527
VWidth: -20
Flags: W
HStem: -0.000548623 89.7691<138.018 418.08> 286.997 74.02<335.963 418.08> 609.274 88.812<138.018 461.901>
VStem: 43.9287 88.8123<94.9417 603.513> 418.08 87.858<89.7686 286.997>
LayerCount: 3
Back
SplineSet
182.399 -0.000548623 m 2
 106.003 -0.000548623 43.9287 63.0273 43.9287 139.426 c 2
 43.9287 558.66 l 2
 43.9287 636.013 106.002 698.086 182.399 698.086 c 2
 418.08 698.086 l 2
 459.144 697.132 485.884 654.158 491.613 609.274 c 1
 169.985 609.274 l 2
 148.977 609.275 132.741 593.039 132.741 572.985 c 2
 132.741 126.058 l 2
 132.741 106.002 148.976 89.7686 169.985 89.7686 c 2
 418.08 89.7686 l 1
 418.08 286.997 l 5
 355.053 286.997 l 6
 351.232 286.997 335.952 286.997 335.952 308.963 c 6
 335.952 361.017 l 1
 505.938 361.017 l 1
 505.938 45.8389 l 18
 505.938 18.5855 489.105 -0.000548623 455.814 -0.000548623 c 2
 182.399 -0.000548623 l 2
EndSplineSet
Fore
SplineSet
182.399 -0.000548623 m 2
 106.003 -0.000548623 43.9287 63.0273 43.9287 139.426 c 2
 43.9287 558.66 l 2
 43.9287 636.013 106.002 698.086 182.399 698.086 c 2
 418.08 698.086 l 2
 459.144 697.132 485.884 654.158 491.613 609.274 c 1
 169.985 609.274 l 2
 148.977 609.275 132.741 593.039 132.741 572.985 c 2
 132.741 126.058 l 2
 132.741 106.002 148.976 89.7686 169.985 89.7686 c 2
 418.08 89.7686 l 1
 418.08 286.997 l 1
 355.053 286.997 l 2
 351.232 286.997 335.952 286.997 335.952 308.963 c 2
 335.952 361.017 l 1
 505.938 361.017 l 1
 505.938 45.8389 l 18
 505.938 18.5855 489.105 -0.000548623 455.814 -0.000548623 c 2
 182.399 -0.000548623 l 2
EndSplineSet
EndChar

StartChar: U
Encoding: 85 85 47
Width: 559
VWidth: -20
Flags: W
HStem: 0.954102 88.8145<140.486 407.585>
VStem: 47.749 89.768<92.8237 697.571> 410.64 89.767<92.7527 126.058 126.058 692.966>
LayerCount: 3
Back
SplineSet
500.407 698.086 m 1
 500.407 101.227 l 2
 500.407 39.1533 460.299 0.954102 411.594 0.954102 c 2
 135.606 0.954102 l 2
 86.9023 0.954102 47.749 39.1533 47.749 101.227 c 2
 47.749 659.887 l 2
 48.7031 696.177 77.3525 702.861 93.5869 702.861 c 0
 114.597 702.861 137.517 691.402 137.517 659.887 c 2
 137.517 126.058 l 2
 137.517 105.047 154.706 89.7686 172.85 89.7686 c 2
 374.351 89.7686 l 2
 395.359 89.7686 410.64 106.957 410.64 126.058 c 2
 410.64 654.158 l 2
 410.64 685.672 433.559 698.086 454.567 698.086 c 6
 500.407 698.086 l 1
EndSplineSet
Fore
SplineSet
500.407 698.086 m 1
 500.407 101.227 l 2
 500.407 39.1533 460.299 0.954102 411.594 0.954102 c 2
 135.606 0.954102 l 2
 86.9023 0.954102 47.749 39.1533 47.749 101.227 c 2
 47.749 659.887 l 2
 48.7031 696.177 77.3525 702.861 93.5869 702.861 c 0
 114.597 702.861 137.517 691.402 137.517 659.887 c 2
 137.517 126.058 l 2
 137.517 105.047 154.706 89.7686 172.85 89.7686 c 2
 374.351 89.7686 l 2
 395.359 89.7686 410.64 106.957 410.64 126.058 c 2
 410.64 654.158 l 2
 410.64 685.672 433.559 698.086 454.567 698.086 c 2
 500.407 698.086 l 1
EndSplineSet
Validated: 1
EndChar

StartChar: S
Encoding: 83 83 48
Width: 520
VWidth: -20
Flags: W
HStem: 0 88.3086<74.4878 391.436> 315.143 89.738<137.449 391.279> 609.778 88.308<137.824 420.867>
VStem: 45.8389 87.8571<408.15 606.408> 395.359 89.768<92.2545 124.597 124.597 311.295>
LayerCount: 3
Back
SplineSet
45.8389 610.229 m 2
 45.8389 655.112 84.0381 698.086 157.571 698.086 c 2
 372.44 698.086 l 2
 414.46 697.132 441.198 666.122 446.928 609.778 c 1
 170.94 609.778 l 2
 148.976 609.778 133.696 592.589 133.696 572.534 c 2
 133.696 440.243 l 2
 133.696 433.559 141.336 404.909 169.985 404.909 c 0
 170.94 404.909 170.94 404.909 170.94 404.909 c 2
 371.485 404.909 l 2
 445.018 404.909 485.127 347.611 485.127 285.537 c 2
 485.127 112.687 l 2
 485.127 36.2891 441.198 0 359.07 0 c 2
 116.507 0 l 2
 82.1279 0 59.208 29.0986 55.3877 88.3086 c 1
 359.07 88.3086 l 2
 366.711 88.3086 395.359 95.9482 395.359 124.597 c 2
 395.359 280.764 l 2
 395.359 300.817 377.215 315.143 359.07 315.143 c 2
 157.571 315.143 l 2
 94.542 315.143 45.8389 359.07 45.8389 419.234 c 2
 45.8389 610.229 l 2
EndSplineSet
Fore
SplineSet
371.485 404.909 m 2
 445.018 404.909 485.127 347.611 485.127 285.537 c 2
 485.127 112.687 l 2
 485.127 36.2891 441.198 0 359.07 0 c 2
 116.507 0 l 2
 82.1279 0 59.208 29.0986 55.3877 88.3086 c 1
 359.07 88.3086 l 2
 366.711 88.3086 395.359 95.9482 395.359 124.597 c 2
 395.359 280.764 l 2
 395.359 300.817 377.215 315.143 359.07 315.143 c 2
 157.571 315.143 l 2
 94.542 315.143 45.8389 359.07 45.8389 419.234 c 2
 45.8389 610.229 l 2
 45.8389 655.112 84.0381 698.086 157.571 698.086 c 2
 372.44 698.086 l 2
 414.46 697.132 441.198 666.122 446.928 609.778 c 1
 170.94 609.778 l 2
 148.976 609.778 133.696 592.589 133.696 572.534 c 2
 133.696 440.243 l 2
 133.749 426.045 146.467 404.881 169.493 404.881 c 0
 371.485 404.909 l 2
EndSplineSet
EndChar

StartChar: I
Encoding: 73 73 49
Width: 199
VWidth: -20
Flags: W
HStem: 0.954102 21G<49.6592 138.471>
VStem: 49.6592 88.8118<0.954102 691.636>
LayerCount: 3
Back
SplineSet
94.542 698.086 m 2
 138.471 698.086 l 1
 138.471 0.954102 l 1
 49.6592 0.954102 l 1
 49.6592 654.158 l 2
 49.6592 678.032 68.7578 698.086 94.542 698.086 c 2
EndSplineSet
Fore
SplineSet
94.542 698.086 m 2
 138.471 698.086 l 1
 138.471 0.954102 l 1
 49.6592 0.954102 l 1
 49.6592 654.158 l 2
 49.6592 678.032 68.7578 698.086 94.542 698.086 c 2
EndSplineSet
Validated: 1
EndChar

StartChar: J
Encoding: 74 74 50
Width: 222
VWidth: -20
Flags: W
VStem: 72.5781 89.7679<-115.261 696.412>
LayerCount: 3
Back
SplineSet
-30.5596 -221.555 m 0
 -30.5596 -219.645 -30.5596 -215.823 -27.6943 -211.049 c 2
 49.6592 -129.877 l 1
 51.5693 -127.968 l 2
 65.8936 -106.957 72.5781 -95.4971 72.5781 -65.8936 c 6
 72.5781 658.933 l 2
 72.5781 682.808 93.5869 702.861 116.507 702.861 c 0
 142.291 702.861 162.346 682.808 162.346 658.933 c 2
 162.346 -59.208 l 2
 162.346 -91.6777 148.976 -106.002 142.291 -113.643 c 2
 23.874 -221.555 l 2
 10.5049 -237.789 -0.954102 -238.744 -7.63965 -238.744 c 1
 -23.3333 -238.744 -30.5596 -231.333 -30.5596 -221.555 c 0
EndSplineSet
Fore
SplineSet
-30.5596 -221.555 m 0
 -30.5596 -219.645 -30.5596 -215.823 -27.6943 -211.049 c 2
 49.6592 -129.877 l 1
 51.5693 -127.968 l 2
 65.8936 -106.957 72.5781 -95.4971 72.5781 -65.8936 c 2
 72.5781 658.933 l 2
 72.5781 682.808 93.5869 702.861 116.507 702.861 c 0
 142.291 702.861 162.346 682.808 162.346 658.933 c 2
 162.346 -59.208 l 2
 162.346 -91.6777 148.976 -106.002 142.291 -113.643 c 2
 23.874 -221.555 l 2
 10.5049 -237.789 -0.954102 -238.744 -7.63965 -238.744 c 1
 -23.3333 -238.744 -30.5596 -231.333 -30.5596 -221.555 c 0
EndSplineSet
Validated: 1
EndChar

StartChar: L
Encoding: 76 76 51
Width: 521
VWidth: -20
Flags: W
HStem: 0.954102 88.8145<138.471 492.269>
VStem: 49.6592 88.8118<89.7686 691.636>
LayerCount: 3
Back
SplineSet
94.542 698.086 m 2
 138.471 698.086 l 1
 138.471 89.7686 l 1
 454.567 89.7686 l 2
 479.397 89.7686 498.497 70.668 498.497 45.8389 c 0
 498.497 20.0537 479.397 0.954102 454.567 0.954102 c 2
 49.6592 0.954102 l 1
 49.6592 654.158 l 2
 49.6592 678.032 68.7578 698.086 94.542 698.086 c 2
EndSplineSet
Fore
SplineSet
94.542 698.086 m 2
 138.471 698.086 l 1
 138.471 89.7686 l 1
 454.567 89.7686 l 2
 479.397 89.7686 498.497 70.668 498.497 45.8389 c 0
 498.497 20.0537 479.397 0.954102 454.567 0.954102 c 2
 49.6592 0.954102 l 1
 49.6592 654.158 l 2
 49.6592 678.032 68.7578 698.086 94.542 698.086 c 2
EndSplineSet
Validated: 1
EndChar

StartChar: B
Encoding: 66 66 52
Width: 525
VWidth: 0
Flags: W
HStem: 1.91016 88.8125<138.471 393.025> 325.646 85.893<138.471 378.323> 624.554 73.532<138.471 375.422>
VStem: 49.6592 88.8118<90.7227 325.646 411.539 624.554> 381.44 80.769<414.648 619.205> 397.269 89.768<94.6058 126.058 126.058 322.177>
LayerCount: 3
Back
SplineSet
462.209 448.64 m 2xf8
 462.209 403 437.252 383.786 417.01 378.351 c 2
 406.135 375.431 l 1
 417.01 372.602 l 2
 449.964 368.696 487.037 326 487.037 283.394 c 2
 487.037 114.597 l 2xf4
 487.037 40.1094 420.189 1.91016 367.665 1.91016 c 2
 49.6592 1.91016 l 1
 49.6592 698.086 l 1
 336.151 698.086 l 2
 419.234 698.086 462.209 650.338 462.209 578.715 c 2
 462.209 448.64 l 2xf8
345.151 624.554 m 2
 138.471 624.554 l 1
 138.471 411.539 l 5
 345.151 411.539 l 6
 364.25 411.539 381.44 425.864 381.44 447.829 c 6xf8
 381.44 587.31 l 2
 381.439 616.914 352.791 624.554 345.151 624.554 c 2
361.936 325.646 m 2
 138.471 325.646 l 1
 138.471 90.7227 l 1
 361.936 90.7227 l 2
 381.035 90.7227 397.269 106.002 397.269 126.058 c 2
 397.269 290.312 l 2xf4
 397.269 318.963 368.62 325.646 361.936 325.646 c 2
EndSplineSet
Fore
SplineSet
462.209 448.64 m 2xf8
 462.209 403 437.252 383.786 417.01 378.351 c 2
 406.135 375.431 l 1
 417.01 372.602 l 2
 449.964 368.696 487.037 326 487.037 283.394 c 2
 487.037 114.597 l 2xf4
 487.037 40.1094 420.189 1.91016 367.665 1.91016 c 2
 49.6592 1.91016 l 1
 49.6592 698.086 l 1
 336.151 698.086 l 2
 419.234 698.086 462.209 650.338 462.209 578.715 c 2
 462.209 448.64 l 2xf8
345.151 624.554 m 2
 138.471 624.554 l 1
 138.471 411.539 l 1
 345.151 411.539 l 2
 364.25 411.539 381.44 425.864 381.44 447.829 c 2
 381.44 587.31 l 2xf8
 381.439 616.914 352.791 624.554 345.151 624.554 c 2
361.936 325.646 m 2
 138.471 325.646 l 1
 138.471 90.7227 l 1
 361.936 90.7227 l 2
 381.035 90.7227 397.269 106.002 397.269 126.058 c 2
 397.269 290.312 l 2xf4
 397.269 318.963 368.62 325.646 361.936 325.646 c 2
EndSplineSet
Validated: 1
EndChar

StartChar: D
Encoding: 68 68 53
Width: 547
VWidth: 0
Flags: W
HStem: 0 87.8584<138.471 392.706> 607.364 89.768<138.471 393.895>
VStem: 49.6592 88.8118<87.8584 607.364> 397.269 89.768<92.9161 125.102 125.102 603.221>
LayerCount: 3
Back
SplineSet
367.665 0 m 6
 49.6592 0 l 5
 49.6592 697.132 l 5
 358.115 697.132 l 6
 430.692 697.132 487.037 638.879 487.037 577.761 c 6
 487.037 112.687 l 6
 487.037 39.1533 419.234 0 367.665 0 c 6
361.936 87.8584 m 6
 381.035 87.8584 397.269 104.093 397.269 125.102 c 6
 397.269 571.075 l 6
 397.269 599.725 368.62 607.364 361.936 607.364 c 6
 138.471 607.364 l 5
 138.471 87.8584 l 5
 361.936 87.8584 l 6
EndSplineSet
Fore
SplineSet
367.665 0 m 2
 49.6592 0 l 1
 49.6592 697.132 l 1
 358.115 697.132 l 2
 430.692 697.132 487.037 638.879 487.037 577.761 c 2
 487.037 112.687 l 2
 487.037 39.1533 419.234 0 367.665 0 c 2
361.936 87.8584 m 2
 381.035 87.8584 397.269 104.093 397.269 125.102 c 2
 397.269 571.075 l 2
 397.269 599.725 368.62 607.364 361.936 607.364 c 2
 138.471 607.364 l 1
 138.471 87.8584 l 1
 361.936 87.8584 l 2
EndSplineSet
Validated: 1
EndChar

StartChar: W
Encoding: 87 87 54
Width: 908
VWidth: -20
Flags: W
HStem: 0.954102 21G<218.257 373.993 543.375 701.387>
LayerCount: 3
Back
SplineSet
828.229 701.906 m 6
 874.065 683.762 l 5
 648.691 0.954102 l 5
 542.689 0.954102 l 5
 329.729 643.653 l 6
 327.499 650.383 326.487 656.682 326.487 662.501 c 4
 326.487 690.857 350.531 707.827 374.927 707.827 c 4
 393.953 707.827 413.193 697.505 421.407 674.212 c 6
 596.168 147.066 l 5
 771.884 674.212 l 6
 777.941 692.383 795.565 703.709 814.907 703.709 c 4
 819.298 703.709 823.777 703.125 828.229 701.906 c 6
526.229 701.906 m 2
 572.065 683.762 l 1
 346.691 0.954102 l 1
 240.689 0.954102 l 1
 27.7295 643.653 l 2
 25.4995 650.383 24.4869 656.682 24.4869 662.501 c 0
 24.4869 690.857 48.531 707.827 72.9265 707.827 c 0
 91.9529 707.827 111.193 697.505 119.407 674.212 c 2
 294.168 147.066 l 1
 469.884 674.212 l 2
 475.941 692.383 493.565 703.709 512.907 703.709 c 0
 517.298 703.709 521.777 703.125 526.229 701.906 c 2
349.017 475.577 m 2
 421.559 475.577 l 2
 432 475.577 441.437 470.213 443.75 460.25 c 2
 532.876 76.3984 l 1
 670.393 668.482 l 2
 675.894 692.169 699.714 706.964 723.871 701.906 c 2
 764.934 691.402 l 1
 606.409 0.954102 l 1
 464.118 0.954102 l 1
 409 232 l 2
 405.566 246.396 392.957 293.5 392.957 315.979 c 0
 392.957 320.849 389.596 323.964 385.317 323.964 c 0
 381.038 323.964 377.676 320.849 377.676 315.979 c 0
 377.676 291.5 366.032 248.24 362 232 c 2
 304.638 0.954102 l 1
 166.166 0.954102 l 1
 15.2793 649.384 l 2
 2.87985 702.67 87.7771 726.485 101.227 668.482 c 2
 238.744 75.4434 l 1
 328.512 460.299 l 2
 330.652 469.471 339.287 475.577 349.017 475.577 c 2
EndSplineSet
Fore
SplineSet
426.174 475.577 m 2
 509.462 475.577 l 2
 518.859 475.577 527.353 470.213 529.434 460.25 c 2
 616.523 76.3984 l 1
 814.04 668.482 l 2
 818.814 689.037 837.384 702.896 857.996 702.896 c 0
 861.137 702.896 864.336 702.632 867.519 701.906 c 2
 913.581 691.402 l 1
 695.057 0.954102 l 1
 547.766 0.954102 l 1
 488.259 272 l 2
 485.169 286.396 474.721 323.5 474.721 345.979 c 0
 474.721 350.849 471.695 353.964 467.845 353.964 c 0
 463.993 353.964 460.968 350.849 460.968 345.979 c 0
 460.968 321.5 450.488 290.24 446.859 274 c 2
 368.233 0.954102 l 1
 224.762 0.954102 l 1
 13.875 649.384 l 2
 12.7295 652.906 12.6416 656.463 12.6416 659.784 c 0
 12.6416 685.523 41.2832 702.174 64.1904 702.174 c 0
 81.9863 702.174 97.1533 691.508 104.822 668.482 c 2
 302.34 75.4434 l 1
 407.72 460.299 l 2
 409.646 469.471 417.418 475.577 426.174 475.577 c 2
EndSplineSet
EndChar

StartChar: Y
Encoding: 89 89 55
Width: 615
VWidth: -20
Flags: W
HStem: 0.954102 21G<212.004 301.771>
VStem: 212.004 89.767<0.954102 306.547>
LayerCount: 3
Back
SplineSet
55.3877 689.492 m 6
 257.843 399.179 l 1
 459.343 689.492 l 2
 473.464 709.836 501.039 715.254 521.416 701.906 c 2
 553.886 678.032 l 1
 301.771 306.547 l 1
 301.771 0.954102 l 1
 212.004 0.954102 l 1
 212.004 307.502 l 1
 -18.1455 639.833 l 6
 -52.7802 689.845 22.6854 736.386 55.3877 689.492 c 6
EndSplineSet
Fore
SplineSet
55.3877 689.492 m 2
 257.843 399.179 l 1
 459.343 689.492 l 2
 468.245 702.316 482.492 709.21 496.913 709.21 c 0
 505.369 709.21 513.884 706.84 521.416 701.906 c 2
 553.886 678.032 l 1
 301.771 306.547 l 1
 301.771 0.954102 l 1
 212.004 0.954102 l 1
 212.004 307.502 l 1
 -18.1455 639.833 l 2
 -24.3696 648.82 -27.038 657.696 -27.038 665.937 c 0
 -27.038 690.165 -3.97556 708.911 19.6092 708.911 c 0
 32.6443 708.911 45.839 703.185 55.3877 689.492 c 2
EndSplineSet
EndChar

StartChar: X
Encoding: 88 88 58
Width: 627
VWidth: -20
Flags: W
LayerCount: 3
Back
SplineSet
463.163 5.72949 m 2
 295.088 250.203 l 1
 126.058 5.72949 l 2
 92 -42 19 6 53.4785 56.3447 c 2
 240.654 330.421 l 1
 32.4697 636.013 l 2
 -1.54713 685.946 72.5408 733.999 105.047 686.628 c 2
 295.088 409.685 l 1
 485.127 686.628 l 6
 519.151 736.21 590.722 682.648 558.66 636.013 c 6
 348.566 330.421 l 1
 561.525 19.0986 l 1
 525.236 -5.72949 l 2
 504.872 -19.6618 477.086 -14.5253 463.163 5.72949 c 2
EndSplineSet
Fore
SplineSet
463.163 5.72949 m 2
 295.088 250.203 l 1
 126.058 5.72949 l 2
 116.166 -8.13294 102.99 -13.9202 90.1153 -13.9202 c 0
 66.7866 -13.9202 44.4505 5.08225 44.4505 29.4747 c 0
 44.4505 37.9693 47.1593 47.1176 53.4785 56.3447 c 2
 240.654 330.421 l 1
 32.4697 636.013 l 2
 26.3574 644.985 23.7354 653.897 23.7354 662.205 c 0
 23.7354 686.762 46.6419 706.047 70.0305 706.047 c 0
 82.7667 706.047 95.6459 700.328 105.047 686.628 c 2
 295.088 409.685 l 1
 485.127 686.628 l 2
 494.76 700.666 507.403 706.436 519.851 706.436 c 0
 543.645 706.436 566.728 685.357 566.728 660.642 c 0
 566.728 652.617 564.294 644.208 558.66 636.013 c 2
 348.566 330.421 l 1
 561.525 19.0986 l 1
 525.236 -5.72949 l 2
 517.492 -11.0279 508.674 -13.5685 499.953 -13.5685 c 0
 485.743 -13.5685 471.791 -6.82244 463.163 5.72949 c 2
EndSplineSet
EndChar

StartChar: E
Encoding: 69 69 59
Width: 505
VWidth: 0
Flags: W
HStem: 1.91016 88.8125<138.471 492.147> 296.997 89.769<138.471 402.999> 610.229 88.813<138.471 470.266>
VStem: 49.6592 88.8118<90.7227 296.997 386.766 610.229>
LayerCount: 3
Back
SplineSet
49.6592 699.042 m 5
 476.532 699.042 l 5
 476.532 654.158 l 6
 476.532 630.283 457.434 610.229 431.648 610.229 c 6
 138.471 610.229 l 5
 138.471 386.766 l 5
 402.999 386.766 l 6
 431.648 382.944 448.838 364.801 448.838 341.881 c 4
 448.838 307.502 414.46 297.952 402.999 296.997 c 5
 138.471 296.997 l 5
 138.471 90.7227 l 5
 453.613 90.7227 l 6
 481.308 87.8584 498.497 70.668 498.497 46.7939 c 4
 498.497 22.9189 481.308 3.82031 453.613 1.91016 c 6
 49.6592 1.91016 l 5
 49.6592 699.042 l 5
EndSplineSet
Fore
SplineSet
49.6592 699.042 m 1
 476.532 699.042 l 1
 476.532 654.158 l 2
 476.532 630.283 457.434 610.229 431.648 610.229 c 2
 138.471 610.229 l 1
 138.471 386.766 l 1
 402.999 386.766 l 2
 431.648 382.944 448.838 364.801 448.838 341.881 c 0
 448.838 307.502 414.46 297.952 402.999 296.997 c 1
 138.471 296.997 l 1
 138.471 90.7227 l 1
 453.613 90.7227 l 2
 481.308 87.8584 498.497 70.668 498.497 46.7939 c 0
 498.497 22.9189 481.308 3.82031 453.613 1.91016 c 2
 49.6592 1.91016 l 1
 49.6592 699.042 l 1
EndSplineSet
Validated: 1
EndChar

StartChar: F
Encoding: 70 70 60
Width: 494
VWidth: -20
Flags: W
HStem: 0.954102 21G<49.6592 138.471> 296.042 89.769<138.471 386.267> 609.274 88.812<138.471 470.266>
VStem: 49.6592 88.8118<0.954102 296.042 385.811 609.274>
LayerCount: 3
Back
SplineSet
49.6592 698.086 m 1
 476.532 698.086 l 1
 476.532 654.158 l 2
 476.532 629.329 457.434 609.274 431.648 609.274 c 2
 138.471 609.274 l 1
 138.471 385.811 l 1
 348.566 385.811 l 2
 373.395 385.811 392.494 364.801 392.494 341.881 c 0
 392.494 316.096 373.395 296.042 348.566 296.042 c 2
 138.471 296.042 l 1
 138.471 0.954102 l 1
 49.6592 0.954102 l 1
 49.6592 698.086 l 1
EndSplineSet
Fore
SplineSet
49.6592 698.086 m 1
 476.532 698.086 l 1
 476.532 654.158 l 2
 476.532 629.329 457.434 609.274 431.648 609.274 c 2
 138.471 609.274 l 1
 138.471 385.811 l 1
 348.566 385.811 l 2
 373.395 385.811 392.494 364.801 392.494 341.881 c 0
 392.494 316.096 373.395 296.042 348.566 296.042 c 2
 138.471 296.042 l 1
 138.471 0.954102 l 1
 49.6592 0.954102 l 1
 49.6592 698.086 l 1
EndSplineSet
Validated: 1
EndChar

StartChar: Z
Encoding: 90 90 61
Width: 549
VWidth: -20
Flags: W
HStem: 0.954102 88.8145<126.058 466.474> 609.274 88.812<62.7283 380.08>
LayerCount: 3
Back
SplineSet
63.0732 0.954102 m 2
 41.29 0.954102 35.3789 15.8828 35.3789 26.7393 c 2
 35.3789 90.7227 l 2
 35.3789 107.333 41.8847 123.456 49.208 133.976 c 2
 380.08 609.274 l 1
 36.2891 609.274 l 1
 40.1094 667.527 65.8936 698.086 135.606 698.086 c 2
 460.163 698.086 l 2
 460.165 698.086 485.947 698.171 485.947 672.303 c 2
 485.947 611 l 2
 485.947 601.5 479.344 591.301 472.577 581.711 c 2
 126.058 89.7686 l 1
 487.407 89.7686 l 1
 484.542 48.7031 474.037 0.954102 412.919 0.954102 c 2
 63.0732 0.954102 l 2
EndSplineSet
Fore
SplineSet
63.0732 0.954102 m 2
 41.29 0.954102 35.3789 15.8828 35.3789 26.7393 c 2
 35.3789 90.7227 l 2
 35.3789 107.333 41.8847 123.456 49.208 133.976 c 2
 380.08 609.274 l 1
 36.2891 609.274 l 1
 40.1094 667.527 65.8936 698.086 135.606 698.086 c 2
 460.163 698.086 l 2
 460.166 698.086 l 0
 460.501 698.086 485.947 698.002 485.947 672.303 c 2
 485.947 611 l 2
 485.947 601.5 479.344 591.301 472.577 581.711 c 2
 126.058 89.7686 l 1
 487.407 89.7686 l 1
 484.542 48.7031 474.037 0.954102 412.919 0.954102 c 2
 63.0732 0.954102 l 2
EndSplineSet
EndChar

StartChar: K
Encoding: 75 75 62
Width: 566
VWidth: -20
Flags: W
HStem: 0.954102 21G<49.6592 138.471>
VStem: 49.6592 88.8118<0.954102 281.717 405.864 698.086>
LayerCount: 3
Back
SplineSet
526.19 3.82031 m 0
 543.142 23.4336 543.142 51.2422 526.19 65.8936 c 2
 202.455 345.701 l 1
 505.182 653.204 l 1
 473.667 685.672 l 2
 463.163 696.177 452.658 699.042 441.198 699.042 c 4
 431.648 699.042 422.1 696.177 411.594 686.628 c 2
 138.471 405.864 l 1
 138.471 698.086 l 1
 49.6592 698.086 l 1
 49.6592 0.954102 l 1
 138.471 0.954102 l 1
 138.471 281.717 l 1
 463.163 3.82031 l 2
 483.194 -13.323 511.388 -13.3077 526.19 3.82031 c 0
EndSplineSet
Fore
SplineSet
496.63 -9.03144 m 0
 485.229 -9.03144 473.176 -4.74943 463.163 3.82031 c 2
 138.471 281.717 l 1
 138.471 0.954102 l 1
 49.6592 0.954102 l 1
 49.6592 698.086 l 1
 138.471 698.086 l 1
 138.471 405.864 l 1
 411.594 686.628 l 2
 422.1 696.177 431.648 699.042 441.198 699.042 c 0
 452.658 699.042 463.163 696.177 473.667 685.672 c 2
 505.182 653.204 l 1
 202.455 345.701 l 1
 526.19 65.8936 l 2
 534.666 58.5679 538.904 47.9529 538.904 36.7177 c 0
 538.904 11 520 -9.03144 496.63 -9.03144 c 0
EndSplineSet
EndChar

StartChar: one
Encoding: 49 49 63
Width: 233
VWidth: 14
Flags: W
VStem: 54.2715 87.1435<1.83398 686.355>
LayerCount: 3
Fore
SplineSet
141.415 712.113 m 1
 141.415 1.83398 l 1
 54.2715 1.83398 l 1
 54.2715 620 l 6
 54.2715 666 79.3841 708.461 123.799 711.076 c 2
 141.415 712.113 l 1
EndSplineSet
Layer: 2
SplineSet
126.058 486.083 m 5
 126.058 1.91016 l 5
 38.1992 1.91016 l 5
 38.1992 362.891 l 6
 38.1992 435.468 80.2188 475.577 126.058 486.083 c 5
EndSplineSet
EndChar

StartChar: two
Encoding: 50 50 64
Width: 457
VWidth: 14
Flags: W
HStem: 0.279297 87.6982<145 402.492> 618.129 79.9751<66.6102 310.341>
VStem: 43 102<87.9775 236.073> 311.574 89.0098<411.846 616.488>
LayerCount: 3
Back
SplineSet
433 88 m 4
 433 0 l 13
 81.7695 0.279297 l 6
 60.46 0.295898 43 13.5127 43 29.8623 c 6
 43 229.058 l 6
 43 265.074 63.7461 297.436 98 317 c 6
 298.33 431.422 l 6
 309.762 439.892 311.628 445.189 311.574 451.332 c 6
 311.021 572.449 l 6
 310.956 586.749 300.951 594.129 288.288 594.129 c 6
 49.2334 594.129 l 5
 48.8467 609.986 l 6
 47.6033 660.97 78.4492 698.104 123.765 698.104 c 6
 301.867 698.104 l 6
 409.941 698.104 428.584 639.958 428.584 601.194 c 6
 428.584 431.518 l 6
 428.584 402.784 409.019 374.753 385.397 356.562 c 6
 195 249.5 l 6
 182.891 242.69 173 228.5 173 210 c 6
 173 114.978 l 5
 408 114.978 l 4
 421.8 114.978 433 102.892 433 88 c 4
EndSplineSet
Fore
SplineSet
403 61 m 0
 403 0 l 9
 81.7695 0.279297 l 2
 60.46 0.297852 43 13.5127 43 29.8623 c 2
 43 213.058 l 6
 43 249.074 63.7471 281.436 98 301 c 6
 298.33 415.422 l 6
 309.762 423.892 311.598 429.188 311.574 435.332 c 6
 311.021 596.449 l 2
 310.973 610.749 300.951 618.129 288.288 618.129 c 2
 49.2334 618.129 l 1
 48.8467 633.986 l 2
 48.042 666.98 78.4492 698.104 123.765 698.104 c 2
 273.867 698.104 l 2
 381.941 698.104 400.584 639.958 400.584 601.194 c 2
 400.584 415.518 l 6
 400.584 386.784 381.019 361.753 357.397 343.562 c 6
 167 236.5 l 6
 154.89 229.69 145 215.5 145 197 c 6
 145 87.9775 l 1
 378 87.9775 l 0
 391.8 87.9775 403 75.8916 403 61 c 0
EndSplineSet
Layer: 2
SplineSet
443.108 392.494 m 2
 443.108 296.997 l 2
 443.108 271.214 425.919 247.339 405.864 234.924 c 2
 110.776 89.7686 l 1
 457.434 89.7686 l 1
 454.567 48.7031 443.108 0 381.99 0 c 2
 62.0732 0 l 2
 57.2979 0.954102 56.3447 0.954102 52.5244 0.954102 c 0
 42.9736 3.82031 36.2891 9.5498 33.4238 20.0537 c 0
 33.4238 21.0088 33.4238 21.0088 33.4238 26.7393 c 2
 33.4238 100.858 l 2
 33.4238 102.769 l 0
 33.4238 106.587 33.4238 107.542 36.2891 110.407 c 0
 39.1533 118.047 47.749 127.597 64.9375 140.968 c 1
 324.691 276.572 l 2
 328.512 279.438 333.286 281.348 334.241 284.214 c 0
 352.387 295.672 353.341 309.997 353.341 317.638 c 0
 353.341 318.592 353.341 318.592 353.341 319.547 c 2
 353.341 370.53 l 1
 352.387 372.44 l 2
 348.566 387.72 335.196 400.135 317.053 400.135 c 2
 55.3877 400.135 l 1
 61.1182 456.479 87.8584 478.441 128.922 478.441 c 2
 329.466 478.441 l 18
 394 478.441 443.108 456 443.108 392.494 c 2
EndSplineSet
EndChar

StartChar: three
Encoding: 51 51 65
Width: 454
VWidth: 14
Flags: W
HStem: 15 83.1416<97.55 303.824> 333.309 65.5361<115.524 297.393> 622.653 74.8936<87.0526 295.639>
VStem: 300.824 85.6328<402.441 593.384> 307.981 94.9775<102.674 329.461>
LayerCount: 3
Fore
SplineSet
46.6348 98.1416 m 1xe8
 124.229 98.1416 194.587 97.4746 269.665 98.1406 c 0
 290.152 98.2959 307.985 114.382 307.981 134.497 c 2xe8
 307.946 299.494 l 2
 307.942 318.152 290.836 333.291 269.742 333.287 c 2
 139.814 333.309 l 2
 122.233 333.312 112.691 355 112.691 371 c 0
 112.691 386 124.424 398.845 137.583 398.845 c 2
 264.663 398.845 l 2
 280.133 398.845 300.824 411.793 300.824 435.199 c 2
 300.824 593.384 l 5
 299.003 595.74 l 5
 298.561 597.154 l 6
 292.238 617.361 274.752 622.653 265.549 622.653 c 6
 68.0508 622.653 l 21
 73.1855 671.403 95.5547 696.537 139.241 697.547 c 6
 276.193 697.547 l 6
 348.58 697.547 386.457 658.229 386.457 615.636 c 6
 386.457 424.145 l 2xf0
 386.457 411.06 380.835 391.999 368.128 380.306 c 2
 352.243 365.689 l 1
 371.481 355.899 l 2
 390.845 346.046 402.959 325.923 402.959 304.965 c 2
 402.959 132.663 l 2
 402.959 56.7129 355.69 15 284.436 15 c 2
 113.973 15 l 1
 78 15 46.6348 65 46.6348 98.1416 c 1xe8
EndSplineSet
Layer: 2
SplineSet
-19.0986 -142.741 m 1
 58.5166 -142.741 l 1
 56.8691 -112.741 l 2
 56.002 -103.452 55.9893 -94.8477 55.9893 -89.8223 c 2
 55.9893 -63.2607 l 1
 -19.0986 -142.741 l 1
356.801 184.805 m 2
 329.843 180.41 l 2
 322.121 179.151 317.096 173.114 317.259 165.293 c 0
 317.423 157.471 322.695 151.649 330.463 150.714 c 2
 360.421 147.107 l 2
 385.291 144.113 401.294 123.61 401.294 102.073 c 2
 401.294 -77.4072 l 2
 401.294 -152.45 362.755 -200.599 295.012 -200.599 c 2
 104.017 -200.599 l 2
 75.4502 -200.599 63.958 -165.576 59.4141 -142.741 c 1
 290.576 -142.733 l 2
 319.68 -141.03 341.526 -110.389 341.526 -75.4971 c 2
 341.526 103.576 l 2
 340.888 111.203 341.172 110.959 340.085 115.626 c 0
 339.413 118.168 339.046 119.044 339.046 119.044 c 2
 334.99 130.843 319.521 155.326 290.236 155.326 c 2
 142.407 155.326 l 1
 139.153 156.255 138.221 156.237 136.901 156.958 c 0
 132.882 159.154 130.618 161.38 128.729 165.421 c 0
 128.338 166.256 127.511 168.229 127.511 169.941 c 0
 127.511 169.987 127.521 170.186 127.521 170.186 c 1
 127.612 171.012 l 1
 127.612 171.842 l 2
 127.684 173.812 127.405 173.435 127.463 173.586 c 0
 127.49 173.655 127.563 173.821 127.647 174.009 c 1
 131.658 179.662 136.222 182.891 139.528 184.535 c 1
 155.307 184.535 l 1
 155.307 185.49 l 1
 274.003 185.49 l 2
 300.885 185.49 326.247 207.005 326.247 237.734 c 2
 326.247 402.688 l 1
 323.374 408.435 l 1
 317.571 431.948 299.722 452.999 274.958 452.999 c 2
 82.3955 452.999 l 1
 91.7881 495.069 117.566 501.754 139.525 502.265 c 2
 286.417 502.263 l 2
 352.8 502.262 384.104 459.223 384.104 416.314 c 2
 384.104 226.22 l 2
 384.104 204.731 370.07 186.968 356.801 184.805 c 2
155.307 185.49 m 1
 155.307 199.535 l 2
 155.307 200.49 141.299 185.49 141.299 185.49 c 1
 155.307 185.49 l 1
139.528 184.535 m 1
 140.299 184.918 141 185.216 141.611 185.438 c 1
 137.44 184.535 l 1
 139.528 184.535 l 1
EndSplineSet
EndChar

StartChar: four
Encoding: 52 52 66
Width: 454
VWidth: 14
Flags: W
HStem: 0.771484 21G<277.998 365.326> 201.714 68.3057<104.034 277.998 365.326 446.463>
VStem: 277.998 87.3281<0.771484 201.714 271.188 566.036>
LayerCount: 3
Fore
SplineSet
365.326 672.745 m 2
 365.326 271.188 l 1
 420.209 271.222 l 2
 425.453 270.713 439.874 271.164 446.793 253.155 c 0
 448.052 249.878 448.754 243.246 448.754 239.451 c 2
 448.754 201.714 l 1
 365.326 201.714 l 1
 365.326 0.771484 l 1
 277.998 0.771484 l 1
 277.998 201.714 l 1
 49.9219 201.714 l 2
 28.8799 201.714 12.9336 221.967 12.9336 244.647 c 0
 12.9336 251.331 14.3145 259.865 19.2656 267.048 c 2
 277.983 689.511 l 2
 288.428 706.566 305.771 715.226 321.796 715.234 c 0
 321.802 700.234 321.816 700.234 321.822 715.234 c 0
 345.375 715.234 365.326 698.238 365.326 672.745 c 2
277.998 270.02 m 1
 277.998 566.036 l 1
 104.034 270.02 l 1
 277.998 270.02 l 1
EndSplineSet
Layer: 2
SplineSet
318.296 503.577 m 0
 334.029 503.589 347.215 485.337 347.215 458.692 c 2
 347.215 61.0273 l 1
 419.514 61.0273 l 2
 424.114 61.0303 430.068 61.0391 433.032 61.0859 c 0
 433.722 60.9014 434.118 60.6973 434.118 60.4697 c 2
 434.118 29.9102 l 1
 347.215 29.9102 l 1
 347.215 -200.239 l 1
 287.447 -200.239 l 1
 287.447 29.9102 l 1
 31.7939 29.9102 l 2
 20.0273 29.9102 7.63965 49.7979 7.63965 73.8389 c 0
 7.63965 76.5713 9.91211 78.4072 11.5186 79.2686 c 2
 284.628 476.839 l 2
 294.462 494.693 308.56 503.57 318.296 503.577 c 0
43.6172 62.9375 m 1
 287.447 62.9375 l 1
 287.447 426.187 l 1
 43.6172 62.9375 l 1
EndSplineSet
EndChar

StartChar: five
Encoding: 53 53 67
Width: 491
VWidth: 33
Flags: W
HStem: 0.518555 71.8496<67.9042 346.279> 303.836 76.0859<136.534 347.888> 623.507 74.8486<137.42 388.86>
VStem: 55.8838 80.6504<379.922 622.831> 351.279 80.6494<76.3613 299.155>
LayerCount: 3
Fore
SplineSet
351.279 105.53 m 2
 351.279 271.552 l 2
 351.279 297.379 326.852 303.836 315.947 303.836 c 2
 55.8838 303.836 l 1
 55.8838 614.98 l 2
 55.8838 656.937 89.6641 698.355 158.854 698.355 c 6
 340.118 698.355 l 6
 381.283 698.355 403.179 670.815 408.97 623.507 c 1
 136.534 623.507 l 1
 136.534 379.922 l 1
 307.259 379.922 l 2
 394.491 379.922 431.929 335.02 431.929 260.429 c 2
 431.929 103.771 l 2
 431.929 33.6133 393.286 0.518555 315.947 0.518555 c 2
 110.73 0.518555 l 2
 79.4229 0.518555 58.5664 18.7266 53.3037 72.3682 c 1
 316.493 72.3867 l 1
 335.696 72.3877 351.28 87.2354 351.279 105.53 c 2
EndSplineSet
Layer: 2
SplineSet
55.4111 392.226 m 2
 56.3057 444.226 93.2109 476.412 147.676 476.412 c 2
 338.366 476.412 l 2
 367.724 476.412 385.344 462.695 393.003 430.319 c 1
 110.674 430.319 l 1
 110.674 188.044 l 1
 306.826 188.044 l 2
 397.067 188.044 419.627 124.9 419.627 67.5303 c 2
 419.627 -95.6553 l 2
 419.627 -160.563 395.297 -203.835 315.445 -203.835 c 2
 98.1709 -203.835 l 2
 81.8525 -203.835 62.6201 -199.85 54.8359 -157.742 c 1
 315.445 -157.742 l 2
 330.478 -156.107 344.196 -149.202 354.379 -132.778 c 0
 357.328 -127.859 359.885 -121.983 361.648 -115.303 c 0
 363.412 -108.786 364.367 -101.53 364.367 -93.8223 c 2
 364.367 89.5332 l 2
 364.367 118.692 339.931 137.537 315.445 137.537 c 2
 55.4131 137.537 l 1
 55.4111 392.226 l 2
EndSplineSet
EndChar

StartChar: six
Encoding: 54 54 68
Width: 504
VWidth: 14
Flags: W
HStem: 1.83398 90.4766<117.486 355.193> 391.543 82.457<116.022 357.383> 622.656 74.8916<116.018 390.214>
VStem: 29.6055 83.1416<98.7115 387.989 466.219 592.763> 361.193 84.0615<97.2216 130.688 130.688 386.266>
LayerCount: 3
Fore
SplineSet
330 474 m 2
 398 474 445.255 422 445.255 356.83 c 2
 445.255 128.596 l 2
 445.255 68 398 1.83398 331.071 1.83398 c 2
 143.902 1.83398 l 6
 69 1.83398 29.6055 72 29.6055 128.729 c 2
 29.6055 579.885 l 2
 29.6055 652.925 73.1162 697.548 144.399 697.548 c 2
 349.593 697.548 l 2
 373.133 697.548 399.338 683.666 408.488 622.656 c 1
 150.481 622.656 l 2
 149.907 622.561 118.262 621.748 113.159 592.761 c 2
 113.159 592.761 112.747 596.6 112.747 588.136 c 2
 112.747 466.219 l 1
 119.5 469.5 134 474 144 474 c 2
 330 474 l 2
361.193 130.688 m 2
 361.193 355.1 l 2
 361.193 384.254 334.315 391.543 322.603 391.543 c 2
 150.481 391.543 l 2
 131.484 391.543 112.747 377.558 112.747 355.1 c 2
 112.747 130.688 l 2
 112.747 107.662 133.66 92.3105 150.481 92.3105 c 2
 322.604 92.3105 l 2
 343.007 92.3105 361.193 108.582 361.193 130.688 c 2
EndSplineSet
Layer: 2
SplineSet
392.493 348.565 m 2
 392.493 385.66 368.585 413.899 340.25 413.899 c 2
 154.984 413.899 l 2
 128.023 413.899 103.695 386.277 103.695 348.565 c 2
 103.695 134.649 l 2
 103.695 97.7812 126.865 67.4072 154.984 67.4072 c 2
 340.25 67.4072 l 2
 369.718 67.4072 392.493 98.3711 392.493 134.649 c 2
 392.493 348.565 l 2
168.354 471.758 m 2
 327.837 471.758 l 2
 398.39 471.758 451.308 428.109 451.308 352.387 c 2
 451.308 141.336 l 2
 451.308 64.9531 395.797 1.91016 327.837 1.91016 c 2
 168.354 1.91016 l 2
 99.4453 1.91016 45.8389 64.6318 45.8389 141.336 c 2
 45.8389 591.13 l 2
 45.8389 666.549 83.6865 714.32 149.256 714.32 c 2
 366.034 714.32 l 2
 391.188 714.32 403.637 692.344 410.047 665.059 c 1
 154.984 665.059 l 2
 124.93 665.059 103.695 633.099 103.695 599.725 c 2
 103.695 457.693 l 1
 124.315 466.027 l 2
 132.209 469.969 141.931 471.758 168.354 471.758 c 2
EndSplineSet
EndChar

StartChar: nine
Encoding: 57 57 69
Width: 493
VWidth: 14
Flags: W
HStem: -0.226562 83.1445<73.8064 344.424> 270.468 83.1436<104.745 345.75> 613.011 84.9775<104.78 345.327>
VStem: 16.7705 84.9775<358.033 398.316 398.316 607.569> 349.277 84.0586<89.0239 277.585 357.343 607.57>
LayerCount: 3
Fore
SplineSet
138.527 613.011 m 2
 116.36 613.011 101.748 598.756 101.748 578.491 c 2
 101.748 390.599 l 2
 101.748 369.101 116.367 353.611 138.527 353.611 c 2
 311.581 353.611 l 2
 330.765 353.611 349.277 368.478 349.277 390.599 c 2
 349.277 578.491 l 2
 349.277 599.203 330.627 613.011 311.581 613.011 c 2
 138.527 613.011 l 2
112.432 -0.226562 m 6
 88.9102 -0.226562 62.9609 14.3037 53.5283 82.918 c 5
 311.581 82.918 l 6
 334.079 82.918 349.277 102.28 349.277 118.355 c 6
 349.277 277.585 l 1
 321.062 273.248 l 2
 314.192 272.488 305.859 270.468 298.268 270.468 c 2
 151.839 270.468 l 2
 75.6133 270.468 16.7705 321.607 16.7705 398.316 c 2
 16.7705 564.74 l 2
 16.7705 638.569 75.7002 697.988 151.839 697.988 c 2
 298.268 697.988 l 2
 374.406 697.988 433.336 638.571 433.336 564.74 c 2
 433.336 119.801 l 6
 433.336 41.7314 386.017 -0.226562 316.475 -0.226562 c 6
 112.432 -0.226562 l 6
36.3633 82.918 m 5
 53.5283 82.918 l 5
 53.4355 83.5986 l 5
 51.2285 99.9268 l 5
 36.3633 82.918 l 5
EndSplineSet
Layer: 2
SplineSet
92.2373 382.387 m 2
 92.2373 168.471 l 2
 92.2373 138.271 116.146 118.137 142.571 118.137 c 2
 328.791 118.137 l 2
 356.519 118.137 380.08 139.927 380.08 168.471 c 2
 380.08 382.387 l 2
 380.08 419.396 356.524 447.72 328.791 447.72 c 2
 142.571 447.72 l 2
 112.37 447.72 92.2373 416.687 92.2373 382.387 c 2
333.566 -199.194 m 2
 117.741 -199.194 l 2
 100.742 -199.194 82.8271 -188.356 73.3584 -141.336 c 1
 328.791 -141.336 l 2
 358.126 -141.336 380.08 -108.035 380.08 -75.0469 c 2
 380.08 55.9443 l 1
 335.182 48.0947 l 2
 328.088 47.1689 320.746 45.2793 314.466 45.2793 c 2
 156.896 45.2793 l 2
 86.4004 45.2793 32.4697 96.8232 32.4697 172.291 c 2
 32.4697 368.062 l 2
 32.4697 445.544 87.7461 507.487 156.896 507.487 c 2
 314.466 507.487 l 2
 383.612 507.487 438.892 445.545 438.892 368.062 c 2
 438.892 -76.957 l 2
 438.892 -152.085 400.432 -199.194 333.566 -199.194 c 2
EndSplineSet
EndChar

StartChar: zero
Encoding: 48 48 70
Width: 505
VWidth: 14
Flags: W
HStem: 0.916016 86.0615<134.718 363.727> 296.874 99.7686<214.251 296.087> 608.378 86.9756<137.362 366.263>
VStem: 48.4375 86.0596<87.0369 607.394> 205.317 100.723<306.058 386.736> 366.271 85.1445<87.7658 608.322>
LayerCount: 3
Fore
SplineSet
342.697 608.378 m 2
 158.229 608.378 l 2
 144.388 608.378 134.497 600.32 134.497 587.94 c 2
 134.497 107.415 l 2
 134.497 96.0928 144.984 86.9775 158.229 86.9775 c 2
 342.697 86.9775 l 2
 354.66 86.9775 366.271 96.5898 366.271 107.415 c 2
 366.271 587.94 l 2
 366.271 599.867 355.27 608.378 342.697 608.378 c 2
451.416 148.249 m 2
 451.416 67.2275 387.218 0.916016 299.672 0.916016 c 2
 136.179 0.916016 l 2
 105.425 0.916016 48.4375 44.2383 48.4375 87.7422 c 2
 48.4375 546.188 l 2
 48.4375 628.148 113.535 695.354 202.327 695.354 c 2
 389.343 695.354 l 2
 426.591 695.354 451.276 657.2 451.416 619.558 c 2
 451.416 148.249 l 2
EndSplineSet
Refer: 30 46 N 1 0 0 1 133 300 2
Layer: 2
SplineSet
256.52 233.84 m 4
 256.52 219.144 244.001 208.801 229.848 208.801 c 4
 214.606 208.801 204.808 221.32 204.808 233.84 c 4
 204.808 249.081 216.783 259.969 229.848 259.969 c 4
 244.001 259.969 256.52 248.537 256.52 233.84 c 4
297.952 385.811 m 2
 161.392 385.811 l 2
 141.336 385.811 125.102 370.53 125.102 349.521 c 2
 125.102 126.058 l 2
 125.102 106.002 141.336 89.7686 161.392 89.7686 c 2
 297.952 89.7686 l 2
 317.053 89.7686 334.241 106.002 334.241 126.058 c 2
 334.241 349.521 l 2
 334.241 370.53 317.053 385.811 297.952 385.811 c 2
422.1 411.594 m 2
 422.1 139.426 l 2
 422.1 63.0273 361.936 0.954102 284.582 0.954102 c 2
 112.687 0.954102 l 2
 87.8584 0.954102 36.2891 40.1094 36.2891 76.3984 c 2
 36.2891 335.196 l 2
 36.2891 412.55 97.4072 475.577 175.716 475.577 c 2
 372.44 475.577 l 2
 399.772 475.577 421.969 446.769 422.1 411.594 c 2
EndSplineSet
EndChar

StartChar: seven
Encoding: 55 55 71
Width: 479
VWidth: 14
Flags: W
HStem: 0.908203 21G<146.602 223.223> 613.229 84.0586<31.9249 346.004>
LayerCount: 3
Fore
SplineSet
259 32 m 2
 253.501 15.1777 242 0 223.223 0.908203 c 2
 139.869 0.908203 l 1
 346.004 613.229 l 1
 14.4863 613.229 l 1
 20.3145 683.909 49.5488 697.287 69.7578 697.287 c 2
 402.265 697.287 l 2
 427.553 697.287 443.837 677.726 443.837 654.799 c 2
 443.837 625.463 l 2
 443.837 617.953 442.936 608.847 439.437 597.872 c 2
 259 32 l 2
EndSplineSet
Layer: 2
SplineSet
54.8271 503.633 m 2
 402.438 503.633 l 2
 419.796 503.633 431.367 483.508 431.367 458.749 c 2
 431.367 428.19 l 2
 431.367 421.721 431.367 416.325 427.019 409.248 c 2
 425.638 406.257 l 1
 425.638 402.876 l 1
 234.943 -183.874 l 1
 230.961 -194.378 222.814 -201.138 216.219 -201.138 c 2
 149.51 -201.138 l 1
 365.334 444.82 l 1
 13.3701 444.82 l 1
 18.7646 480.44 32.1279 503.633 54.8271 503.633 c 2
425.638 402.876 m 1
 425.638 398.119 l 1
 426.403 405.181 l 1
 425.638 402.876 l 1
EndSplineSet
EndChar

StartChar: eight
Encoding: 56 56 72
Width: 496
VWidth: 14
Flags: W
HStem: 0.833984 90.4766<130.635 351.529> 332.123 69.7227<150.861 332.716> 616.82 81.3096<151.835 333.214>
VStem: 42.1875 84.9775<94.7462 328.637> 61.4395 86.6582<404.803 612.713> 336.344 86.6572<405.065 612.713> 357.275 84.9775<94.7396 328.129>
LayerCount: 3
Fore
SplineSet
105.687 369.634 m 5xf2
 88.8252 390.957 l 6
 72.3955 414.529 61.4395 442.936 61.4395 474.871 c 6
 61.4395 577.717 l 6
 61.4395 649.965 119.244 698.13 195.875 698.13 c 6
 289.448 698.13 l 6
 365.615 698.13 423.001 649.965 423.001 577.717 c 6
 423.001 474.871 l 6xec
 423.001 458.047 420.284 424.488 395.624 390.969 c 6
 378.71 369.603 l 5
 402.199 354.115 l 6
 426.024 341.471 442.253 312.238 442.253 281.683 c 6
 442.253 138.475 l 6
 442.253 63.127 383.378 0.833984 307.986 0.833984 c 6
 178.219 0.833984 l 6
 101.063 0.833984 42.1875 63.1523 42.1875 138.475 c 6
 42.1875 281.683 l 6
 42.1875 310.494 58.4102 341.313 82.2441 354.078 c 6
 105.687 369.634 l 5xf2
336.344 582.3 m 6
 336.344 602.96 318.634 616.82 301.808 616.82 c 6
 183.517 616.82 l 6
 165.909 616.82 148.098 602.702 148.098 582.3 c 6
 148.098 437.283 l 6
 148.098 416.601 165.772 401.846 183.517 401.846 c 6
 301.808 401.846 l 6
 319.702 401.846 336.344 419.271 336.344 437.283 c 6
 336.344 582.3 l 6
357.275 296.685 m 6xf2
 357.275 317.106 339.925 332.123 320.346 332.123 c 6
 164.095 332.123 l 6
 144.444 332.123 127.165 317.09 127.165 296.685 c 6
 127.165 127.664 l 6
 127.165 106.712 144.778 91.3105 164.095 91.3105 c 6
 320.346 91.3105 l 6
 339.698 91.3105 357.275 106.673 357.275 127.664 c 6
 357.275 296.685 l 6xf2
EndSplineSet
Layer: 2
SplineSet
183.635 707.636 m 2
 284.862 707.636 l 2
 354.63 707.636 408.334 658.216 408.334 581.58 c 2
 408.334 476.532 l 2
 408.334 450.988 399.25 429.131 382.909 410.326 c 2
 355.21 379.616 l 1
 393.951 355.608 l 1
 394.661 355.254 l 2
 414.825 342.922 428.389 312.322 428.389 281.717 c 2
 428.389 141.336 l 2
 428.389 64.9531 372.878 1.91016 304.916 1.91016 c 2
 164.535 1.91016 l 2
 94.4678 1.91016 39.1533 64.9932 39.1533 141.336 c 2
 39.1533 281.717 l 2
 39.1533 311.812 54.2197 343.291 73.668 355.591 c 2
 98.1328 370.539 l 1
 112.33 379.616 l 1
 84.75 410.173 l 2
 69.0068 429.298 59.208 451.271 59.208 476.532 c 2
 59.208 581.58 l 2
 59.208 658.182 112.824 707.636 183.635 707.636 c 2
349.521 437.378 m 2
 349.521 586.354 l 2
 349.521 622.378 326.484 651.688 298.232 651.688 c 2
 170.266 651.688 l 2
 141.425 651.688 118.021 622.481 118.021 586.354 c 2
 118.021 437.378 l 2
 118.021 417.838 140.851 401.089 170.266 401.089 c 2
 298.232 401.089 l 2
 327.064 401.089 349.521 417.895 349.521 437.378 c 2
368.62 134.65 m 2
 368.62 306.547 l 2
 368.62 341.393 347.342 372.837 318.286 372.837 c 2
 149.256 372.837 l 2
 120.225 372.837 98.9219 341.363 98.9219 306.547 c 2
 98.9219 134.65 l 2
 98.9219 99.1934 120.128 67.4072 149.256 67.4072 c 2
 318.286 67.4072 l 2
 347.38 67.4072 368.62 99.2148 368.62 134.65 c 2
EndSplineSet
EndChar

StartChar: acute
Encoding: 180 180 73
Width: 414
VWidth: 0
Flags: W
LayerCount: 3
Fore
SplineSet
282.781 650.393 m 6
 108.867 572.985 l 2
 101.534 569.721 92.5826 573.049 86.9023 580.624 c 2
 78.3086 592.084 l 1
 242.672 716.285 l 6
 301.559 757.836 338.929 675.96 282.781 650.393 c 6
EndSplineSet
EndChar

StartChar: dieresis
Encoding: 168 168 75
Width: 380
VWidth: 0
Flags: W
HStem: 586.778 110.778<50.5301 137.073 232.856 319.987>
VStem: 39.0732 109.823<598.53 685.661> 221.033 110.778<598.53 685.661>
LayerCount: 3
Fore
SplineSet
148.896 641.212 m 0
 148.896 611.608 124.066 586.778 93.5068 586.778 c 0
 62.9482 586.778 39.0732 611.608 39.0732 641.212 c 0
 39.0732 672.727 62.9482 697.556 93.5068 697.556 c 0
 124.066 697.556 148.896 672.727 148.896 641.212 c 0
331.811 641.212 m 0
 331.811 611.608 306.98 586.778 276.421 586.778 c 0
 245.862 586.778 221.033 611.608 221.033 641.212 c 0
 221.033 672.727 245.862 697.556 276.421 697.556 c 0
 306.98 697.556 331.811 672.727 331.811 641.212 c 0
EndSplineSet
Validated: 1
EndChar

StartChar: dotlessi
Encoding: 305 305 76
Width: 296
VWidth: 0
Flags: W
VStem: 75.0469 89.7681<1.87402 469.092>
LayerCount: 3
Fore
SplineSet
120.886 475.542 m 4
 143.806 475.542 164.815 455.487 164.815 431.613 c 6
 164.815 1.87402 l 5
 75.0469 1.87402 l 5
 75.0469 431.613 l 6
 75.0469 455.487 95.1016 475.542 120.886 475.542 c 4
EndSplineSet
Validated: 1
EndChar

StartChar: caron
Encoding: 711 711 77
Width: 455
VWidth: 0
Flags: W
LayerCount: 3
Fore
SplineSet
210.094 586.354 m 1
 52.3877 732.602 l 5
 62.0732 747.971 l 2
 66.5508 755.075 75.7793 758.244 84.9932 754.655 c 2
 229.194 664.887 l 1
 374.351 754.655 l 2
 381.643 759.165 391.051 756.336 396.314 748.926 c 2
 407.909 732.602 l 1
 248.293 586.354 l 1
 237.351 576.346 220.705 576.509 210.094 586.354 c 1
EndSplineSet
EndChar

StartChar: ring
Encoding: 730 730 79
Width: 400
VWidth: 0
Flags: W
HStem: 573.94 36.289<159.82 243.18> 724.827 34.378<161.798 241.202>
VStem: 108.867 35.334<626.854 707.451> 258.798 35.334<626.854 707.451>
LayerCount: 3
Fore
SplineSet
294.132 667.527 m 0
 294.132 615.959 252.113 573.94 201.5 573.94 c 0
 150.886 573.94 108.867 615.959 108.867 667.527 c 0
 108.867 718.142 150.886 759.205 201.5 759.205 c 0
 252.113 759.205 294.132 718.142 294.132 667.527 c 0
258.798 667.527 m 0
 258.798 698.086 233.015 724.827 201.5 724.827 c 0
 169.985 724.827 144.201 698.086 144.201 667.527 c 0
 144.201 635.059 169.985 610.229 201.5 610.229 c 0
 233.015 610.229 258.798 635.059 258.798 667.527 c 0
EndSplineSet
Validated: 1
EndChar

StartChar: breve
Encoding: 728 728 80
Width: 521
VWidth: 0
Flags: W
HStem: 584.444 70.9847<196.825 325.751>
LayerCount: 3
Fore
SplineSet
430.692 723.871 m 1
 383.9 645.563 338.062 584.444 261.663 584.444 c 0
 194.815 584.444 139.426 635.059 93.5869 723.871 c 1
 103.726 733.169 117.692 743.603 138.471 736.602 c 5
 170.94 703.177 196.725 655.429 261.663 655.429 c 4
 325.646 655.429 353.341 703.177 383.9 736.602 c 5
 402.236 741.866 417.688 732.573 430.692 723.871 c 1
EndSplineSet
EndChar

StartChar: periodcentered
Encoding: 183 183 82
Width: 285
VWidth: 0
Flags: W
HStem: 316.096 140.383<94.6619 193.382>
VStem: 74.4883 139.426<335.456 436.664>
LayerCount: 3
Fore
SplineSet
213.914 385.811 m 4
 213.914 347.611 182.399 316.096 144.201 316.096 c 4
 105.047 316.096 74.4883 347.611 74.4883 385.811 c 4
 74.4883 424.01 105.047 456.479 144.201 456.479 c 4
 182.399 456.479 213.914 424.01 213.914 385.811 c 4
EndSplineSet
Validated: 1
EndChar

StartChar: parenleft
Encoding: 40 40 84
Width: 222
VWidth: -20
Flags: W
VStem: 90.4404 89.7676<-95.2607 609.378>
LayerCount: 3
Back
SplineSet
263.682 734.376 m 4
 265.592 734.376 269.412 733.42 269.412 733.42 c 6
 280.871 730.556 286.602 723.871 286.602 717.187 c 4
 286.602 715.276 285.646 711.456 283.736 706.682 c 5
 204.473 625.509 l 5
 203.52 622.644 l 6
 190.148 602.589 181.555 591.13 181.555 561.525 c 4
 181.555 558.66 181.555 555.796 181.555 554.84 c 6
 181.555 545.29 l 5
 181.555 -27.6943 l 5
 181.555 -37.2441 l 6
 181.555 -38.1992 181.555 -40.1094 181.555 -42.9736 c 4
 181.555 -66.8477 187.284 -80.2188 203.52 -105.047 c 6
 204.473 -106.957 l 5
 283.736 -189.085 l 5
 285.646 -192.905 286.602 -196.725 286.602 -199.591 c 4
 285.646 -211.049 273.232 -214.869 267.502 -214.869 c 4
 266.547 -215.823 267.502 -215.823 263.682 -215.823 c 4
 256.997 -215.823 244.582 -214.869 231.214 -199.591 c 6
 231.214 -198.635 l 5
 113.751 -90.7227 l 6
 98.4707 -75.4434 95.6064 -57.2979 95.6064 -37.2441 c 6
 95.6064 554.84 l 6
 95.6064 574.896 98.4707 593.039 113.751 609.274 c 6
 231.214 716.231 l 5
 231.214 717.187 l 6
 240.764 726.736 250.312 734.376 263.682 734.376 c 4
181.555 -27.6943 m 5
 181.555 -37.2441 l 5
 206.383 -13.3701 l 5
 183.465 -13.3701 l 5
 181.555 -27.6943 l 5
181.555 545.29 m 5
 183.465 530.966 l 5
 206.383 530.966 l 5
 181.555 554.84 l 5
 181.555 545.29 l 5
EndSplineSet
Fore
SplineSet
180.208 -45.8936 m 6
 180.208 -75.4971 186.893 -86.957 201.217 -107.968 c 5
 203.127 -109.877 l 5
 280.48 -191.049 l 5
 283.346 -195.823 283.346 -199.645 283.346 -201.555 c 4
 283.346 -211.333 276.12 -218.744 260.426 -218.744 c 4
 253.74 -218.744 242.281 -217.789 228.912 -201.555 c 5
 110.495 -93.6426 l 6
 103.811 -86.002 90.4404 -71.6777 90.4404 -39.208 c 6
 90.4404 553.325 l 6
 90.4404 585.795 103.811 600.119 110.495 607.76 c 6
 228.912 715.672 l 5
 242.281 731.906 253.74 732.861 260.426 732.861 c 4
 276.12 732.861 283.346 725.45 283.346 715.672 c 4
 283.346 713.762 283.346 709.94 280.48 705.166 c 5
 203.127 623.994 l 5
 201.217 622.085 l 5
 186.893 601.074 180.208 589.614 180.208 560.011 c 6
 180.208 -45.8936 l 6
EndSplineSet
Validated: 1
EndChar

StartChar: cedilla
Encoding: 184 184 210
Width: 452
VWidth: 0
Flags: W
HStem: -215.877 53.532<148.869 247.124> -93.6406 44.9375<168.107 247.08>
VStem: 121.15 46.85<-47.5957 0> 248.162 46.849<-162.13 -95.2007>
LayerCount: 3
Fore
SplineSet
222.937 -48.7471 m 4
 270.042 -48.7471 295.011 -76.6211 295.011 -116.056 c 6
 295.011 -138.976 l 6
 295.011 -177.545 270.24 -215.877 222.882 -215.877 c 4
 203.271 -215.877 155.907 -199.312 116.377 -179.12 c 5
 116.377 -162.345 l 5
 232.793 -162.345 l 5
 241.276 -162.345 248.162 -154.87 248.162 -145.66 c 6
 248.162 -109.371 l 6
 248.162 -100.688 241.115 -93.6406 232.432 -93.6406 c 6
 178 -93.6406 l 6
 152.052 -93.6406 121.15 -71.3223 121.15 -38.7031 c 6
 121.15 0 l 5
 168 0 l 5
 168 -48.7031 l 5
 222.937 -48.7471 l 4
EndSplineSet
Validated: 1
EndChar

StartChar: Ccedilla
Encoding: 199 199 211
Width: 540
VWidth: 0
Flags: W
HStem: -212.12 47.12<252.247 367.237> -97.0713 54.0527<305.297 367.237> 1.79785 102.464<185.587 248.745 304.697 482.951> 575.242 100.668<185.587 474.221>
VStem: 80.667 101.565<107.557 572.368> 248.745 55.952<-43.916 1.79785> 368 56.24<-163.465 -97.1456>
LayerCount: 3
Fore
SplineSet
251 -165 m 1
 350 -165 l 2
 359.875 -165.489 368 -157.685 368 -146 c 2
 368.289 -116.846 l 2
 368.36 -109.655 365.592 -97.0713 349.412 -97.0713 c 2
 319.08 -97.0713 l 2
 295.71 -97.0713 248.745 -79.0957 248.745 -49.4355 c 2
 248.745 1.79785 l 1
 220.882 1.79785 l 2
 142.685 1.79785 80.667 64.7148 80.667 142.911 c 2
 80.667 537.491 l 2
 80.667 614.79 142.685 675.91 220.882 675.91 c 2
 426.039 675.91 l 2
 472.776 675.91 498.842 629.171 505.135 585.129 c 2
 506.932 575.242 l 1
 208.3 575.242 l 2
 193.918 575.242 182.232 564.456 182.232 550.075 c 2
 182.232 129.43 l 2
 182.232 115.947 193.918 104.262 208.3 104.262 c 2
 517.718 104.262 l 1
 515.919 93.4775 l 2
 508.729 52.1309 481.765 1.79785 438.623 1.79785 c 2
 304.697 1.79785 l 1
 304.697 -43.916 l 1
 318.182 -43.916 l 2
 319.978 -43.916 355.931 -43.0186 361.324 -43.0186 c 0
 404.467 -43.0186 424.24 -88.083 424.24 -122.238 c 2
 424.24 -143.811 l 2
 424.24 -179.763 404.467 -212.12 361.324 -212.12 c 0
 342.447 -212.12 277 -210 251 -192 c 9
 251 -165 l 1
EndSplineSet
Validated: 33
EndChar

StartChar: ccedilla
Encoding: 231 231 212
Width: 558
VWidth: 0
Flags: W
HStem: -215.877 53.532<283.869 382.124> -93.6406 44.9375<303.107 382.08> 0 90.7227<192.462 256.15 303 472.557> 396.314 86.903<190.445 473.992>
VStem: 97.4072 89.7678<94.587 391.459> 256.15 46.85<-47.5957 -38.7031 -38.7031 0> 383.162 46.849<-162.13 -95.2007>
LayerCount: 3
Fore
SplineSet
303 0 m 1
 303 -48.7031 l 1
 357.937 -48.7471 l 0
 405.042 -48.7471 430.011 -76.6211 430.011 -116.056 c 2
 430.011 -138.976 l 2
 430.011 -177.545 405.24 -215.877 357.882 -215.877 c 0
 338.271 -215.877 290.907 -199.312 251.377 -179.12 c 1
 251.377 -162.345 l 1
 367.793 -162.345 l 1
 376.276 -162.345 383.162 -154.87 383.162 -145.66 c 2
 383.162 -109.371 l 2
 383.162 -100.688 376.115 -93.6406 367.432 -93.6406 c 2
 313 -93.6406 l 2
 287.052 -93.6406 256.15 -71.3223 256.15 -38.7031 c 2
 256.15 0 l 1
 236.834 -0.0898438 l 2
 142.291 3.72949 97.4072 66.8477 97.4072 141.336 c 2
 97.4072 345.701 l 2
 97.4072 425.919 148.021 483.217 242.564 483.217 c 2
 422.1 483.217 l 2
 478.441 483.217 497.542 429.738 504.228 396.314 c 1
 223.465 396.314 l 2
 202.455 396.314 187.175 380.08 187.175 360.98 c 2
 187.175 126.058 l 2
 187.175 106.002 202.455 90.7227 223.465 90.7227 c 2
 504.228 90.7227 l 1
 497.542 57.2979 478.441 -0.0898438 422.1 -0.0898438 c 2
 303 0 l 1
EndSplineSet
Validated: 1
EndChar

StartChar: numbersign
Encoding: 35 35 213
Width: 671
VWidth: 0
Flags: W
HStem: -0.125977 21G<139.237 194.625 419.044 442.919> 213.789 48.703<73.4444 168.842 264.339 417.135 512.633 607.39> 424.838 48.704<102.399 197.49 292.033 445.784 540.326 635.442>
VStem: 227.094 89.768<604.275 685.716>
LayerCount: 3
Fore
SplineSet
445.784 424.838 m 5
 285.348 424.838 l 5
 264.339 262.492 l 5
 423.818 262.492 l 5
 445.784 424.838 l 5
280.572 697.007 m 4
 302.537 697.007 316.862 682.682 316.862 663.582 c 4
 316.862 661.672 316.862 658.808 316.862 657.853 c 6
 292.033 473.542 l 5
 451.514 473.542 l 5
 475.389 652.122 l 6
 479.209 675.042 502.127 697.007 528.866 697.007 c 6
 569.931 697.007 l 5
 540.326 473.542 l 5
 618.635 473.542 l 6
 628.185 473.542 636.778 466.857 636.778 455.397 c 4
 636.778 454.441 636.778 455.397 636.778 453.487 c 6
 636.778 451.577 l 6
 633.914 436.299 619.589 424.838 605.264 424.838 c 6
 533.641 424.838 l 5
 512.633 262.492 l 5
 589.985 262.492 l 6
 600.489 262.492 609.084 254.854 609.084 245.304 c 4
 609.084 243.394 609.084 244.348 609.084 242.438 c 6
 608.13 239.572 l 6
 607.174 225.248 590.94 213.789 576.615 213.789 c 6
 504.992 213.789 l 5
 483.028 44.7578 l 6
 480.163 21.8389 456.288 -0.125977 429.55 -0.125977 c 4
 408.539 -0.125977 393.261 14.1992 393.261 33.2979 c 4
 393.261 35.208 393.261 38.0732 394.215 39.0273 c 6
 417.135 213.789 l 5
 256.698 213.789 l 5
 234.734 44.7578 l 6
 231.869 21.8389 207.995 -0.125977 181.256 -0.125977 c 6
 139.237 -0.125977 l 5
 168.842 213.789 l 5
 91.4883 213.789 l 6
 80.0273 213.789 72.3877 220.473 72.3877 230.022 c 4
 72.3877 231.933 72.3877 233.843 72.3877 233.843 c 5
 72.3877 235.753 l 6
 74.2979 251.033 88.623 262.492 102.948 262.492 c 6
 175.525 262.492 l 5
 197.49 424.838 l 5
 118.227 424.838 l 6
 107.723 424.838 101.038 430.567 101.038 442.028 c 4
 101.038 442.982 101.038 443.938 101.038 443.938 c 5
 101.038 445.848 l 6
 102.948 462.083 117.272 473.542 131.597 473.542 c 6
 203.22 473.542 l 5
 227.094 652.122 l 6
 230.914 675.042 253.834 697.007 280.572 697.007 c 4
EndSplineSet
EndChar

StartChar: dollar
Encoding: 36 36 214
Width: 591
VWidth: 0
Flags: W
HStem: -95.5781 21G<242.717 277.818> -0.0810547 78.3077<63.0417 242.717 288.322 384.377> 296.916 89.769<145.679 384.882> 618.743 79.264<143.054 246.717 288.322 442.145>
VStem: 51.4883 87.8577<391.005 615.738> 242.717 45.605<-95.5781 -0.0810547 698.007 789.683> 389.01 87.856<84.9147 114.517 114.517 293.07>
LayerCount: 3
Fore
SplineSet
288.322 789.683 m 1
 288.322 698.007 l 1
 388.594 698.007 l 2
 430.613 697.052 458.308 675.086 463.083 618.743 c 1
 175.635 618.743 l 2
 154.625 618.743 139.346 602.509 139.346 582.455 c 2
 139.346 422.018 l 2
 139.346 415.334 146.985 386.685 175.635 386.685 c 2
 365.135 386.685 l 2
 438.667 386.685 476.866 329.387 476.866 267.312 c 2
 476.866 111.65 l 2
 476.866 35.2529 434.848 -0.0810547 351.766 -0.0810547 c 2
 288.322 -0.0810547 l 1
 288.322 -81.2529 l 2
 288.322 -89.8477 281.638 -95.5781 273.997 -95.5781 c 2
 242.717 -95.5781 l 5
 242.717 -0.0810547 l 5
 108.392 -0.0810547 l 2
 73.0576 -0.0810547 51.0928 19.9736 46.3174 78.2266 c 1
 351.766 78.2266 l 2
 360.359 78.2266 389.01 85.8672 389.01 114.517 c 2
 389.01 262.537 l 2
 389.01 281.638 370.864 296.916 351.766 296.916 c 2
 163.22 296.916 l 2
 99.2373 296.916 51.4883 340.845 51.4883 399.1 c 2
 51.4883 609.193 l 2
 52.4434 655.987 87.7764 698.007 163.22 698.007 c 2
 246.717 698.007 l 1
 246.717 775.359 l 2
 246.717 783.953 253.402 789.683 261.997 789.683 c 2
 288.322 789.683 l 1
EndSplineSet
Validated: 1
EndChar

StartChar: Euro
Encoding: 8364 8364 215
Width: 540
VWidth: 0
Flags: W
HStem: 1.91016 88.8125<208.502 505.879> 241 49<49 113.929 203.696 371> 401 49<49 113.929 203.696 389> 610.229 88.813<208.502 494.452>
VStem: 113.929 89.767<96.1127 241 290 401 450 604.838>
LayerCount: 3
Back
SplineSet
256.889 698.007 m 6
 453.613 698.007 l 6
 495.633 697.052 521.416 655.032 529.057 609.193 c 5
 243.52 609.193 l 6
 224.419 609.193 206.273 593.914 206.273 572.904 c 6
 206.273 449.712 l 5
 364.801 449.712 l 6
 366.711 449.712 370.53 449.712 370.53 449.712 c 6
 380.08 446.848 386.766 440.163 389.63 430.613 c 4
 389.63 429.658 389.63 430.613 389.63 424.884 c 6
 389.63 401.01 l 5
 206.273 401.01 l 5
 206.273 288.322 l 5
 389.63 288.322 l 5
 389.63 263.492 l 5
 389.63 263.492 389.63 262.537 389.63 258.717 c 4
 386.766 249.168 380.08 242.483 370.53 239.618 c 4
 368.62 239.618 370.53 239.618 364.801 239.618 c 6
 206.273 239.618 l 5
 206.273 125.976 l 6
 206.273 106.877 221.555 89.6865 243.52 89.6865 c 6
 540.516 89.6865 l 5
 532.876 44.8027 505.182 0.874023 466.982 0.874023 c 6
 256.889 0.874023 l 6
 179.535 0.874023 118.417 61.9932 118.417 139.346 c 6
 118.417 239.618 l 5
 72.5781 239.618 l 6
 65.8936 239.618 56.3447 242.483 49.6592 254.896 c 4
 49.6592 255.854 l 6
 48.7031 258.717 48.7031 261.582 48.7031 263.492 c 6
 48.7031 288.322 l 5
 118.417 288.322 l 5
 118.417 401.01 l 5
 48.7031 401.01 l 5
 48.7031 424.884 l 6
 48.7031 429.658 48.7031 429.658 49.6592 431.567 c 4
 49.6592 434.434 49.6592 434.434 49.6592 434.434 c 6
 53.4785 443.982 63.0273 449.712 72.5781 449.712 c 6
 118.417 449.712 l 5
 118.417 559.534 l 6
 118.417 636.887 179.535 698.007 256.889 698.007 c 6
529.057 609.193 m 5
 529.057 602.509 530.012 595.823 530.012 588.185 c 4
 530.012 587.229 530.012 587.229 530.012 586.274 c 5
 553.886 609.193 l 5
 529.057 609.193 l 5
EndSplineSet
Fore
SplineSet
253.355 699.042 m 2
 451.035 699.042 l 2
 491.144 698.086 518.838 655.112 524.567 610.229 c 1
 239.985 610.229 l 2
 218.976 610.229 203.696 593.994 203.696 573.94 c 2
 203.696 450 l 1
 371 450 l 2
 382.5 449 389 440.5 389 432 c 2
 389 401 l 1
 203.696 401 l 1
 203.696 290 l 1
 389 290 l 1
 389 259 l 2
 389 250.5 382.5 242 371 241 c 2
 203.696 241 l 1
 203.696 126.058 l 2
 203.696 106.957 218.976 90.7227 239.985 90.7227 c 2
 536.982 90.7227 l 1
 528.389 45.8389 500.692 1.91016 462.494 1.91016 c 2
 253.355 1.91016 l 2
 176.002 1.91016 113.929 63.0273 113.929 141.336 c 2
 113.929 241 l 1
 72 241 l 2
 59.2627 241 49 249.169 49 261 c 2
 49 290 l 1
 113.929 290 l 1
 113.929 401 l 1
 49 401 l 1
 49 430 l 2
 49 441.831 59.2627 450 72 450 c 2
 113.929 450 l 1
 113.929 559.615 l 2
 113.929 637.923 176.002 699.042 253.355 699.042 c 2
EndSplineSet
Validated: 1
EndChar

StartChar: percent
Encoding: 37 37 216
Width: 805
VWidth: 0
Flags: W
HStem: 1.87402 72.5244<532.539 676.775> 275.502 73.478<532.596 676.721> 341.874 72.524<136.944 281.18> 625.502 73.478<136.999 158.149 158.155 281.124>
VStem: 62.209 73.479<416.61 448.326 448.326 625.13> 282.496 76.901<416.61 625.13> 454.322 76.901<74.5174 105.345 105.345 274.765> 678.032 73.478<74.517 274.765>
LayerCount: 3
Fore
SplineSet
135.688 437.822 m 2xbf
 135.688 418.765 149.168 414.398 158.155 414.398 c 2
 258.98 414.398 l 2
 267.16 414.398 282.496 419.083 282.496 437.822 c 2
 282.496 603.033 l 2
 282.496 616.791 275.473 625.087 258.843 625.504 c 2
 158.155 625.502 l 2
 158.154 635.502 158.151 635.502 158.149 625.502 c 0
 145.848 625.502 135.802 615.615 135.688 603.287 c 2
 135.688 437.822 l 2xbf
168.66 698.98 m 2
 247.987 698.98 l 2
 309.535 698.98 359.397 652.488 359.397 593.483 c 2
 359.397 448.326 l 2
 359.397 389.371 309.687 341.874 247.987 341.874 c 2
 168.66 341.874 l 2
 109.705 341.874 62.209 389.372 62.209 448.326 c 2
 62.209 593.483 l 2
 62.209 652.489 109.853 698.98 168.66 698.98 c 2
531.223 96.7129 m 2
 531.223 78.5576 545.332 74.3984 554.738 74.3984 c 2
 655.562 74.3984 l 2
 663.379 74.3984 678.032 78.8613 678.032 96.7129 c 2
 678.032 254.098 l 2
 678.032 267.204 671.321 275.106 655.432 275.504 c 2
 554.738 275.502 l 2
 554.737 275.502 554.734 275.502 554.732 275.502 c 0xdf
 541.857 275.502 531.343 266.084 531.223 254.34 c 2
 531.223 96.7129 l 2
565.732 348.98 m 2
 645.059 348.98 l 2
 703.867 348.98 751.51 303.79 751.51 246.438 c 2
 751.51 105.345 l 2
 751.51 48.041 704.013 1.87402 645.059 1.87402 c 2
 565.732 1.87402 l 2
 504.031 1.87402 454.322 48.042 454.322 105.345 c 2
 454.322 246.438 l 2
 454.322 303.791 504.185 348.98 565.732 348.98 c 2
598.647 713.213 m 5
 193.951 28.3828 l 5
 239.926 3.84766 l 5
 644.622 688.262 l 5
 598.647 713.213 l 5
EndSplineSet
Validated: 41
EndChar

StartChar: ampersand
Encoding: 38 38 217
Width: 643
VWidth: 0
Flags: W
HStem: 2.87402 88.8125<158.833 425.313> 207.744 56.793<377.624 430.118 519.886 577.544> 365.314 83.165<195.685 282.523> 623.608 79.263<170.457 435.108>
VStem: 63.4072 89.7678<96.112 140.392 140.392 361.276> 80.5967 87.8583<451.892 621.817> 430.118 89.768<96.9642 207.744>
LayerCount: 3
Fore
SplineSet
283.053 420.784 m 2xf6
 283.053 365.314 l 1
 189.465 365.314 l 2
 168.455 365.314 153.175 347.17 153.175 329.98 c 2
 153.175 127.021 l 2
 153.175 105.058 171.32 91.6865 189.465 91.6865 c 2
 394.784 91.6865 l 2
 414.838 91.6865 430.118 107.922 430.118 127.976 c 2
 430.118 207.744 l 1
 404.334 207.744 l 2
 390.964 207.744 376.414 223.248 376.414 235.663 c 0
 376.414 249.033 390.964 264.537 404.334 264.537 c 2
 586.733 264.537 l 1
 584.823 234.933 573.364 211.564 544.715 207.744 c 2
 519.886 207.744 l 1
 519.886 141.346 l 2
 519.887 64.9482 457.812 2.87402 380.46 2.87402 c 2
 203.789 2.87402 l 2
 126.436 2.87402 63.4072 63.9932 63.4072 140.392 c 2
 63.4072 327.566 l 2xfa
 63.4072 362 96.4414 399.787 159 405 c 2
 195 408 l 1
 160 412 l 2
 141.094 414.161 80.5967 442 80.5967 487.047 c 2
 80.5967 619.788 l 2
 82.5068 665.628 119.751 702.871 193.284 702.871 c 2
 381.414 702.871 l 2
 423.434 700.961 451.127 679.952 456.857 623.608 c 1
 200.744 623.608 l 2
 181.733 622.116 168.455 613.999 168.455 591.914 c 2
 168.455 484.767 l 2
 168.455 463.758 185.645 448.479 205.698 448.479 c 2
 254.402 448.479 l 2
 271.5 448.479 283.053 437 283.053 420.784 c 2xf6
EndSplineSet
Validated: 1
EndChar

StartChar: OE
Encoding: 338 338 218
Width: 830
VWidth: 0
Flags: W
HStem: 23.874 88.813<211.449 393.449 482.263 730.891> 319.916 88.813<482.263 680.699> 632.193 88.814<211.449 393.449 482.263 708.788>
VStem: 116.507 88.813<117.964 162.346 162.346 626.916> 393.449 88.814<112.687 319.916 408.729 632.193>
LayerCount: 3
Fore
SplineSet
255.933 721.007 m 2
 715.276 721.007 l 1
 715.276 677.078 l 2
 715.276 651.294 695.222 632.193 670.393 632.193 c 2
 482.263 632.193 l 1
 482.263 408.729 l 1
 641.743 408.729 l 2
 670.393 405.864 687.582 387.72 687.582 363.845 c 0
 687.582 329.466 653.204 320.871 641.743 319.916 c 1
 482.263 319.916 l 1
 482.263 112.687 l 1
 692.357 112.687 l 2
 720.052 109.822 737.24 91.6777 737.24 67.8027 c 0
 737.24 43.9287 718.142 24.8281 692.357 23.874 c 2
 255.933 23.874 l 2
 179.535 23.874 116.507 85.9482 116.507 162.346 c 2
 116.507 582.534 l 2
 116.507 658.933 179.535 721.007 255.933 721.007 c 2
393.449 632.193 m 1
 242.564 632.193 l 2
 221.555 632.193 205.32 615.959 205.32 595.904 c 2
 205.32 148.976 l 2
 205.32 128.922 221.555 112.687 242.564 112.687 c 2
 393.449 112.687 l 1
 393.449 632.193 l 1
EndSplineSet
Validated: 1
EndChar

StartChar: oe
Encoding: 339 339 219
Width: 848
VWidth: 0
Flags: W
HStem: 22.9189 87.8571<192.833 370.378 473.76 689.373> 238.744 39.152<464.118 688.537> 409.685 87.857<192.833 369.969 473.464 676.759>
VStem: 97.4072 89.7678<117.964 162.346 162.346 402.969> 374.351 89.767<139.779 238.744 277.896 400.423> 688.537 88.813<277.896 376.946>
LayerCount: 3
Fore
SplineSet
237.789 497.542 m 2
 324.691 497.542 l 2
 354.295 497.542 381.99 487.992 405.864 471.758 c 2
 419.234 462.209 l 1
 433.559 471.758 l 2
 456.479 487.992 483.217 497.542 514.731 497.542 c 2
 638.879 497.542 l 2
 715.276 497.542 777.35 435.468 777.35 358.115 c 2
 777.35 238.744 l 1
 464.118 238.744 l 1
 464.118 161.392 l 2
 466.028 148.021 466.028 147.066 468.892 139.426 c 0
 476.532 123.192 494.677 110.776 511.866 110.776 c 2
 726.736 110.776 l 1
 718.142 51.5693 677.078 22.9189 602.589 22.9189 c 2
 511.866 22.9189 l 2
 479.397 22.9189 452.658 32.4697 430.692 47.749 c 2
 418.279 58.2529 l 1
 402.999 48.7031 l 2
 381.035 33.4238 354.295 23.874 324.691 23.874 c 2
 237.789 23.874 l 2
 160.436 23.874 97.4072 85.9482 97.4072 162.346 c 2
 97.4072 358.115 l 2
 97.4072 435.468 160.436 497.542 237.789 497.542 c 2
639.833 409.685 m 1
 511.866 409.685 l 2
 507.091 409.685 501.362 408.729 495.633 405.864 c 0
 478.441 399.179 469.848 383.9 467.938 377.215 c 0
 466.982 374.351 466.982 371.485 464.118 360.98 c 1
 464.118 277.896 l 1
 688.537 277.896 l 1
 688.537 360.98 l 2
 688.537 364.801 687.582 371.485 685.672 377.215 c 0
 678.032 395.359 663.707 402.044 657.022 405.864 c 0
 654.158 406.818 634.104 410.64 639.833 409.685 c 1
338.062 408.729 m 2
 223.465 408.729 l 2
 202.455 408.729 187.175 392.494 187.175 372.44 c 2
 187.175 148.976 l 2
 187.175 128.922 202.455 112.687 223.465 112.687 c 2
 338.062 112.687 l 2
 358.115 112.687 374.351 128.922 374.351 148.976 c 2
 374.351 372.44 l 2
 374.351 392.494 358.115 408.729 338.062 408.729 c 2
EndSplineSet
Validated: 37
EndChar

StartChar: ae
Encoding: 230 230 220
Width: 786
VWidth: 0
Flags: W
HStem: 0 85.9482<457.297 652.417> 0.954102 92.6328<148.86 239.275> 215.823 76.399<148.681 309.406> 221.555 46.793<346.128 361.035 448.892 647.527> 392.494 88.814<167.057 357.325> 400.135 81.173<457.4 638.86>
VStem: 57.3525 88.8135<99.2942 212.366> 361.035 87.857<94.4327 215.823 268.348 388.254> 647.527 88.814<268.348 390.417>
LayerCount: 3
Fore
SplineSet
361.035 215.823 m 5x2380
 182.455 215.823 l 6
 162.399 215.823 146.166 201.5 146.166 180.49 c 6
 146.166 129.877 l 6
 146.166 100.272 174.815 93.5869 182.455 93.5869 c 6
 361.035 93.5869 l 5
 361.035 215.823 l 5x2380
599.778 400.135 m 6x1780
 497.597 400.135 l 6
 470.712 400.135 448.892 378.315 448.892 351.431 c 6
 448.892 268.348 l 5
 647.527 268.348 l 5
 647.527 351.431 l 6
 647.527 378.315 626.136 400.135 599.778 400.135 c 6x1780
497.597 85.9482 m 6x9780
 686.682 85.9482 l 5
 679.042 32.4697 647.527 0 567.31 0 c 6
 503.326 0 l 6x9780
 405.919 0 400.189 21.0088 348.62 51.5693 c 6
 339.07 56.3447 l 5
 193.914 7.63965 l 6
 176.725 1.91016 162.399 0.954102 149.985 0.954102 c 4
 75.4971 0.954102 57.3525 64.9375 57.3525 120.326 c 6
 57.3525 210.094 l 6
 57.3525 258.798 80.2725 292.222 147.121 292.222 c 4
 161.445 292.222 178.413 290.079 195.823 287.447 c 6
 361.035 262.473 l 5
 361.035 357.16 l 6
 361.035 371.485 346.711 391.539 324.746 392.494 c 5
 146.166 392.494 l 5
 149.985 427.829 162.399 481.308 207.284 481.308 c 6
 275.088 481.308 l 6x6b80
 321.881 481.308 358.17 469.848 385.864 450.748 c 6
 400.189 440.243 l 5
 413.559 450.748 l 6
 437.434 469.848 467.037 481.308 499.507 481.308 c 6
 596.914 481.308 l 6
 675.222 481.308 736.341 419.234 736.341 342.837 c 6
 736.341 221.555 l 5
 448.892 221.555 l 5
 448.892 135.606 l 6
 448.892 108.195 470.712 85.9482 497.597 85.9482 c 6x9780
EndSplineSet
Validated: 1
EndChar

StartChar: AE
Encoding: 198 198 221
Width: 938
VWidth: 0
Flags: W
HStem: 1.83496 86.2119<543.135 882.349> 198 80<252 457.839> 286.153 85.296<543.135 797.188> 586.981 84.519<420.151 457.839 543.135 862.799>
VStem: 457.839 85.296<88.0469 198 278 286.153 371.449 585>
LayerCount: 3
Fore
SplineSet
457.839 278 m 1
 457.839 585 l 1
 443.667 584.333 425.168 577.693 413.5 557.5 c 2
 252 278 l 1
 457.839 278 l 1
867.809 671.36 m 5
 867.809 629.17 l 2
 867.809 605.324 849.466 586.981 824.701 586.981 c 2
 543.135 586.981 l 1
 543.135 371.449 l 1
 797.188 371.449 l 2
 824.701 368.698 841.211 352.189 841.211 329.261 c 0
 841.211 295.324 807.277 287.988 797.188 286.153 c 1
 543.135 286.153 l 1
 543.135 88.0469 l 1
 845.798 88.0469 l 2
 871.478 86.2139 888.903 68.7871 888.903 45.8584 c 0
 888.903 22.0117 870.56 4.58594 845.798 1.83496 c 2
 457.839 1.83496 l 1
 457.839 198 l 1
 216 198 l 1
 112.071 29.3496 l 2
 94.8223 1.3584 67.1299 -1.83496 55.207 -1.83496 c 0
 25.8584 -1.83496 2.92871 14.6738 2.92871 40.3555 c 0
 2.92871 47.6924 5.67969 56.8633 11.1836 69.7041 c 2
 338.608 610.827 l 2
 356.031 636.503 401.983 671.5 443.975 671.5 c 0
 444 671.5 l 2
 867.809 671.36 l 5
EndSplineSet
Validated: 1
EndChar

StartChar: asciitilde
Encoding: 126 126 222
Width: 537
VWidth: 0
Flags: W
HStem: 169.426 106.957<301.593 407.981> 257.284 106.002<127.358 234.311>
LayerCount: 3
Fore
SplineSet
172.85 257.284 m 4x40
 133.563 257.284 72.1455 195.716 59.208 195.716 c 4
 43.9287 195.716 26.7393 216.725 26.7393 233.914 c 4
 26.7393 239.645 29.3242 243.704 33.4238 248.239 c 6
 41.999 257.727 l 5
 43.543 259.365 l 5
 107.526 331.943 148.021 363.286 173.806 363.286 c 6
 177.625 363.286 l 6x40
 263.572 352.781 268.512 293.572 358.279 276.383 c 4
 362.1 276.383 l 4
 404.009 276.383 460.882 336.997 475.741 336.997 c 4
 491.976 336.997 509.165 315.988 509.165 298.798 c 4
 509.165 294.022 506.424 289.146 502.48 284.473 c 6
 495.332 276.001 l 5
 491.994 272.334 l 5
 426.101 200.711 387.884 169.426 361.144 169.426 c 6
 358.279 169.426 l 5x80
 272.331 181.842 267.394 239.14 177.625 257.284 c 4
 172.85 257.284 l 4x40
EndSplineSet
EndChar

StartChar: germandbls
Encoding: 223 223 226
Width: 612
VWidth: 0
Flags: W
HStem: 23.8735 88.8135<273.736 409.896> 334.241 74.488<153.175 383.444> 645.562 74.49<156.909 382.857>
VStem: 63.4072 89.7678<-195.414 334.241 408.729 641.943> 387.144 88.813<411.767 639.159> 412.928 87.858<116.101 148.976 148.976 330.474>
LayerCount: 3
Fore
SplineSet
153.175 408.729 m 1xf8
 349.9 408.729 l 2
 370.909 408.729 387.144 424.01 387.144 444.062 c 2
 387.144 609.274 l 2
 387.144 638.879 357.539 645.562 349.9 645.562 c 2
 189.465 645.562 l 2
 166.545 645.562 153.175 628.373 153.175 607.364 c 1
 153.175 408.729 l 1xf8
475.957 439.375 m 2
 475.957 439.318 l 0xf8
 475.957 409.956 453.982 376.314 437.758 376.314 c 1
 413.884 372.44 l 1
 437.758 368.566 l 1
 462.587 368.566 500.786 318.963 500.786 288.402 c 2
 500.786 135.606 l 2
 500.786 63.0273 433.938 23.874 382.369 23.874 c 2
 305.017 23.874 l 17
 304.961 23.8737 304.905 23.8735 304.849 23.8735 c 0
 270.377 23.8735 254.395 87.1233 254.395 111.785 c 0
 254.395 112.092 254.397 112.392 254.402 112.687 c 1
 375.685 112.687 l 2
 395.738 112.687 412.928 127.968 412.928 148.976 c 2
 412.928 297.952 l 2xf4
 412.928 305.592 405.288 334.241 375.685 334.241 c 2
 153.175 334.241 l 1
 153.175 -161.392 l 2
 153.175 -186.167 133.066 -200.275 108.291 -200.275 c 0
 83.5156 -200.275 63.4072 -186.167 63.4072 -161.392 c 2
 63.4072 609.274 l 2
 63.4072 677.078 114.976 720.052 190.419 720.052 c 2
 349.9 720.052 l 2
 433.938 720.052 475.883 673.258 475.957 601.635 c 2
 475.957 439.375 l 2
EndSplineSet
Validated: 1
EndChar

StartChar: bracketleft
Encoding: 91 91 227
Width: 328
Flags: W
HStem: -156 46<214.5 246> 686 46<214.5 246>
VStem: 72 84<-90 666> 72 174<-156 -110 686 732>
LayerCount: 3
Fore
SplineSet
72 732 m 1xd0
 246 732 l 1
 246 686 l 1xd0
 156 666 l 1
 156 -90 l 1xe0
 246 -110 l 5
 246 -156 l 1
 72 -156 l 1
 72 732 l 1xd0
EndSplineSet
Validated: 1
EndChar

StartChar: bracketright
Encoding: 93 93 228
Width: 280
Flags: W
HStem: -156 46<32 63.5> 686 46<32 63.5>
VStem: 32 174<-156 -110 686 732> 122 84<-90 666>
LayerCount: 3
Fore
SplineSet
32 -110 m 5xe0
 122 -90 l 1
 122 666 l 1xd0
 32 686 l 1
 32 732 l 1
 206 732 l 1
 206 -156 l 1
 32 -156 l 1
 32 -110 l 5xe0
EndSplineSet
Validated: 1
EndChar

StartChar: backslash
Encoding: 92 92 229
Width: 391
Flags: W
LayerCount: 3
Fore
SplineSet
0 726 m 1
 69 752 l 1
 389 -18 l 1
 319 -44 l 1
 0 726 l 1
EndSplineSet
Validated: 1
EndChar

StartChar: asciicircum
Encoding: 94 94 230
Width: 667
Flags: W
LayerCount: 3
Fore
SplineSet
293 708 m 1
 373 708 l 1
 586 346 l 5
 503 346 l 5
 333 629 l 1
 163 346 l 5
 80 346 l 5
 293 708 l 1
EndSplineSet
Validated: 1
EndChar

StartChar: underscore
Encoding: 95 95 231
Width: 502
Flags: W
HStem: -125 50<0 500>
LayerCount: 3
Fore
SplineSet
0 -75 m 1
 500 -75 l 1
 500 -125 l 1
 0 -125 l 1
 0 -75 l 1
EndSplineSet
Validated: 1
EndChar

StartChar: registered
Encoding: 174 174 232
Width: 796
Flags: W
HStem: -18 66<289.401 511.867> 313.979 65.7471<325.209 413.536> 507.311 66.3389<325.209 459.231> 660 66<288.133 510.599>
VStem: 28 66<242.133 464.599> 260.057 65.1523<130.73 313.979 379.727 507.311> 460.503 65.7471<380.017 396.668 396.668 507.039> 706 66<243.401 465.867>
LayerCount: 3
Fore
SplineSet
400 660 m 260
 229.011 660 94 521.523 94 354 c 260
 94 183.011 232.477 48 400 48 c 260
 570.989 48 706 186.477 706 354 c 260
 706 524.989 567.523 660 400 660 c 260
400 -18 m 260
 197.289 -18 28 148.31 28 354 c 260
 28 556.711 194.31 726 400 726 c 260
 602.711 726 772 559.69 772 354 c 260
 772 151.289 605.69 -18 400 -18 c 260
442.968 573.649 m 2
 494.806 573.649 526.25 540.25 526.25 494.52 c 2
 526.25 389.552 l 2
 526.25 375.205 521.84 345.346 488.168 325.92 c 2
 480.691 321.59 l 1
 554.283 143.544 l 1
 525.512 128.105 l 1
 524.994 127.958 l 2
 522.323 127.195 517.695 125.394 512.946 125.394 c 0
 500.026 125.394 488.33 133.753 483.418 145.68 c 2
 413.536 313.979 l 1
 325.209 313.979 l 1
 325.209 130.73 l 1
 260.057 130.73 l 1
 260.057 573.649 l 1
 442.968 573.649 l 2
442.968 507.311 m 2
 325.209 507.311 l 1
 325.209 379.727 l 1
 442.968 379.727 l 2
 452.21 379.727 460.503 387.208 460.503 396.668 c 2
 460.503 490.368 l 2
 460.503 503.985 446.191 507.311 442.968 507.311 c 2
EndSplineSet
Validated: 1
EndChar

StartChar: copyright
Encoding: 169 169 233
Width: 796
Flags: W
HStem: -18 66<289.401 511.867> 155.987 69.5234<304.188 486.092> 461.983 71.0512<301.327 528.469> 660 66<288.133 510.599>
VStem: 28 66<242.133 464.599> 227.965 71.0505<229.534 266.001 266.001 458.945> 706 66<243.401 465.867>
LayerCount: 3
Fore
SplineSet
400 660 m 256
 229.011 660 94 521.523 94 354 c 256
 94 183.011 232.477 48 400 48 c 256
 570.989 48 706 186.477 706 354 c 256
 706 524.989 567.523 660 400 660 c 256
400 -18 m 256
 197.289 -18 28 148.31 28 354 c 256
 28 556.711 194.31 726 400 726 c 256
 602.711 726 772 559.69 772 354 c 256
 772 151.289 605.69 -18 400 -18 c 256
EndSplineSet
Refer: 24 99 S 0.8 0 0 0.8 200.462 155.224 2
EndChar

StartChar: uni02C9
Encoding: 713 713 234
Width: 238
Flags: W
HStem: 600 66<-24 264>
VStem: -24 288<600 666>
LayerCount: 3
Fore
SplineSet
264 600 m 1
 -24 600 l 1
 -24 666 l 1
 264 666 l 1
 264 600 l 1
EndSplineSet
Validated: 1
EndChar

StartChar: at
Encoding: 64 64 235
Width: 802
VWidth: 14
Flags: W
HStem: -111 80<131.534 595> 24.5479 93.8877<299.669 425.942> 30 80<587.438 672.905> 189.782 81.458<299.669 482.3> 189.782 58.1621<434.045 495.143> 324.311 91.6934<294.969 492.26> 513 80<132.017 672.712>
VStem: 50 80<-30.8469 512.847> 207.375 92.2939<118.464 189.782> 495.143 92.2949<118.436 189.782 247.944 321.491> 674 80<110.419 510.94>
LayerCount: 3
Back
SplineSet
747 122 m 6
 747 482 l 6
 747 495.333 744.5 507.5 739.5 518.5 c 132
 734.5 529.5 727.667 539.333 719 548 c 132
 710.333 556.667 700 563.333 688 568 c 132
 676 572.667 663.333 575 650 575 c 6
 157 575 l 6
 143.667 575 131.167 572.667 119.5 568 c 132
 107.833 563.333 97.5 556.667 88.5 548 c 132
 79.5 539.333 72.5 529.5 67.5 518.5 c 132
 62.5 507.5 60 495.333 60 482 c 6
 60 -8 l 6
 60 -20.6667 62.5 -32.6667 67.5 -44 c 132
 72.5 -55.3333 79.5 -65.1667 88.5 -73.5 c 132
 97.5 -81.8333 107.833 -88.5 119.5 -93.5 c 132
 131.167 -98.5 143.667 -101 157 -101 c 6
 532 -101 l 6
 545.333 -101 555.167 -97.5 561.5 -90.5 c 132
 567.833 -83.5 571 -75.3333 571 -66 c 6
 571 -35 l 5
 164 -35 l 6
 154 -35 145.833 -31.8333 139.5 -25.5 c 132
 133.167 -19.1667 130 -11.3333 130 -2 c 6
 130 476 l 6
 130 485.333 133.167 493.167 139.5 499.5 c 132
 145.833 505.833 154 509 164 509 c 6
 642 509 l 6
 652 509 660.333 505.833 667 499.5 c 132
 673.667 493.167 677 485.333 677 476 c 6
 677 134 l 6
 677 124.667 673.667 116.833 667 110.5 c 132
 660.333 104.167 652.333 101 643 101 c 6
 571 101 l 5
 571 348 l 6
 571 376 562.667 399.833 546 419.5 c 132
 529.333 439.167 501.667 449 463 449 c 6
 301 449 l 6
 293 449 286.5 446.5 281.5 441.5 c 132
 276.5 436.5 274 431 274 425 c 6
 274 377 l 5
 450 377 l 6
 462.667 377 473.333 372.5 482 363.5 c 132
 490.667 354.5 495 344 495 332 c 6
 495 275 l 6
 495 269.667 493.5 265 490.5 261 c 132
 487.5 257 483.667 255 479 255 c 260
 474.333 255 468.5 257.167 461.5 261.5 c 132
 454.5 265.833 445.833 270.667 435.5 276 c 132
 425.167 281.333 413.333 286.167 400 290.5 c 132
 386.667 294.833 371.333 297 354 297 c 6
 333 297 l 6
 290.333 297 259 286.167 239 264.5 c 132
 219 242.833 209 216.333 209 185 c 6
 209 138 l 6
 209 106.667 219 80.1667 239 58.5 c 132
 259 36.8333 290.333 26 333 26 c 6
 354 26 l 6
 371.333 26 386.667 28.1667 400 32.5 c 132
 413.333 36.8333 425.167 41.6667 435.5 47 c 132
 445.833 52.3333 454.5 57.1667 461.5 61.5 c 132
 468.5 65.8333 474.333 68 479 68 c 4
 487 68 494 64 500 56 c 6
 520 29 l 5
 650 29 l 6
 663.333 29 676 31.5 688 36.5 c 132
 700 41.5 710.333 48.1667 719 56.5 c 132
 727.667 64.8333 734.5 74.6667 739.5 86 c 132
 744.5 97.3333 747 109.333 747 122 c 6
495 142 m 6
 495 130.667 491.167 121 483.5 113 c 132
 475.833 105 466.333 101 455 101 c 6
 325 101 l 6
 313.667 101 304.167 105 296.5 113 c 132
 288.833 121 285 130.667 285 142 c 6
 285 181 l 6
 285 192.333 288.833 202 296.5 210 c 132
 304.167 218 313.667 222 325 222 c 6
 455 222 l 6
 466.333 222 475.833 218 483.5 210 c 132
 491.167 202 495 192.333 495 181 c 6
 495 142 l 6
EndSplineSet
Fore
SplineSet
495.143 29.665 m 1xafe0
 495.143 58.5811 l 1
 331.112 29.1826 l 2
 315.729 26.1191 302.026 24.5479 290.117 24.5479 c 0
 224.042 24.5479 207.375 80.0645 207.375 127.424 c 2
 207.375 195.418 l 2
 207.375 234.811 224.534 271.24 287.67 271.24 c 0xd7e0
 302.916 271.24 312.045 268.541 330.764 266.777 c 2
 495.143 247.944 l 1
 495.143 308.012 l 2
 495.143 312.953 488.213 324.311 476.954 324.311 c 2
 274.401 324.311 l 1
 275.408 336.724 l 2
 278.999 380.992 300.076 416.004 339.07 416.004 c 2
 434.528 416.004 l 2
 531.852 416.004 587.438 362.695 587.438 269.993 c 2
 587.438 110 l 1
 651 110 l 2
 669 110 674 113.7 674 133 c 2
 674 484 l 2
 674 504.303 668.291 513 648 513 c 2
 156 513 l 2
 138.065 513 130 512.395 130 478 c 2
 130 4 l 2
 130 -29.4248 139.929 -31 153 -31 c 2
 595 -31 l 1
 595 -111 l 1
 153 -111 l 2
 108.925 -111 50 -88 50 4 c 2
 50 478 l 2
 50 570 104.975 593 156 593 c 2
 648 593 l 2
 718.209 593 754 543.298 754 484 c 2
 754 133 l 2
 754 78.2979 721.995 30 651 30 c 2
 495.143 29.665 l 1xafe0
317.857 189.782 m 2
 306.944 189.782 299.669 182.971 299.669 172.752 c 2
 299.669 134.734 l 2
 299.669 121.574 316.666 118.436 317.857 118.436 c 2
 495.143 118.436 l 1
 495.143 189.782 l 1xcfe0
 317.857 189.782 l 2
EndSplineSet
Layer: 2
SplineSet
317.857 189.782 m 2xbc
 306.944 189.782 299.669 182.971 299.669 172.752 c 2
 299.669 134.734 l 2
 299.669 121.574 316.666 118.436 317.857 118.436 c 2
 495.143 118.436 l 1
 495.143 189.782 l 1xdc
 317.857 189.782 l 2xbc
434.528 416.004 m 2
 531.852 416.004 587.438 362.695 587.438 269.993 c 2
 587.438 29.665 l 1
 495.143 29.665 l 1
 495.143 58.5811 l 1
 331.112 29.1826 l 2
 315.729 26.1191 302.026 24.5479 290.117 24.5479 c 0
 224.042 24.5479 207.375 80.0645 207.375 127.424 c 2
 207.375 195.418 l 2
 207.375 234.811 224.534 271.24 287.67 271.24 c 0xbc
 302.916 271.24 312.045 268.541 330.764 266.777 c 2
 495.143 247.944 l 1
 495.143 308.012 l 2
 495.143 312.953 488.213 324.311 476.954 324.311 c 2
 274.401 324.311 l 1
 275.408 336.724 l 2
 278.997 380.992 300.076 416.004 339.07 416.004 c 2
 434.528 416.004 l 2
EndSplineSet
EndChar

StartChar: zerooldstyle
Encoding: 63280 63280 236
Width: 457
VWidth: 0
Flags: W
HStem: 0.954102 88.8145<128.306 329.232> 208.801 51.168<205.154 256.085> 385.811 89.766<130.493 331.257>
VStem: 36.2891 88.8129<92.9721 380.152> 204.808 51.712<209.274 259.449> 334.241 87.859<95.0439 382.756>
LayerCount: 3
Fore
SplineSet
256.52 233.84 m 4
 256.52 219.144 244.001 208.801 229.848 208.801 c 4
 214.606 208.801 204.808 221.32 204.808 233.84 c 4
 204.808 249.081 216.783 259.969 229.848 259.969 c 4
 244.001 259.969 256.52 248.537 256.52 233.84 c 4
297.952 385.811 m 2
 161.392 385.811 l 2
 141.336 385.811 125.102 370.53 125.102 349.521 c 2
 125.102 126.058 l 2
 125.102 106.002 141.336 89.7686 161.392 89.7686 c 2
 297.952 89.7686 l 2
 317.053 89.7686 334.241 106.002 334.241 126.058 c 2
 334.241 349.521 l 2
 334.241 370.53 317.053 385.811 297.952 385.811 c 2
422.1 411.594 m 2
 422.1 139.426 l 2
 422.1 63.0273 361.936 0.954102 284.582 0.954102 c 2
 112.687 0.954102 l 2
 87.8584 0.954102 36.2891 40.1094 36.2891 76.3984 c 2
 36.2891 335.196 l 2
 36.2891 412.55 97.4072 475.577 175.716 475.577 c 2
 372.44 475.577 l 2
 399.772 475.577 421.969 446.769 422.1 411.594 c 2
EndSplineSet
EndChar

StartChar: oneoldstyle
Encoding: 63281 63281 237
Width: 165
VWidth: 0
Flags: W
VStem: 38.1992 87.8588<1.91016 439.744>
LayerCount: 3
Fore
SplineSet
126.058 486.083 m 5
 126.058 1.91016 l 5
 38.1992 1.91016 l 5
 38.1992 362.891 l 6
 38.1992 435.468 80.2188 475.577 126.058 486.083 c 5
EndSplineSet
EndChar

StartChar: twooldstyle
Encoding: 63282 63282 238
Width: 477
VWidth: 0
Flags: W
HStem: 0 89.7686<110.776 435.911> 400.135 78.306<75.4968 350.044>
VStem: 353.341 89.767<284.753 370.53>
LayerCount: 3
Fore
SplineSet
443.108 392.494 m 2
 443.108 296.997 l 2
 443.108 271.214 425.919 247.339 405.864 234.924 c 2
 110.776 89.7686 l 1
 457.434 89.7686 l 1
 454.567 48.7031 443.108 0 381.99 0 c 2
 62.0732 0 l 2
 57.2979 0.954102 56.3447 0.954102 52.5244 0.954102 c 0
 42.9736 3.82031 36.2891 9.5498 33.4238 20.0537 c 0
 33.4238 21.0088 33.4238 21.0088 33.4238 26.7393 c 2
 33.4238 100.858 l 2
 33.4238 102.769 l 0
 33.4238 106.587 33.4238 107.542 36.2891 110.407 c 0
 39.1533 118.047 47.749 127.597 64.9375 140.968 c 1
 324.691 276.572 l 2
 328.512 279.438 333.286 281.348 334.241 284.214 c 0
 352.387 295.672 353.341 309.997 353.341 317.638 c 0
 353.341 318.592 353.341 318.592 353.341 319.547 c 2
 353.341 370.53 l 1
 352.387 372.44 l 2
 348.566 387.72 335.196 400.135 317.053 400.135 c 2
 55.3877 400.135 l 1
 61.1182 456.479 87.8584 478.441 128.922 478.441 c 2
 329.466 478.441 l 18
 394 478.441 443.108 456 443.108 392.494 c 2
EndSplineSet
EndChar

StartChar: threeoldstyle
Encoding: 63283 63283 239
Width: 429
VWidth: 0
Flags: W
HStem: -200.599 87.858<27.6417 285.396> 140.326 59.209<100.272 105.046 105.046 270.594> 422.999 79.264<50.3 269.974>
VStem: 275.033 87.858<204.371 392.44> 290.312 89.768<-107.834 -75.4971 -75.4971 136.099>
LayerCount: 3
Fore
SplineSet
323 170 m 2xf0
 296.042 165.606 l 1
 326 162 l 2
 358.529 158.084 380.08 131 380.08 102.073 c 2
 380.08 -77.4072 l 2
 380.08 -153.806 333.286 -200.599 258.798 -200.599 c 2
 67.8027 -200.599 l 2
 23.874 -200.599 9.5498 -147.121 5.72949 -112.741 c 1
 87.8584 -112.741 171.896 -112.741 254.022 -112.741 c 0
 275.033 -111.786 290.312 -94.5967 290.312 -75.4971 c 2
 290.312 104.993 l 2xe8
 290.312 119.317 275.988 140.326 254.022 140.326 c 2
 104.093 140.326 l 2
 97.4072 142.237 97.4072 142.237 94.542 143.192 c 0
 81.1729 149.877 75.4434 163.246 76.3984 171.842 c 0
 76.3984 176.616 76.3984 177.571 78.3086 181.392 c 0
 82.1279 187.121 89.7686 195.716 100.272 199.535 c 0
 101.227 199.535 l 2
 103.137 199.535 104.093 199.535 104.093 199.535 c 2
 104.093 200.49 105.047 200.49 105.047 200.49 c 1
 237.789 200.49 l 2
 256.889 200.49 275.033 215.771 275.033 237.734 c 2
 275.033 392.44 l 1
 273.123 396.261 l 2
 269.304 410.586 256.889 422.999 238.744 422.999 c 2
 28.6494 422.999 l 1
 34.3789 479.343 62.0732 501.308 103.137 502.263 c 2
 250.203 502.263 l 2
 323.736 502.263 362.891 461.239 362.891 416.314 c 2
 362.891 226.22 l 2
 362.891 202 347.353 173.969 323 170 c 2xf0
5.72949 -112.741 m 1
 4.77539 -103.192 4.77539 -94.5967 4.77539 -89.8223 c 0
 4.77539 -88.8672 4.77539 -88.8672 4.77539 -88.8672 c 1
 -19.0986 -112.741 l 1
 5.72949 -112.741 l 1
EndSplineSet
EndChar

StartChar: fouroldstyle
Encoding: 63284 63284 240
Width: 486
VWidth: 0
Flags: W
HStem: 29.9102 63.0273<87.8584 287.447 377.215 462.309>
VStem: 287.447 89.768<-200.239 29.9102 92.9375 370.837>
LayerCount: 3
Fore
SplineSet
333.286 503.577 m 4
 357.16 503.577 377.215 484.479 377.215 458.692 c 2
 377.215 91.0273 l 1
 434.514 91.0273 l 2
 450.748 91.0273 464.118 77.6592 464.118 60.4697 c 2
 464.118 29.9102 l 1
 377.215 29.9102 l 1
 377.215 -200.239 l 1
 287.447 -200.239 l 1
 287.447 29.9102 l 1
 46.7939 29.9102 l 2
 24.8281 29.9102 7.63965 50.9189 7.63965 73.8389 c 0
 7.63965 81.4785 9.5498 90.0732 14.3252 96.7578 c 2
 287.447 476.838 l 6
 299.68 493.861 317.43 503.556 333.286 503.577 c 4
287.447 92.9375 m 1
 287.447 370.837 l 1
 87.8584 92.9375 l 1
 287.447 92.9375 l 1
EndSplineSet
EndChar

StartChar: fiveoldstyle
Encoding: 63285 63285 241
Width: 514
VWidth: 0
Flags: W
HStem: -203.835 76.093<71.0708 363.592> 122.537 80.507<142.848 363.087> 400.319 76.093<145.703 407.809>
VStem: 57.5869 85.2611<203.044 400.268> 366.541 85.26<-124.323 -93.8223 -93.8223 120.121>
LayerCount: 3
Fore
SplineSet
57.5869 392.069 m 2
 58.5039 436.075 93.3418 476.412 164.85 476.412 c 2
 355.54 476.412 l 2
 395.878 476.412 421.547 454.41 427.965 400.319 c 1
 142.848 400.319 l 1
 142.848 203.044 l 1
 324 203.044 l 2
 416 203.044 451.801 142 451.801 67.5303 c 2
 451.801 -95.6553 l 2
 451.801 -168.998 411.463 -203.835 332.619 -203.835 c 2
 115.345 -203.835 l 2
 82.3389 -203.835 60.3369 -185.5 54.8359 -127.742 c 1
 332.619 -127.742 l 2
 339.036 -127.742 366.541 -121.325 366.541 -93.8223 c 2
 366.541 89.5332 l 2
 366.541 109.701 350.038 122.537 332.619 122.537 c 2
 57.5869 122.537 l 1
 57.5869 392.069 l 2
EndSplineSet
EndChar

StartChar: sixoldstyle
Encoding: 63286 63286 242
Width: 528
VWidth: 0
Flags: W
HStem: 1.91016 95.497<138.705 387.218> 383.899 87.859<136.68 387.957> 635.059 79.261<138.33 422.983>
VStem: 45.8389 87.8561<103.38 141.336 141.336 380.862 466.027 630.867> 392.493 88.815<103.38 379.176>
LayerCount: 3
Fore
SplineSet
355.25 383.899 m 2
 169.984 383.899 l 2
 150.886 383.899 133.695 368.619 133.695 348.565 c 2
 133.695 134.649 l 2
 133.695 114.597 150.886 97.4072 169.984 97.4072 c 2
 355.25 97.4072 l 2
 376.261 97.4072 392.493 114.597 392.493 134.649 c 2
 392.493 348.565 l 2
 392.493 368.619 376.261 383.899 355.25 383.899 c 2
183.354 471.758 m 2
 342.837 471.758 l 2
 421.144 471.758 481.308 427.829 481.308 352.387 c 2
 481.308 141.336 l 2
 481.308 64.9375 419.233 1.91016 342.837 1.91016 c 2
 183.354 1.91016 l 2
 106.002 1.91016 45.8389 64.9375 45.8389 141.336 c 2
 45.8389 591.13 l 2
 45.8389 667.526 91.6777 714.32 164.256 714.32 c 2
 381.034 714.32 l 2
 424.964 714.32 438.334 667.526 443.107 635.059 c 1
 169.984 635.059 l 2
 148.976 635.059 133.695 616.913 133.695 599.725 c 2
 133.695 466.027 l 1
 146 471 162 471.758 183.354 471.758 c 2
EndSplineSet
EndChar

StartChar: sevenoldstyle
Encoding: 63287 63287 243
Width: 491
VWidth: 0
Flags: W
HStem: 414.82 88.813<33.2995 360.98>
LayerCount: 3
Fore
SplineSet
71.623 503.633 m 6
 419.234 503.633 l 6
 444.063 503.633 463.163 484.533 463.163 458.749 c 6
 463.163 428.19 l 6
 463.163 419.596 463.163 409.092 457.434 396.676 c 6
 457.434 395.722 l 5
 265.483 -182.039 l 6
 259.753 -192.543 246.383 -201.138 233.015 -201.138 c 6
 145.156 -201.138 l 5
 360.98 414.82 l 5
 13.3701 414.82 l 5
 17.1895 462.569 33.4238 503.633 71.623 503.633 c 6
EndSplineSet
EndChar

StartChar: eightoldstyle
Encoding: 63288 63288 244
Width: 500
VWidth: 0
Flags: W
HStem: 1.91016 95.497<134.21 364.298> 342.837 58.252<151.89 345.652> 621.688 85.948<153.411 344.613>
VStem: 39.1533 89.7687<103.38 339.095> 59.208 88.813<405.466 618.487> 349.521 88.813<404.441 618.487> 368.62 89.769<103.38 339.095>
LayerCount: 3
Fore
SplineSet
198.635 707.636 m 6xe8
 299.862 707.636 l 6
 377.215 707.636 438.334 657.978 438.334 581.58 c 6
 438.334 476.532 l 6xec
 438.334 444.063 427.829 415.414 409.685 391.539 c 6
 392.494 370.53 l 5
 416.369 355.25 l 6
 443.108 341.881 458.389 310.367 458.389 281.717 c 6
 458.389 141.336 l 6
 458.389 64.9375 396.314 1.91016 319.916 1.91016 c 6
 179.535 1.91016 l 6
 101.227 1.91016 39.1533 64.9375 39.1533 141.336 c 6
 39.1533 281.717 l 6xf2
 39.1533 310.367 55.3877 341.881 81.1729 355.25 c 6
 105.047 370.53 l 5
 87.8584 391.539 l 6
 70.668 415.414 59.208 444.063 59.208 476.532 c 6
 59.208 581.58 l 6
 59.208 657.978 120.326 707.636 198.635 707.636 c 6xe8
349.521 586.354 m 6
 349.521 605.455 333.286 621.688 313.232 621.688 c 6
 185.266 621.688 l 6
 164.256 621.688 148.021 605.455 148.021 586.354 c 6
 148.021 437.378 l 6
 148.021 418.279 164.256 401.089 185.266 401.089 c 6
 313.232 401.089 l 6
 333.286 401.089 349.521 418.279 349.521 437.378 c 6
 349.521 586.354 l 6
368.62 306.547 m 6xe2
 368.62 325.646 353.341 342.837 333.286 342.837 c 6
 164.256 342.837 l 6
 144.201 342.837 128.922 325.646 128.922 306.547 c 6
 128.922 134.65 l 6
 128.922 114.597 144.201 97.4072 164.256 97.4072 c 6
 333.286 97.4072 l 6
 353.341 97.4072 368.62 114.597 368.62 134.65 c 6
 368.62 306.547 l 6xe2
EndSplineSet
EndChar

StartChar: nineoldstyle
Encoding: 63289 63289 245
Width: 517
VWidth: 0
Flags: W
HStem: -199.194 87.858<92.451 374.849> 45.2793 87.8577<126.673 377.23> 417.72 89.767<127.042 374.319>
VStem: 32.4697 89.7673<135.838 172.291 172.291 412.915> 380.08 88.812<-107.332 52.9189 136.174 412.915>
LayerCount: 3
Fore
SplineSet
122.237 168.471 m 2
 122.237 148.417 137.517 133.137 157.571 133.137 c 2
 343.791 133.137 l 2
 363.845 133.137 380.08 148.417 380.08 168.471 c 2
 380.08 382.387 l 2
 380.08 402.44 363.845 417.72 343.791 417.72 c 2
 157.571 417.72 l 2
 137.517 417.72 122.237 402.44 122.237 382.387 c 2
 122.237 168.471 l 2
348.566 -199.194 m 2
 132.741 -199.194 l 2
 87.8584 -199.194 75.4434 -146.67 70.668 -111.336 c 1
 162.346 -111.336 253.068 -111.336 343.791 -111.336 c 0
 363.845 -111.336 380.08 -93.1924 380.08 -75.0469 c 2
 380.08 52.9189 l 1
 352.387 48.1455 l 2
 344.746 47.1895 338.062 45.2793 329.466 45.2793 c 2
 171.896 45.2793 l 2
 93.5869 45.2793 32.4697 96.8477 32.4697 172.291 c 2
 32.4697 368.062 l 2
 32.4697 445.414 94.542 507.487 171.896 507.487 c 2
 329.466 507.487 l 2
 406.818 507.487 468.892 445.414 468.892 368.062 c 2
 468.892 -76.957 l 2
 468.892 -153.355 422.1 -199.194 348.566 -199.194 c 2
EndSplineSet
EndChar

StartChar: ff
Encoding: 64256 64256 246
Width: 562
VWidth: 0
Flags: W
HStem: 0.954102 21G<48.7031 137.517 308.703 397.517> 394.64 80.9375<137.517 308.703 397.517 541.841> 582.373 85.7129<140.842 250.186> 612.373 85.7129<405.074 601.155>
VStem: 48.7031 88.8135<0.954102 394.64 475.577 580.425> 308.703 88.8135<0.954102 394.64 475.577 605.489>
LayerCount: 3
Fore
SplineSet
308.703 587.31 m 2xec
 308.703 654.158 360.272 698.086 440.49 698.086 c 2
 608.566 698.086 l 1
 608.566 670.032 l 2
 608.566 632.788 594.241 612.373 551.268 612.373 c 2
 440.49 612.373 l 2xdc
 413.751 612.373 397.517 595.185 397.517 568.444 c 2
 397.517 475.577 l 1
 514.021 475.577 l 2
 532.168 475.577 546.492 452.299 546.492 435.108 c 0
 546.492 416.964 532.168 394.64 514.021 394.64 c 2
 397.517 394.64 l 1
 397.517 0.954102 l 1
 308.703 0.954102 l 1
 308.703 394.64 l 1
 137.517 394.64 l 1
 137.517 0.954102 l 1
 48.7031 0.954102 l 1
 48.7031 547.31 l 2
 48.7031 614.158 92.2725 668.086 172.49 668.086 c 2
 255.566 668.086 l 1
 255.566 640.032 l 2
 255.566 602.788 247.241 582.373 204.268 582.373 c 2
 161.49 582.373 l 2
 147 582.373 137.517 574 137.517 557.444 c 2
 137.517 475.577 l 1
 308.703 475.577 l 1
 308.703 587.31 l 2xec
EndSplineSet
LCarets2: 1 0 
Ligature2: "'liga' Standard Lating Ligatures-1" f f
EndChar

StartChar: fi
Encoding: 64257 64257 247
Width: 450
VWidth: 0
Flags: W
HStem: 0.954102 21G<48.7031 137.517 300.659 389.471> 394.64 80.9375<137.517 300.659> 612.373 85.7129<145.074 391.155>
VStem: 48.7031 88.8135<0.954102 394.64 475.577 605.489> 300.659 88.8115<0.954102 394.64>
LayerCount: 3
Fore
SplineSet
48.7031 587.31 m 2
 48.7031 654.158 100.272 698.086 180.49 698.086 c 2
 398.566 698.086 l 5
 398.566 670.032 l 6
 398.566 632.788 384.241 612.373 341.268 612.373 c 6
 180.49 612.373 l 2
 153.751 612.373 137.517 595.185 137.517 568.444 c 2
 137.517 475.577 l 1
 344.456 475.567 l 4
 369.306 475.565 389.472 455.036 389.471 429.738 c 6
 389.471 0.954102 l 5
 300.659 0.954102 l 5
 300.659 394.64 l 5
 137.517 394.64 l 1
 137.517 0.954102 l 1
 48.7031 0.954102 l 1
 48.7031 587.31 l 2
EndSplineSet
LCarets2: 1 0 
Ligature2: "'liga' Standard Lating Ligatures-1" f i
EndChar

StartChar: fl
Encoding: 64258 64258 248
Width: 501
VWidth: 0
Flags: W
HStem: 0.954102 76.7402<418.471 455.649> 394.64 80.9375<137.517 281.841> 612.373 85.7129<145.074 329.659>
VStem: 48.7031 88.8135<0.954102 394.64 475.577 605.489> 329.659 126.057<22.0989 77.6373> 329.659 88.8115<77.6943 612.656>
LayerCount: 3
Fore
SplineSet
329.659 612.656 m 5xf4
 326.992 612.468 324.196 612.373 321.268 612.373 c 6
 180.49 612.373 l 6
 153.751 612.373 137.517 595.185 137.517 568.444 c 6
 137.517 475.577 l 5
 254.022 475.577 l 6
 272.168 475.577 286.492 452.299 286.492 435.108 c 4
 286.492 416.964 272.168 394.64 254.022 394.64 c 6
 137.517 394.64 l 5
 137.517 0.954102 l 5
 48.7031 0.954102 l 5
 48.7031 586.354 l 5
 48.7031 587.31 l 6
 48.7031 654.158 100.272 698.086 180.49 698.086 c 6
 374.54 698.086 l 5
 378.566 698.086 l 5
 378.566 697.908 l 5
 401.406 695.879 418.471 676.726 418.471 654.158 c 6
 418.471 77.6943 l 5xf4
 432.346 77.6943 l 6
 445.5 77.6943 455.716 69 455.716 54.3252 c 6
 455.716 0.954102 l 5
 397.5 0.954102 l 6
 360.052 0.954102 329.659 35.2471 329.659 77.5 c 6xf8
 329.659 612.656 l 5xf4
EndSplineSet
LCarets2: 1 0 
Ligature2: "'liga' Standard Lating Ligatures-1" f l
EndChar

StartChar: ffi
Encoding: 64259 64259 249
Width: 679
VWidth: 0
Flags: W
HStem: 0.954102 21G<48.7031 137.517 298.703 387.517 540.659 629.471> 394.64 80.9375<137.517 298.703 387.517 540.659> 582.373 85.7129<140.842 250.186> 612.373 85.7129<395.074 641.155>
VStem: 48.7031 88.8135<0.954102 394.64 475.577 580.425> 298.703 88.8135<0.954102 394.64 475.577 605.489> 540.659 88.8115<0.954102 394.64>
LayerCount: 3
Fore
SplineSet
298.703 587.31 m 2xee
 298.703 654.158 350.272 698.086 430.49 698.086 c 2
 648.566 698.086 l 1
 648.566 670.032 l 2
 648.566 632.788 634.241 612.373 591.268 612.373 c 2
 430.49 612.373 l 2xde
 403.751 612.373 387.517 595.185 387.517 568.444 c 2
 387.517 475.577 l 1
 584.456 475.577 l 2
 609.306 475.577 629.471 455.036 629.471 429.738 c 2
 629.471 0.954102 l 1
 540.659 0.954102 l 1
 540.659 394.64 l 1
 387.517 394.64 l 1
 387.517 0.954102 l 1
 298.703 0.954102 l 1
 298.703 394.64 l 1
 137.517 394.64 l 1
 137.517 0.954102 l 1
 48.7031 0.954102 l 1
 48.7031 547.31 l 2
 48.7031 614.158 92.2725 668.086 172.49 668.086 c 2
 255.566 668.086 l 1
 255.566 640.032 l 2
 255.566 602.788 247.241 582.373 204.268 582.373 c 2
 161.49 582.373 l 2
 147 582.373 137.517 574 137.517 557.444 c 2
 137.517 475.577 l 1
 298.703 475.577 l 1
 298.703 587.31 l 2xee
EndSplineSet
LCarets2: 2 0 0 
Ligature2: "'liga' Standard Lating Ligatures-1" f f i
EndChar

StartChar: ffl
Encoding: 64260 64260 250
Width: 733
VWidth: 0
Flags: W
HStem: 0.954102 76.7402<678.471 715.649> 394.64 80.9375<137.517 308.703 397.517 541.841> 582.373 85.7129<140.842 250.186> 612.373 85.7129<405.074 589.659>
VStem: 48.7031 88.8135<0.954102 394.64 475.577 580.425> 308.703 88.8135<0.954102 394.64 475.577 605.489> 589.659 126.057<22.0989 77.6373> 589.659 88.8115<77.6943 612.656>
LayerCount: 3
Fore
SplineSet
589.659 612.656 m 5xdd
 586.992 612.468 584.196 612.373 581.268 612.373 c 6
 440.49 612.373 l 6xdd
 413.751 612.373 397.517 595.185 397.517 568.444 c 6
 397.517 475.577 l 5
 514.022 475.577 l 6
 532.168 475.577 546.492 452.299 546.492 435.108 c 4
 546.492 416.964 532.168 394.64 514.022 394.64 c 6
 397.517 394.64 l 5
 397.517 0.954102 l 5
 308.703 0.954102 l 5
 308.703 394.64 l 5
 137.517 394.64 l 5
 137.517 0.954102 l 5
 48.7031 0.954102 l 5
 48.7031 547.31 l 6
 48.7031 614.158 92.2725 668.086 172.49 668.086 c 6
 255.566 668.086 l 5
 255.566 640.032 l 6
 255.566 602.788 247.241 582.373 204.268 582.373 c 6
 161.49 582.373 l 6xed
 147 582.373 137.517 574 137.517 557.444 c 6
 137.517 475.577 l 5
 308.703 475.577 l 5
 308.703 586.354 l 5
 308.703 587.31 l 6
 308.703 654.158 360.272 698.086 440.49 698.086 c 6
 634.54 698.086 l 5
 638.566 698.086 l 5
 638.566 697.908 l 5
 661.406 695.879 678.471 676.726 678.471 654.158 c 6
 678.471 77.6943 l 5xdd
 692.346 77.6943 l 6
 705.5 77.6943 715.716 69 715.716 54.3252 c 6
 715.716 0.954102 l 5
 657.5 0.954102 l 6
 620.052 0.954102 589.659 35.2471 589.659 77.5 c 6xde
 589.659 612.656 l 5xdd
EndSplineSet
LCarets2: 2 0 0 
Ligature2: "'liga' Standard Lating Ligatures-1" f f l
EndChar

StartChar: endash
Encoding: 8211 8211 251
Width: 475
Flags: W
HStem: 245 70<50 425>
LayerCount: 3
Fore
SplineSet
50 315 m 1
 425 315 l 1
 425 245 l 1
 50 245 l 1
 50 315 l 1
EndSplineSet
EndChar

StartChar: hyphen
Encoding: 45 45 252
Width: 375
Flags: W
HStem: 245 70<50 325>
VStem: 50 275<245 315>
LayerCount: 3
Fore
SplineSet
50 315 m 1
 325 315 l 1
 325 245 l 1
 50 245 l 1
 50 315 l 1
EndSplineSet
EndChar

StartChar: emdash
Encoding: 8212 8212 253
Width: 655
Flags: W
HStem: 245 70<50 605>
LayerCount: 3
Fore
SplineSet
50 315 m 1
 605 315 l 1
 605 245 l 1
 50 245 l 1
 50 315 l 1
EndSplineSet
EndChar
